<?xml version="1.0" standalone="no"?><!DOCTYPE svg PUBLIC "-//W3C//DTD SVG 1.1//EN" "http://www.w3.org/Graphics/SVG/1.1/DTD/svg11.dtd"><svg t="1486793217804" class="icon" style="" viewBox="0 0 1024 1024" version="1.1" xmlns="http://www.w3.org/2000/svg" p-id="3138" xmlns:xlink="http://www.w3.org/1999/xlink" width="200" height="200"><defs><style type="text/css"></style></defs><path d="M31.934615 254.754355C33.202424 230.200519 33.995913 205.611221 35.862165 181.106147 38.19387 150.514701 63.696346 125.894372 94.332121 123.908433 121.514667 122.144139 148.834632 121.74961 175.888623 118.832762 284.020364 107.178667 383.915775 71.578043 475.628052 13.192312 494.166442 1.391931 513.507186-2.469126 534.465939 4.610216 540.055827 6.498632 545.441801 9.402182 550.442113 12.589437 632.167065 64.720346 720.869403 98.601004 816.469333 114.364398 852.593039 120.322216 889.018182 123.083913 925.638372 123.59813 964.412952 124.138944 989.62729 149.508433 992.318061 188.336208 995.882113 239.771152 995.438823 291.126303 990.562632 342.383931 973.633385 520.342719 914.53839 681.611636 798.968242 819.904831 728.245749 904.533333 642.256346 969.479758 541.629506 1014.885957 522.488242 1023.52568 503.630684 1023.011463 484.511584 1014.349576 393.455377 973.083706 314.33697 915.429403 247.169662 841.466459 159.730701 745.188294 101.282909 633.080242 66.635359 508.201004 43.641905 425.323498 32.865524 340.757056 31.934615 254.754355L31.934615 254.754355ZM99.279238 188.291879C98.583273 200.446892 97.608035 212.366961 97.266701 224.304762 95.577766 283.812017 99.195013 342.969074 108.898632 401.749333 124.396052 495.611567 153.803913 584.708433 200.67297 667.670165 272.862753 795.444087 373.915152 892.489143 507.686788 954.456658 511.871446 956.398268 515.187255 956.513524 519.447273 954.549749 640.766892 898.553351 736.357957 813.140225 807.062719 700.287446 901.940087 548.846268 937.004329 382.217974 929.18026 205.229991 928.927584 199.551446 928.213887 193.895065 927.699671 188.074667 925.407861 187.932814 923.665732 187.755498 921.919169 187.7289 881.539879 187.099429 841.382234 183.779186 801.574788 176.961385 700.185489 159.597714 605.906563 123.589264 519.043879 68.399654 515.236017 65.983723 512.558545 65.695584 508.462545 68.209039 492.424312 78.036779 476.337316 87.851221 459.762701 96.725887 363.777108 148.151965 261.430303 177.8391 152.775481 185.499152 135.340883 186.727065 117.861957 187.338805 99.279238 188.291879L99.279238 188.291879Z" p-id="3139"></path><path d="M449.846303 591.783342C452.209039 588.972883 453.645299 586.973645 455.365264 585.25368 530.396537 510.182511 605.485437 435.164537 680.463515 360.03574 688.770771 351.710753 698.057697 346.688277 710.088589 348.430407 722.567203 350.23903 731.251255 357.141056 735.741784 368.861645 740.267775 380.670892 737.851844 391.487169 729.916952 401.142026 728.236883 403.190026 726.273108 405.011948 724.393558 406.891498 641.666771 489.622719 558.939983 572.349506 476.208762 655.076294 458.051602 673.233455 440.971636 673.193558 422.712519 654.961039 381.78355 614.102996 340.827983 573.27155 299.952208 532.355879 286.58258 518.972952 285.625074 499.946944 297.389991 486.945247 309.842009 473.181091 330.499325 472.600381 344.157091 486.018771 363.754944 505.27529 383.117853 524.771186 402.533957 544.209455 418.004779 559.706874 433.417974 575.261922 449.846303 591.783342L449.846303 591.783342Z" p-id="3140"></path></svg>