<svg width="23" height="17" viewBox="0 0 23 17" xmlns="http://www.w3.org/2000/svg"><path d="M7.669 11H6.647L6.24 9.943H4.38L3.998 11H3l1.812-4.653h.994L7.669 11zm-1.73-1.84l-.641-1.727-.629 1.726h1.27zm8.954-.994a4.001 4.001 0 0 1 5.603 5.52l-5.355-5.355a.746.746 0 0 0-.248-.165zm-.98.974a3.97 3.97 0 0 0-.644 1.491 3.997 3.997 0 0 0 6.167 4.117L14.08 9.39a.748.748 0 0 1-.166-.251zM14 3.513a.204.204 0 0 1 0-.026V3h2.5v.493a.205.205 0 0 1 0 .014V4H14v-.487zm-3.018 6.659V11H7.856c.034-.313.135-.61.305-.89.169-.28.503-.652 1.003-1.116.402-.374.648-.628.74-.762a.981.981 0 0 0 .183-.545c0-.2-.053-.352-.16-.46-.107-.106-.255-.16-.443-.16a.594.594 0 0 0-.444.169c-.11.112-.174.298-.19.558l-.89-.088c.054-.491.22-.844.499-1.057.28-.214.628-.32 1.047-.32.46 0 .82.123 1.083.37.262.248.393.556.393.924 0 .21-.037.409-.112.598-.076.19-.195.388-.358.595a5.714 5.714 0 0 1-.584.594c-.28.258-.46.43-.534.514a1.54 1.54 0 0 0-.183.248h1.771zM4.5 3H7v1H4.5V3zm15.183 2.437V2.439a.5.5 0 0 0-.5-.5h-17a.5.5 0 0 0-.5.5v11.5a.5.5 0 0 0 .5.5h9.242a6.557 6.557 0 0 0 1.082 1.501H1.689a1.5 1.5 0 0 1-1.5-1.5V1.937a1.5 1.5 0 0 1 1.5-1.5h18a1.5 1.5 0 0 1 1.5 1.5v4.384a6.55 6.55 0 0 0-1.506-.885zm2.932 7.11a5.5 5.5 0 1 1-10.77-2.235 5.5 5.5 0 0 1 10.77 2.234z" fill="#F2A049" fill-rule="evenodd"/></svg>