<svg width="21" height="17" viewBox="0 0 21 17" xmlns="http://www.w3.org/2000/svg"><path d="M12.285 5.083h1.874c1.183 0 2.143.959 2.143 2.143v.214c0 1.183-.96 2.143-2.143 2.143h-3.714A2.142 2.142 0 0 1 8.6 8.531H6.794a2.357 2.357 0 0 1-2.356-2.357v-.285A2.357 2.357 0 0 1 6.793 3.53h3.286a2.35 2.35 0 0 1 2.205 1.552zm-2.015.007a2.144 2.144 0 0 0-1.96 1.941H6.937a1 1 0 0 1 0-2h3a.96.96 0 0 1 .333.059zM1.5 13v1.5a.5.5 0 0 0 .5.5h17a.5.5 0 0 0 .5-.5V13h-18zm0-1.5V2a.5.5 0 0 1 .5-.5h17a.5.5 0 0 1 .5.5v9.5h-18zM19.5 0h-18A1.5 1.5 0 0 0 0 1.5V15a1.5 1.5 0 0 0 1.5 1.5h18A1.5 1.5 0 0 0 21 15V1.5A1.5 1.5 0 0 0 19.5 0zm-5.448 8.083h-3.5a.75.75 0 1 1 0-1.5h3.5a.75.75 0 1 1 0 1.5z" fill="#F76260" fill-rule="evenodd"/></svg>