<svg width="45" height="42" viewBox="0 0 45 42" xmlns="http://www.w3.org/2000/svg" xmlns:xlink="http://www.w3.org/1999/xlink"><defs><path d="M323.095 842.51v.188h-.424a1.612 1.612 0 0 1-.433.062c-.149 0-.292-.023-.433-.062h-3.771c.125.331.203.687.203 1.063v13.002a3 3 0 0 1-3.001 2.997h-26.001a3 3 0 0 1-2.998-2.997v-13.002c0-.377.078-.732.203-1.063h-3.162a2.49 2.49 0 0 1-.543.062 2.51 2.51 0 0 1-.543-.062h-.812v-.34a2.502 2.502 0 0 1-1.144-2.096c0-.878.457-1.648 1.144-2.097v-.63l18-17.483h.583c.522-.779 1.343-1.29 2.275-1.29.932 0 1.75.511 2.272 1.29h.585l18 17.483v.478c.672.403 1.14 1.254 1.14 2.249 0 .995-.468 1.845-1.14 2.248zm-23.858 14.253h6.001v-9.002h-6.001v9.002zm4.92-33.137c-.974-1.218-3.028-1.128-3.843 0l-15.394 15.445c.116.215.215.444.266.692h4.048v16.997h7.001v-9.999a2 2 0 0 1 2-2h7.998a2 2 0 0 1 2 2v9.999h7.001v-16.997h5.004l-16.081-16.137z" id="a"/></defs><use fill="#10AEFF" xlink:href="#a" transform="translate(-280 -818)" fill-rule="evenodd"/></svg>