<svg width="19" height="21" viewBox="0 0 19 21" xmlns="http://www.w3.org/2000/svg"><path d="M16.437 3.5c.103.29.378.5.704.5.326 0 .6-.21.704-.5h.046v-2a1.5 1.5 0 0 0-1.5-1.5h-14a1.5 1.5 0 0 0-1.5 1.5v18a1.5 1.5 0 0 0 1.5 1.5h14a1.5 1.5 0 0 0 1.5-1.5v-6h-.046a.747.747 0 0 0-1.408 0h-.046V19a.5.5 0 0 1-.5.5h-13a.5.5 0 0 1-.5-.5V2a.5.5 0 0 1 .5-.5h13a.5.5 0 0 1 .5.5v1.5h.046zm-2.546 2h-9a.5.5 0 0 0-.5.5v.5a.5.5 0 0 0 .5.5h9a.5.5 0 0 0 .5-.5V6a.5.5 0 0 0-.5-.5zm-1.5 4.5h-7.5a.5.5 0 0 0-.5.5v.5a.5.5 0 0 0 .5.5h7.5a.5.5 0 0 0 .5-.5v-.5a.5.5 0 0 0-.5-.5zm-2 4.5h-5.5a.5.5 0 0 0-.5.5v.5a.5.5 0 0 0 .5.5h5.5a.5.5 0 0 0 .5-.5V15a.5.5 0 0 0-.5-.5zm8.197-9.235l-.463-.214a.51.51 0 0 0-.678.25l-4.502 9.751a.512.512 0 0 0 .249.679l.463.215a.51.51 0 0 0 .678-.25l4.502-9.75a.513.513 0 0 0-.249-.68zm-6.26 10.732l-.441 2.265.518.235 1.479-1.796-1.496-.678-.06-.026z" fill="#F76260" fill-rule="evenodd"/></svg>