<svg width="22" height="19" viewBox="0 0 22 19" xmlns="http://www.w3.org/2000/svg" xmlns:xlink="http://www.w3.org/1999/xlink"><defs><path d="M248 1453a2 2 0 1 1 0-4 2 2 0 0 1 0 4zm1.364 7.398c.062-.052.132-.097.208-.135l3.926-1.967-3.707-3.37a.942.942 0 0 1-.223-.334.479.479 0 0 1-.118-.142c-.2-.45-.12-1.188.665-1.656l3.421-2.223a.952.952 0 0 1 .023-.066l.05.019.208-.135a.894.894 0 0 1 1.017-.36.87.87 0 0 1 .18.055l4.4 1.162a.957.957 0 0 1 .52 1.22l.065.008c-.184.479-.946.637-1.416.44l-3.949-1.04-2.735 1.776 4.31 3.919c.38.367.382.96.007 1.324l-.052.051a.578.578 0 0 1-.239.293l-.176.088a.96.96 0 0 1-.229.115l-4.44 2.224 2.284 4.197c.282.563.116 1.283-.375 1.607 0 0-.849.26-1.337-.713l-2.706-4.97c-.335-.855.316-1.327.316-1.327a.992.992 0 0 1 .102-.06zm-1.611-3.126c.141-.007.283-.04.417-.102l.444-.207c.49-.229.678-.764.42-1.195-.256-.43-.862-.593-1.353-.365l-.326.153-2.765-2.764a1.009 1.009 0 0 0-1.357-.055c-.324.4-.315.982.057 1.355l3.102 3.101c.363.365.927.384 1.326.08h.014c-.012.02-.022.042-.04.06l.06-.061zm.247-5.471a.8.8 0 1 1 0-1.6.8.8 0 0 1 0 1.6zm-4.71.85c-.026.026-.035.059-.057.086-.027.02-.058.03-.084.055l.14-.14zm19.726 13.257s-2.299-.672-3.953-1.987c-1.654-1.317-2.426-3.499-2.426-3.499a1.014 1.014 0 0 1 .367-1.383s.591-.225 1.07.41c0 0 .914 2.243 2.925 3.551 1.91 1.24 3.005 1.417 3.005 1.417.314.055.497.385.496.994 0 0-.596.841-1.484.497z" id="a"/></defs><use fill="#F76260" xlink:href="#a" transform="translate(-243 -1449)" fill-rule="evenodd"/></svg>