<svg width="17" height="23" viewBox="0 0 17 23" xmlns="http://www.w3.org/2000/svg" xmlns:xlink="http://www.w3.org/1999/xlink"><defs><path d="M107.118 873.45h-.5v.5a.5.5 0 0 1-.5.5h-1.5a.5.5 0 0 1-.5-.5v-.5h-7v.5c0 .277-.223.5-.499.5h-1.5a.5.5 0 0 1-.5-.5v-.5h-.5c-.829 0-1.5-.67-1.5-1.498v-9.5a1.5 1.5 0 0 1 1.5-1.5h2.999v-7h-.498a.5.5 0 0 1-.5-.5v-.5a.5.5 0 0 1 .5-.5h8a.5.5 0 0 1 .5.5v.5a.5.5 0 0 1-.5.5h-.5v7h2.998a1.5 1.5 0 0 1 1.5 1.5v9.5a1.5 1.5 0 0 1-1.5 1.499zm-9-19.498v7h5v-7h-5zm-4 11.499v-2.5a.5.5 0 0 1 .5-.5h12a.5.5 0 0 1 .5.5v2.5h-13zm0 1v5a.5.5 0 0 0 .5.5h12a.5.5 0 0 0 .5-.5v-5h-13z" id="a"/></defs><use fill="#F76260" xlink:href="#a" transform="translate(-92 -852)" fill-rule="evenodd"/></svg>