<svg width="21" height="17" viewBox="0 0 21 17" xmlns="http://www.w3.org/2000/svg"><path d="M12.285 5.583h1.874c1.183 0 2.143.959 2.143 2.143v.214c0 1.183-.96 2.143-2.143 2.143h-3.715A2.142 2.142 0 0 1 8.6 9.031H6.795a2.357 2.357 0 0 1-2.357-2.357v-.285A2.357 2.357 0 0 1 6.795 4.03h3.285a2.35 2.35 0 0 1 2.205 1.552zm-2.015.007a2.144 2.144 0 0 0-1.96 1.941H6.937a1 1 0 0 1 0-2h3a.96.96 0 0 1 .333.059zM1.5 13.5V15a.5.5 0 0 0 .5.5h17a.5.5 0 0 0 .5-.5v-1.5h-18zm0-1.5V2.5A.5.5 0 0 1 2 2h17a.5.5 0 0 1 .5.5V12h-18zM19.5.5h-18A1.5 1.5 0 0 0 0 2v13.5A1.5 1.5 0 0 0 1.5 17h18a1.5 1.5 0 0 0 1.5-1.5V2A1.5 1.5 0 0 0 19.5.5zm-5.448 8.083h-3.5a.75.75 0 1 1 0-1.5h3.5a.75.75 0 1 1 0 1.5z" fill="#F76260" fill-rule="evenodd"/></svg>