<svg width="40" height="43" viewBox="0 0 40 43" xmlns="http://www.w3.org/2000/svg"><path d="M20 42.508C1.531 37.874 0 18.017 0 12.506c0-2.529 1.832-3.382 3-3.998 4.5-2.386 14-7.001 14-7.001s3-1.598 6 0c3.963 2.107 12.244 6.191 14 7.001.023.009 3 1.621 3 3.998 0 5.762-.392 25.578-20 30.002zm0-39.001S4.941 11.36 3 12.506c0 10.046 4.393 22.685 17 27.001 13.211-4.155 17.182-17.376 17-27.001-2.379-1.146-17-8.999-17-8.999zm-1.055 23.628h-4.347v-2.59h4.347V23.14h-4.347v-2.59h3.058l-3.644-7.394h3.61l2.343 4.992c.297.625.508 1.176.633 1.652a11.36 11.36 0 0 1 .632-1.652l2.391-4.992h3.61l-3.692 7.394h3.106v2.59h-4.407v1.406h4.407v2.59h-4.407v3.2h-3.293v-3.2z" fill="#10AEFF" fill-rule="evenodd"/></svg>