<svg width="42" height="42" viewBox="0 0 42 42" xmlns="http://www.w3.org/2000/svg" xmlns:xlink="http://www.w3.org/1999/xlink"><defs><path d="M402.002 1011.002c-11.599 0-21.001-9.404-21.001-21.001 0-11.599 9.402-21.001 21.001-21.001 11.596 0 20.998 9.402 20.998 21.001 0 11.597-9.402 21.001-20.998 21.001zm0-39.001c-9.942 0-18 8.058-18 18 0 9.939 8.058 18.001 18 18.001 9.939 0 18-8.062 18-18.001 0-9.942-8.061-18-18-18zm12.734 12.258l.827 1.568 1.678.338-1.167 1.307.211 1.777-1.549-.762-1.55.762.212-1.777-1.17-1.307 1.681-.338.827-1.568zm-7.005-9.004l.825 1.568 1.672.337-1.165 1.307.212 1.777-1.544-.761-1.54.761.212-1.777-1.164-1.307 1.672-.337.82-1.568zm-17.994 9.004l.827 1.568 1.681.338-1.17 1.307.212 1.777-1.55-.762-1.549.762.212-1.777-1.168-1.307 1.682-.338.823-1.568zm7.005-9.004l.821 1.568 1.671.337-1.164 1.307.212 1.777-1.54-.761-1.541.761.209-1.777-1.161-1.307 1.669-.337.824-1.568zm19.624 19.997c-.045.128-.102.254-.152.382.003.042.024.078.024.12 0 .478-.239.887-.588 1.161-2.451 4.941-7.527 8.339-13.411 8.339-5.888 0-10.96-3.397-13.412-8.339-.349-.274-.588-.684-.588-1.161 0-.042.021-.078.023-.12-.05-.128-.107-.254-.152-.382h.227a1.488 1.488 0 0 1 1.4-.997c.651 0 1.191.418 1.4.997h.197c1.896 4.129 6.061 7.001 10.904 7.001 4.842 0 9.004-2.872 10.9-7.001h.197a1.49 1.49 0 0 1 1.4-.997c.65 0 1.194.418 1.403.997h.228zm-14.131-12.004l1.982 3.767 4.031.813-2.806 3.143.51 4.27-3.717-1.827-3.714 1.827.508-4.27-2.804-3.143 4.031-.813 1.979-3.767z" id="a"/></defs><use fill="#10AEFF" xlink:href="#a" transform="translate(-381 -969)" fill-rule="evenodd"/></svg>