<svg width="36" height="46" viewBox="0 0 36 46" xmlns="http://www.w3.org/2000/svg" xmlns:xlink="http://www.w3.org/1999/xlink"><defs><path d="M203.001 247.042H199v4.001h4.001v-4zm1.997 0h4.778a9.031 9.031 0 0 1 0 4.001h-4.778v-4zm-1.997 10.776a9.034 9.034 0 0 1-4.001 0v-4.775h4.001v4.775zm1.997-.711a9.039 9.039 0 0 0 4.065-4.064h-4.065v4.064zm-1.997-16.843a9.028 9.028 0 0 0-4.001 0v4.778h4.001v-4.778zm1.997.712a9.041 9.041 0 0 1 4.066 4.066h-4.066v-4.066zM197 247.042h-4.778a9.03 9.03 0 0 0 0 4.001H197v-4zm0 10.064a9.037 9.037 0 0 1-4.065-4.063H197v4.063zm0-16.13a9.04 9.04 0 0 0-4.066 4.066H197v-4.066zm17.381-12.933l-.008-.053a.998.998 0 0 0-1.138-.839l-10.879.892h12.025zm-28.98.06a.457.457 0 0 1 .066-.015l28.308-4.055a3.004 3.004 0 0 1 3.416 2.52l.283 1.877a3 3 0 0 1 1.526 2.613v35a3 3 0 0 1-3 3h-30a3 3 0 0 1-3-3v-35a3 3 0 0 1 2.401-2.94zm30.599 3.94a1 1 0 0 0-1-1h-27.999a1 1 0 0 0-1 1v33a1 1 0 0 0 1 1H215a1 1 0 0 0 1-1v-33zm-15 27.998c-6.076 0-11.002-4.923-11.002-10.999 0-6.076 4.926-10.999 11.002-10.999 6.073 0 10.999 4.923 10.999 11 0 6.075-4.926 10.998-10.999 10.998z" id="a"/></defs><use fill="#10AEFF" xlink:href="#a" transform="translate(-183 -224)" fill-rule="evenodd"/></svg>