<svg width="41" height="43" viewBox="0 0 41 43" xmlns="http://www.w3.org/2000/svg" xmlns:xlink="http://www.w3.org/1999/xlink"><defs><path d="M713.567 107.357c3.783-5.567 5.107-12.455 5-18.104-2.379-1.146-17-8.999-17-8.999s-15.059 7.853-17 8.999c0 5.733 1.43 12.31 5.002 17.703v-.202c0-.284.079-.55.216-.777.857-4.454 4.181-8.024 8.493-9.254a5.465 5.465 0 0 1-1.711-3.968 5.5 5.5 0 1 1 11.002 0c0 1.695-.785 3.191-1.992 4.2 3.958 1.406 6.965 4.82 7.774 9.022.137.226.216.492.216.777v.603zm-3.002 3.59c-2.356 2.29-5.319 4.15-8.998 5.307-3.663-1.254-6.632-3.21-9.002-5.602v-3.408h.063c.505-4.496 4.309-7.989 8.939-7.989s8.435 3.493 8.939 7.989h.059v3.702zm-19.763 2.583a23.356 23.356 0 0 1-.516-.496 1.51 1.51 0 0 1-.513-.524c-7.407-7.807-8.206-19.276-8.206-23.257 0-2.529 1.832-3.382 3-3.998 4.5-2.386 14-7.001 14-7.001s3-1.598 6 0c3.963 2.107 12.244 6.191 14 7.001.023.009 3 1.621 3 3.998 0 5.762-.392 25.578-20 30.002-4.506-1.13-8.004-3.168-10.717-5.681l.002.056a12.257 12.257 0 0 1-.05-.1zm11.263-23.277a2.5 2.5 0 1 0 .003 5 2.5 2.5 0 0 0-.003-5z" id="a"/></defs><use fill="#10AEFF" xlink:href="#a" transform="translate(-681 -77)" fill-rule="evenodd"/></svg>