<svg width="21" height="18" viewBox="0 0 21 18" xmlns="http://www.w3.org/2000/svg"><path d="M19.5.5h-18A1.5 1.5 0 0 0 0 2v14a1.5 1.5 0 0 0 1.5 1.5h18A1.5 1.5 0 0 0 21 16V2A1.5 1.5 0 0 0 19.5.5zm0 15a.5.5 0 0 1-.5.5H2a.5.5 0 0 1-.5-.5v-13A.5.5 0 0 1 2 2h17a.5.5 0 0 1 .5.5v13zM17.5 4h-3a.5.5 0 0 0-.5.5v3a.5.5 0 0 0 .5.5h3a.5.5 0 0 0 .5-.5v-3a.5.5 0 0 0-.5-.5zM17 6.5a.5.5 0 0 1-.5.5h-1a.5.5 0 0 1-.5-.5v-1a.5.5 0 0 1 .5-.5h1a.5.5 0 0 1 .5.5v1zM12 11H4.5a.5.5 0 0 0-.5.5v.5a.5.5 0 0 0 .5.5H12a.5.5 0 0 0 .5-.5v-.5a.5.5 0 0 0-.5-.5zm0-4.5H4.5A.5.5 0 0 0 4 7v.5a.5.5 0 0 0 .5.5H12a.5.5 0 0 0 .5-.5V7a.5.5 0 0 0-.5-.5z" fill="#F76260" fill-rule="evenodd"/></svg>