<svg width="36" height="46" viewBox="0 0 36 46" xmlns="http://www.w3.org/2000/svg" xmlns:xlink="http://www.w3.org/1999/xlink"><defs><path d="M414.381 228.043l-.008-.053a.998.998 0 0 0-1.138-.839l-10.879.892h12.025zm-28.98.06a.457.457 0 0 1 .066-.015l28.308-4.055a3.004 3.004 0 0 1 3.416 2.52l.283 1.877a3 3 0 0 1 1.526 2.613v35a3 3 0 0 1-3 3h-30a3 3 0 0 1-3-3v-35a3 3 0 0 1 2.401-2.94zm30.599 3.94a1 1 0 0 0-1-1h-27.999a1 1 0 0 0-1 1v33a1 1 0 0 0 1 1H415a1 1 0 0 0 1-1v-33zM396.386 256v-1.062h8.569V256h1.857v-7.437h-12.217V256h1.791zm12.351-9.231c-1.326-1.416-2.92-2.986-4.78-4.714l-1.329.997 1.992 1.992-8.432.266c1.15-.928 2.699-2.302 4.649-4.117.176-.131.308-.242.397-.331l-1.991-.863c-1.284 1.504-2.768 2.964-4.449 4.383-.576.486-1.173.842-1.794 1.063l.863 1.791c.576-.131 1.329-.242 2.257-.332 1.995-.089 5.314-.176 9.963-.266.397.397.797.821 1.194 1.263l1.46-1.132zm-3.783 3.388v3.32h-8.569v-3.32h8.569z" id="a"/></defs><use fill="#10AEFF" xlink:href="#a" transform="translate(-383 -224)" fill-rule="evenodd"/></svg>