<svg width="36" height="46" viewBox="0 0 36 46" xmlns="http://www.w3.org/2000/svg"><path d="M31.381 4.043l-.008-.053a.998.998 0 0 0-1.138-.839l-10.879.892h12.025zm-28.98.06a.457.457 0 0 1 .066-.015L30.775.033a3.004 3.004 0 0 1 3.416 2.52l.283 1.877A3 3 0 0 1 36 7.043v35a3 3 0 0 1-3 3H3a3 3 0 0 1-3-3v-35a3 3 0 0 1 2.401-2.94zM33 8.043a1 1 0 0 0-1-1H4.001a1 1 0 0 0-1 1v33a1 1 0 0 0 1 1H32a1 1 0 0 0 1-1v-33zm-7.937 29.395c.457.752.791 1.355 1 1.812l-1.687.439c-.334-.833-.836-1.854-1.501-3.063l1.564-.373c.165.289.374.686.624 1.185zm-3.687.438c.248.583.436 1.042.562 1.374l-1.687.313a16.909 16.909 0 0 1-.313-.875 83.338 83.338 0 0 0-.75-1.875l1.562-.313c.167.335.376.794.626 1.376zm2.437-5.311h-4.001V34.5h4.001v-1.935zm1.501 3.186h-7.001v-4.437h7.001v4.437zM14.25 36.814a185.94 185.94 0 0 0-1.374 3.126l-1.627-.439c.501-1 .958-2.021 1.376-3.063l1.625.376zm-.812-6.876h2.188v-2.75h-2.188v2.75zm0 4.377h2.188v-3h-2.188v3zm-1.5-8.5h5.124v9.873h-5.124v-9.873zm4.438 13.936c-.126-.585-.355-1.376-.687-2.376a9.181 9.181 0 0 1-.188-.499l1.562-.188c.376.958.689 1.896.938 2.812l-1.625.251zm7.063-9.312c-.459.042-1.083.063-1.875.063-.086-.46-.188-.896-.313-1.313h1.687c.583 0 .896-.272.938-.812.042-.251.062-.687.062-1.313h-2.75c0 1.75-.875 3.084-2.625 4-.125-.125-.313-.313-.564-.561a9.568 9.568 0 0 1-.562-.502c1.499-.624 2.251-1.603 2.251-2.938h-1.627v-1.311h7.438c0 .875-.042 1.812-.123 2.812-.086 1.29-.731 1.917-1.937 1.875zm-8.751-7.437c.042 1.081-.522 1.646-1.687 1.687-.418.042-.919.062-1.502.062a13.298 13.298 0 0 0-.311-1.564h1.123c.501.042.729-.185.689-.687v-3.374l-1.875.561L11 17.875c.083 0 .188-.021.311-.063.418-.083.979-.209 1.69-.373V14.25h-1.69v-1.499h1.69v-2.69h1.687v2.69h1.561v1.499h-1.561v2.812a16.363 16.363 0 0 1 1.624-.438v1.627l-1.624.436v4.315zm9.187-3.502v-.875h-5.124c-.125 2.544-.794 4.667-2 6.377a14.92 14.92 0 0 0-.938-.814 5.97 5.97 0 0 1-.439-.374c.75-1 1.23-2.021 1.439-3.063.206-.958.311-2.52.311-4.688v-3.875h3.439a9.246 9.246 0 0 0-.251-.624c-.25-.585-.418-1-.501-1.251L21.563 10c.081.25.206.605.374 1.062.209.543.355.917.439 1.125h3.123v7.312h-1.624v.001zm0-5.81h-5.063v3.437h5.063V13.69z" fill="#10AEFF" fill-rule="evenodd"/></svg>