<svg width="22" height="21" viewBox="0 0 22 21" xmlns="http://www.w3.org/2000/svg" xmlns:xlink="http://www.w3.org/1999/xlink"><defs><path d="M409.862 1097.636h-12.5c-.275 0-.527-.08-.75-.21-.222.13-.476.21-.75.21h-4.001a1.499 1.499 0 0 1-1.498-1.5v-17c0-.829.67-1.5 1.498-1.5h4c.275 0 .53.079.752.208a1.47 1.47 0 0 1 .749-.208h12.5a1.5 1.5 0 0 1 1.5 1.5v17a1.5 1.5 0 0 1-1.5 1.5zm-14-17.5a1 1 0 0 0-1-1h-2a1 1 0 0 0-1.001 1v15a1 1 0 0 0 1 1h2a1 1 0 0 0 1-1v-15zm14 0a1 1 0 0 0-1.001-1h-10.498a1 1 0 0 0-1.001 1v15a1 1 0 0 0 1 1h10.499a1 1 0 0 0 1-1v-15zm-2.5 4.498h-7.501a.997.997 0 0 1-.998-.998v-2.5c0-.553.446-1 .998-1h7.502a1 1 0 0 1 .998 1v2.5a.998.998 0 0 1-.998.998zm-.5-2.998h-6.501v1.5h6.502v-1.5zm-6.25 5.999h-1a.749.749 0 0 1-.75-.75c0-.415.335-.75.75-.75h1a.75.75 0 0 1 0 1.5zm0 3.5h-1a.749.749 0 1 1 0-1.5h1a.75.75 0 0 1 0 1.5zm0 3.5h-1a.749.749 0 0 1-.75-.75c0-.415.335-.75.75-.75h1a.75.75 0 0 1 0 1.5zm3.499-7h-.998a.75.75 0 1 1 0-1.5h.998a.75.75 0 1 1 0 1.5zm0 3.5h-.998a.75.75 0 1 1 0-1.5h.998a.75.75 0 1 1 0 1.5zm0 3.5h-.998a.75.75 0 1 1 0-1.5h.998a.75.75 0 1 1 0 1.5zm3.5-7h-1a.75.75 0 0 1 0-1.5h1a.75.75 0 0 1 0 1.5zm0 3.5h-1a.75.75 0 0 1 0-1.5h1a.75.75 0 0 1 0 1.5zm0 3.5h-1a.75.75 0 0 1 0-1.5h1a.75.75 0 0 1 0 1.5z" id="a"/></defs><use fill="#F76260" xlink:href="#a" transform="translate(-390 -1077)" fill-rule="evenodd"/></svg>