<svg width="44" height="34" viewBox="0 0 44 34" xmlns="http://www.w3.org/2000/svg"><path d="M14.753 26.618V25.5h14.18v1.12h2.406V6.936H12.431v19.681h2.322zm14.18-17.704v14.781h-14.18V8.915h14.18zm-8.336 3.61v2.232h-4.211v1.893h4.211v3.437h-4.814v1.89h12.203v-1.89H25.84l1.289-1.203a36.514 36.514 0 0 0-2.148-1.977l-1.203 1.03c.629.573 1.316 1.29 2.062 2.149h-3.01v-3.437h4.469v-1.893H22.83v-2.233h4.898v-1.89H15.957v1.89h4.64v.001zm21.902 16.475a1.5 1.5 0 0 1 1.499 1.502c0 .176-.042.34-.098.498h.098A2.998 2.998 0 0 1 41.001 34H3a3 3 0 0 1-3-3.001V3a3 3 0 0 1 3-3h38.001c1.078 0 2.015.576 2.543 1.43.278.271.454.648.454 1.069 0 .06-.026.11-.032.167.012.11.032.221.032.334H43.9a1.493 1.493 0 0 1-1.4 1.001c-.65 0-1.191-.422-1.4-1.001H4.001a1 1 0 0 0-1 1.001v25.998a1 1 0 0 0 1 1H41.1a1.457 1.457 0 0 1-.099-.498 1.5 1.5 0 0 1 1.498-1.502zm0-18A1.5 1.5 0 0 1 41 9.5v-2a1.5 1.5 0 1 1 2.998 0v2a1.5 1.5 0 0 1-1.499 1.499zm0 7.001A1.5 1.5 0 0 1 41 16.498v-2a1.5 1.5 0 0 1 2.998 0v2A1.5 1.5 0 0 1 42.499 18zm0 7.998A1.5 1.5 0 0 1 41 24.5v-2.001a1.5 1.5 0 0 1 2.998 0V24.5c0 .828-.672 1.498-1.499 1.498z" fill="#10AEFF" fill-rule="evenodd"/></svg>