<svg width="18" height="21" viewBox="0 0 18 21" xmlns="http://www.w3.org/2000/svg" xmlns:xlink="http://www.w3.org/1999/xlink"><defs><path d="M143.676 1466.676a.75.75 0 0 1-.058-.292v-16.748a1.5 1.5 0 0 1 1.5-1.501h11.501a1.5 1.5 0 0 1 1.499 1.5v14a1.5 1.5 0 0 1-1.5 1.5h-10.5a1 1 0 0 0 0 2h12.5c0-.217.208-.402.5-.47v-15.78a.75.75 0 0 1 1.5 0v17a.75.75 0 0 1-1.025.699c-.155.03-.313.052-.475.052h-13a2.501 2.501 0 0 1-2.442-1.96zm8.442-3.041h4a.5.5 0 0 0 .5-.5v-13a.5.5 0 0 0-.5-.5h-10.5a.5.5 0 0 0-.5.5v13.708a2.492 2.492 0 0 1 1-.208h6zm.75-9.5h-4.5a.75.75 0 0 1 0-1.499h4.5a.75.75 0 0 1 0 1.498zm0 3.5h-4.5a.75.75 0 0 1 0-1.5h4.5a.75.75 0 0 1 0 1.5z" id="a"/></defs><use fill="#F76260" xlink:href="#a" transform="translate(-143 -1448)" fill-rule="evenodd"/></svg>