<svg width="46" height="43" viewBox="0 0 46 43" xmlns="http://www.w3.org/2000/svg" xmlns:xlink="http://www.w3.org/1999/xlink"><defs><path d="M423.045 1137.964s-1.158.038-1.302 0h-40.412s-1.38-1.308-1.38-2.189c0-.878 1.38-2.974 1.38-2.974l18-14.483s1.095-1.037 2.857-1.29c1.762-.253 2.857 1.29 2.857 1.29l18 14.483s1.141 1.732 1.141 2.726c0 .998-1.14 2.437-1.14 2.437zm-18.938-16.072c-.974-1.218-3.028-1.128-3.843 0l-15.343 12.534c.092.19.173.394.215.605h35.054l-16.083-13.139zm-22.422 34.137h3.502v-13.501c0-.203.042-.396.116-.576-.636-.173-1.116-.731-1.116-1.424a1.5 1.5 0 0 1 1.5-1.499h7a1.5 1.5 0 0 1 1.5 1.499c0 .692-.48 1.251-1.118 1.424.075.18.117.373.117.576v13.501h5.001v-13.501c0-.203.042-.396.116-.576-.636-.173-1.117-.731-1.117-1.424a1.5 1.5 0 0 1 1.5-1.499h7a1.5 1.5 0 0 1 1.5 1.499c0 .692-.482 1.251-1.118 1.424.075.18.117.373.117.576v13.501h5v-13.501c0-.203.045-.396.12-.576-.639-.173-1.12-.731-1.12-1.424a1.5 1.5 0 0 1 1.502-1.499h6.998a1.5 1.5 0 0 1 1.502 1.499c0 .692-.478 1.251-1.117 1.424.075.18.116.373.116.576v13.501h3.5a1.5 1.5 0 0 1 0 3.001h-41.002a1.5 1.5 0 0 1 .001-3.001zm32.501-13.501v13.501h2v-13.501c0-.176.042-.34.1-.498h-2.198c.057.159.098.323.098.498zm-12.999 0v13.501h2v-13.501c0-.176.042-.34.098-.498h-2.197c.057.159.1.323.1.498zm-13.002 13.501h2v-13.501c0-.176.044-.34.102-.498h-2.2c.056.158.098.322.098.498v13.501z" id="a"/></defs><use fill="#10AEFF" xlink:href="#a" transform="translate(-379 -1117)" fill-rule="evenodd"/></svg>