<svg width="22" height="19" viewBox="0 0 22 19" xmlns="http://www.w3.org/2000/svg" xmlns:xlink="http://www.w3.org/1999/xlink"><defs><path d="M211.967 1235.035c-.108.366-.52.582-.92.484l-.482-.118c-.4-.098-.637-.474-.53-.84.108-.366.52-.583.92-.484l.482.118c.4.098.637.475.53.84zm-1.572-4.874a.807.807 0 0 1-1.044-1.23l.41-.349a.807.807 0 0 1 1.044 1.23l-.41.35zm-1.37 4.894a5.286 5.286 0 0 0-1.309-.766 2.93 2.93 0 0 0 .284-1.245 3 3 0 0 0-2.999-3 2.99 2.99 0 0 0-2.099.86 6.397 6.397 0 0 0-1.306-.798 4.483 4.483 0 0 1 3.405-1.563 4.5 4.5 0 0 1 4.023 6.512zm-3.608-7.06a.749.749 0 0 1-.688-.807l.041-.499a.752.752 0 0 1 1.496.122l-.041.5a.75.75 0 0 1-.808.684zm-3.262 14.55h2.846v-.052c.163.027.329.051.5.051a3 3 0 0 0 0-6c-1.091 0-2.037.59-2.561 1.462a.848.848 0 0 1-.833.994.848.848 0 0 1-.838-.957h-.007a4.49 4.49 0 0 1 .012-.032.854.854 0 0 1 .152-.368 4.53 4.53 0 0 1 1.523-1.804c-.32-2.15-2.078-3.795-4.199-3.795-2.346 0-4.25 2.014-4.25 4.5 0 .347.042.686.113 1.011-.038 0-.073-.011-.113-.011a2.5 2.5 0 1 0 0 5c.177 0 .348-.022.514-.057h2.639l-.043.058h4.545zm2.812 1.466a4.5 4.5 0 1 0-.704-8.795c-.483-2.658-2.785-4.672-5.553-4.672-3.117 0-5.644 2.557-5.644 5.711 0 .02.003.037.003.057a3.997 3.997 0 0 0 1.095 7.713c.03.003.056.018.086.018h10.5a.753.753 0 0 0 .217-.032zm-4.488-15.207l-.322-.382a.75.75 0 1 1 1.143-.97l.323.38a.751.751 0 1 1-1.143.972z" id="a"/></defs><use fill="#F76260" xlink:href="#a" transform="translate(-190 -1226)" fill-rule="evenodd"/></svg>