<svg width="43" height="46" viewBox="0 0 43 46" xmlns="http://www.w3.org/2000/svg" xmlns:xlink="http://www.w3.org/1999/xlink"><defs><path d="M507.196 388.008l.081-1.625a2 2 0 0 0-1.896-2.099l-3.744-.187.591-5.789-.159-.017a4.998 4.998 0 0 0-4.833-6.283 4.998 4.998 0 0 0-4.976 5.482 1.618 1.618 0 1 0 2.797.142l.179-.626a2 2 0 0 1 4 0c0 .096-.018.185-.03.278l.033.003-.001 1.673-.509 4.992-4.335-.217a2 2 0 0 0-2.099 1.896l-.099 1.997c-.007.13 0 .256.016.38h-1.977a3 3 0 0 0-2.998 3v22.998a3 3 0 0 0 2.998 3.001h36a2.999 2.999 0 0 0 3-3.001v-22.998a3 3 0 0 0-3-3h-.509l1.399-5.317c.463-1.759-.561-3.562-2.287-4.033l-9.366-2.556c-1.723-.472-3.496.57-3.959 2.329l-2.519 9.577h-1.798zm-11.99 0a1.003 1.003 0 0 1 1.036-1.177l6.989.35c.476.026.857.377.936.827h-8.961zm27.535 0l1.449-5.442a1.165 1.165 0 0 0-.818-1.424l-7.807-2.105a1.156 1.156 0 0 0-1.416.821l-2.169 8.15h10.761zm3.494 4.998a1.998 1.998 0 0 0-2-1.998h-32c-1.105 0-2 .893-2 1.998v19a2 2 0 0 0 2 2h32a2 2 0 0 0 2-2v-19zm-16.442 17.531v-3.153h-3.149v3.153h3.149zm-.071-6.046c.161-.337.573-.782 1.239-1.334 1.287-1.069 2.125-1.914 2.52-2.535a3.65 3.65 0 0 0 .588-1.974c0-1.257-.534-2.358-1.603-3.305-1.072-.946-2.511-1.418-4.32-1.418-1.72 0-3.108.466-4.168 1.403-1.057.935-1.627 2.069-1.708 3.409l2.893.358c.2-.935.57-1.63 1.11-2.087.538-.457 1.207-.684 2.006-.684.83 0 1.49.218 1.979.657.49.436.734.961.734 1.574 0 .442-.137.848-.415 1.212-.179.233-.728.723-1.648 1.469-.919.75-1.532 1.421-1.839 2.021-.308.597-.46 1.358-.46 2.287 0 .089.003.34.012.752h2.86c-.013-.867.059-1.467.22-1.805z" id="a"/></defs><use fill="#10AEFF" xlink:href="#a" transform="translate(-487 -372)" fill-rule="evenodd"/></svg>