<svg width="42" height="41" viewBox="0 0 42 41" xmlns="http://www.w3.org/2000/svg" xmlns:xlink="http://www.w3.org/1999/xlink"><defs><path d="M219 1304.944h-36c-1.656 0-3-1.344-3-3v-34c0-1.656 1.344-3 3-3h36c1.656 0 3 1.344 3 3v34c0 1.656-1.344 3-3 3zm0-13.274v-22.724c0-.552-.45-1-1-1h-34a1 1 0 0 0-1 1v26.596a12.195 12.195 0 0 1 5.182-4.538 6.972 6.972 0 0 1-2.18-5.058 7 7 0 1 1 13.998 0 6.954 6.954 0 0 1-2.184 5.058c.17.078.34.16.506.246a12.507 12.507 0 0 1 5.652-4.448 6.987 6.987 0 0 1-1.972-4.86 7 7 0 1 1 14 0c0 2.046-.89 3.87-2.29 5.15a12.586 12.586 0 0 1 5.288 4.578zm-1 10.276h-13.01c-.138-3.667-1.796-6.923-4.333-9.114 2.128-3.078 5.593-3.888 7.843-3.888 5.246 0 9.5 4.254 9.5 9.5 0 .512-.054 1.012-.132 1.5H218v2.002zm-34 0h18a9 9 0 0 0-18 0zm9-20.002a4 4 0 1 0 .004 8 4 4 0 0 0-.004-8zm16-4c-2.21 0-4 1.79-4 4a3.999 3.999 0 1 0 8 0c0-2.208-1.792-4-4-4z" id="a"/></defs><use fill="#10AEFF" xlink:href="#a" transform="translate(-180 -1264)" fill-rule="evenodd"/></svg>