<svg width="23" height="21" viewBox="0 0 23 21" xmlns="http://www.w3.org/2000/svg" xmlns:xlink="http://www.w3.org/1999/xlink"><defs><path d="M159.43 1160.211h-.951a1.005 1.005 0 0 0-.412-.388c-.362-3.759-3.207-6.746-6.788-7.076-.983.52-1.789 1.383-1.661 2.465.114.967.907 1.479 1.5 1.5 1.51.05 1.228-1.602 0-1 1.58-1.515 2.667.409 2 1.5-1.028 1.677-3.565 1.569-5.001 0-.695-.76-.818-2.305-.393-3.884-2.328 1.03-4.055 3.264-4.491 5.96a.996.996 0 0 0-.615.923h-.812a1.977 1.977 0 0 0 0 3h.451c.172.298.493.5.861.5l.024-.002c.186 3.87 1.691 6.497 7.476 6.497 5.739 0 7.219-2.455 7.46-6.11a.998.998 0 0 0 .54-.884h.81a1.977 1.977 0 0 0 .001-3.001zm.002-1.428c-.82-4.317-4.45-7.572-8.814-7.572s-7.993 3.254-8.814 7.571a2.74 2.74 0 0 0-2.187 2.68v.5c0 1.284.885 2.353 2.078 2.652.372 4.226 2.308 7.098 8.923 7.098 6.247 0 8.458-2.87 8.904-7.093a2.737 2.737 0 0 0 2.096-2.657v-.5a2.74 2.74 0 0 0-2.186-2.68zm-5.064 5.929a1.25 1.25 0 1 1 .002-2.502 1.25 1.25 0 0 1-.002 2.502zm-7.5 0a1.25 1.25 0 1 1 .002-2.502 1.25 1.25 0 0 1-.002 2.502z" id="a"/></defs><use fill="#F76260" xlink:href="#a" transform="translate(-139 -1151)" fill-rule="evenodd"/></svg>