<svg width="22" height="23" viewBox="0 0 22 23" xmlns="http://www.w3.org/2000/svg"><path d="M3.113 17.689l-2.398-.746c-1.207-.375-.68-2.025.073-2.438l12.666-6.942V2.074H11.39V2.03a.786.786 0 0 1-.516-.74c0-.343.216-.634.516-.742V.502h.646c2.352.647 1.445 0 .387 0h-.387 4.775a.78.78 0 0 1 .774.786.78.78 0 0 1-.774.786h-1.916.109v4.64l1.683-.922a1.537 1.537 0 0 1 2.099.636l2.382 5.37c.442.878.305 1.513.04 1.656l-.457.27.227.437c.4.768.11 1.718-.646 2.124L8.543 22.61a1.538 1.538 0 0 1-2.093-.656l-.283-.544-1.083.435a.513.513 0 0 1-.67-.294l-1.332-3.41a.531.531 0 0 1 .031-.452zm2.569 2.789l-1.16-2.23a1.587 1.587 0 0 1-.02-.04.53.53 0 0 0-.08.522l.571 1.46c.105.27.405.402.67.295l.019-.007zm.96-1.691l1.476.46c1.392.448 1.856.595 3.25-.111.851-.388 5.7-3.236 8.258-4.747l.053.092a.543.543 0 0 1-.208.682l-10.82 5.894c-.679.405-.736.148-.986-.307L6.64 18.787zm11.945-5.6c-1.79.9-6.344 3.541-9.028 4.864-1.415-.418-6.373-1.983-6.91-2.15-.363-.113-.39-.321.524-.805l13.17-6.991c1.056-.57 1.198-.004 1.48.46 0 0 .896 1.615 1.37 2.618.473 1.004.605 1.396-.606 2.005z" fill="#F2A049" fill-rule="evenodd"/></svg>