<svg width="40" height="41" viewBox="0 0 40 41" xmlns="http://www.w3.org/2000/svg"><path d="M19.003 14.901v2.995h-18c-1.225.67-1.225 2.508-.047 3.001.918.026 10.045 0 10.045 0v2H1.003c-.332 0-1 .627-1 1C-.114 29 2.81 39.811 18.228 40.808c.26-.194.824-.677.824-1.233 0-.517-.354-1.409-1.049-1.678-3.88 0-8.002-2-8.002-2l1-3s5.295 2 10.002 2c4.674 0 9-2 9-2l1 3s-4.156 2-7.998 2c-.647.048-1.002 1.438-1.002 2 0 .493.434.791.682.92 14.763-.932 17.435-11.546 17.32-16.92 0-.229-.609-1-1.002-1h-9v-2c1.113 0 7.201-.036 9.05 0 1.196-.426 1.181-2.442-.05-3h-17V14.9h17.175c.625-1.308-.545-2.699-1-3-1.754-.046-13.889 0-14.998 0-.467 0-1.002-.598-1.002-1 0-2.269-.094-4.727-.094-6.289 0-.698.148-.856.951-.856 5.252 0 10.477 4.147 10.477 5.715.215 0 .224.952 1.904.952 1.586 0 1.676-.952 1.906-.952C33.862 3.282 28.65.9 20.736.9c-7.866 0-14.22 2.45-17.7 8.57.361 0 .062.952 1.904.952 1.84 0 1.511-.952 1.904-.952 0-1.105 5.348-5.715 11.43-5.715.877 0 .953.347.953.875 0 1.774-.049 4.652-.049 6.27 0 .406-.508 1-1 1-.695 0-15.08-.026-16 0-.56.534-1.594 1.815-1 3.001h17.825zm14.272 17.995s3.717-3.857 3.717-6.986c-.436.01-5.982 0-5.982 0l2.265 6.986zM4.003 25.898c0 4.326 4.002 7.998 4.002 7.998l1.996-7.998s-5.699-.015-5.998 0zm22.998-4.048a.95.95 0 0 0-.95-.952H14.953a.952.952 0 0 0-.95.952v.096c0 .525.425.952.95.952H26.05a.95.95 0 0 0 .951-.952v-.096zm-.005 4.06H13.994l-1 1.997h15.002l-1-1.997zm1.005 3.988h-16c-.074 1.403 6.176 2.033 9.002 2.001 2.717-.033 6.951-.562 8-2h-1.002z" fill="#10AEFF" fill-rule="evenodd"/></svg>