<svg width="21" height="23" viewBox="0 0 21 23" xmlns="http://www.w3.org/2000/svg"><path d="M17 11.5a4 4 0 0 0-3.333 6.208h-.01l3.359 4.534 3.036-4.159A4 4 0 0 0 17 11.5zm2.063 5.419l-2.031 2.816L15 16.992a2.48 2.48 0 0 1-.499-1.492 2.5 2.5 0 1 1 4.556 1.419h.006zm-5.143-6.464c-.079-.054-.15-.13-.246-.152-.167-.075-.348-.116-.52-.18A5.25 5.25 0 1 0 5 5.75c0 1.685.798 3.181 2.031 4.142C2.971 11.069 0 14.81 0 19.25c0 .598.062 1.181.166 1.75.014.422.35.758.764.758a.75.75 0 0 0 .75-.75 9.166 9.166 0 0 1-.18-1.758 8.25 8.25 0 0 1 11.364-7.637c.386.189.454.22.693.22.419 0 .7-.314.7-.74a.77.77 0 0 0-.281-.592c-.008-.026-.033-.035-.056-.046zm2.992 5.869a.912.912 0 1 0 0-1.824.912.912 0 0 0 0 1.824zM6.5 5.75a3.75 3.75 0 1 1 7.5 0 3.75 3.75 0 0 1-7.5 0z" fill="#F76260" fill-rule="evenodd"/></svg>