<svg width="20" height="22" viewBox="0 0 20 22" xmlns="http://www.w3.org/2000/svg"><path d="M14.75 21.08H2.5a2.5 2.5 0 0 1-2.5-2.5v-17A1.5 1.5 0 0 1 1.5.08H15a1.5 1.5 0 0 1 1.5 1.5v8.5h2a1.5 1.5 0 0 1 1.5 1.5v7a2.5 2.5 0 0 1-2.5 2.5h-2.75zm2.225-1.5a1.254 1.254 0 0 0-.475-.745V11.58H18a.5.5 0 0 1 .5.5v6a1.5 1.5 0 0 1-1.525 1.5zM1.5 12.935v5.145a1.5 1.5 0 0 0 1.5 1.5h1c.176 0 .343-.037.5-.092v.092H15V2.08a.5.5 0 0 0-.5-.5H2a.5.5 0 0 0-.5.5v10.855zM4 6.58h6.5a.5.5 0 0 0 .5-.5v-.5a.5.5 0 0 0-.5-.5H4a.5.5 0 0 0-.5.5v.5a.5.5 0 0 0 .5.5zm8 3H4a.5.5 0 0 0-.5.5v.5a.5.5 0 0 0 .5.5h8a.5.5 0 0 0 .5-.5v-.5a.5.5 0 0 0-.5-.5zm0 4.5H4a.5.5 0 0 0-.5.5v.5a.5.5 0 0 0 .5.5h8a.5.5 0 0 0 .5-.5v-.5a.5.5 0 0 0-.5-.5z" fill="#F76260" fill-rule="evenodd"/></svg>