<svg width="23" height="19" viewBox="0 0 23 19" xmlns="http://www.w3.org/2000/svg" xmlns:xlink="http://www.w3.org/1999/xlink"><defs><path d="M306.119 1233.27a3.501 3.501 0 1 1 0-7.002 3.501 3.501 0 0 1 0 7.003zm0-5.5a2 2 0 1 0-.001 4 2 2 0 0 0 .001-4zm-9.307 15.499h-5.195s1.681-8.422 6.502-8.5c1.364-.021 2.48.651 3.373 1.628.481-.329.923-.582 1.28-.762-1.255-1.407-2.796-2.396-4.653-2.364-5.178.084-7.584 7.785-8.28 10.535-.15.599.685.964 1.279.964h6.25a.75.75 0 1 0 0-1.501h-.556zm14.306 1.5h-11s-1.055-.095-.774-.976c.724-2.281 2.446-7.958 6.275-8.024 3.86-.064 5.417 5.685 5.999 8 .144.574-.5 1-.5 1zm-5.499-7.5c-2.614 0-4.001 6-4.001 6h8s-1.29-6-3.999-6z" id="a"/></defs><use fill="#F76260" xlink:href="#a" transform="translate(-289 -1226)" fill-rule="evenodd"/></svg>