<?xml version="1.0" standalone="no"?><!DOCTYPE svg PUBLIC "-//W3C//DTD SVG 1.1//EN" "http://www.w3.org/Graphics/SVG/1.1/DTD/svg11.dtd"><svg t="1486793328358" class="icon" style="" viewBox="0 0 1024 1024" version="1.1" xmlns="http://www.w3.org/2000/svg" p-id="2258" xmlns:xlink="http://www.w3.org/1999/xlink" width="200" height="200"><defs><style type="text/css"></style></defs><path d="M932.206364 829.509401l-3.865028 0c-24.676006-40.932248-29.492708-79.71146-14.285355-114.838492 12.843516-29.668717 35.804461-46.334281 35.951817-46.442752 7.797593-5.499248 10.780531-15.592117 7.197936-24.436552-3.582595-8.841366-12.765745-14.034645-22.212908-12.546757-1.174756 0.184195-14.450107 2.337231-35.897581 7.705496-27.454282-59.951417-31.835056-120.839159-12.980639-181.054589 14.582113-46.576805 38.340213-75.41562 38.540781-75.656097 5.098111-6.048763 6.269797-14.487969 3.007497-21.697161-3.2623-7.208169-10.375302-11.897981-18.284435-12.060687-1.314948-0.025583-32.613792-0.587378-71.116711 5.421476-41.001833 6.399757-74.118068 17.605983-98.912777 33.378202-2.505054-4.242627-5.069459-8.488325-7.722892-12.736069-82.815147-132.60718-211.481575-208.058616-304.836777-248.003374-100.68105-43.078121-181.13236-54.989405-184.509271-55.476499-9.012258-1.293459-17.761526 3.488451-21.561062 11.744485-3.801583 8.253988-1.711991 18.036795 5.118578 24.031323 0.769526 0.673335 77.426417 68.86953 126.019135 192.957687 6.451946 16.477276 12.091386 33.213449 16.995069 50.158377-88.49859-66.74924-186.305173-67.665099-191.173041-67.665099-8.115841 0-15.45397 4.799306-18.747993 12.218276-3.294023 7.417947-1.89107 16.099676 3.554966 22.12081 15.280008 16.895809 50.076512 67.946508 72.418356 140.232858 16.362666 52.93563 24.085558 109.444645 22.954805 167.952176-0.078795 4.097318-0.217964 8.209986-0.384763 12.328793-90.205465-42.514279-165.139108-54.626131-168.467923-55.148018-8.893554-1.404999-17.665335 3.168156-21.623483 11.255345-3.960195 8.090259-2.185782 17.605983 4.374634 23.775496 0.832971 0.783853 79.19162 76.380598 108.509343 212.480322l-89.807399 0c-11.338233 0-21.352307 9.607822-21.352307 20.946055l0 86.227874c0 11.338233 10.015098 19.716041 21.352307 19.716041l841.747119 0c11.338233 0 20.013823-8.378831 20.013823-19.716041l0-86.227874C952.219163 839.117223 943.543573 829.509401 932.206364 829.509401zM820.325227 707.560978c22.922059-9.203616 44.112684-16.19996 62.11571-21.532409-1.812275 3.325745-3.552919 6.649444-5.187139 10.282181-13.657045 30.340005-22.094204 76.917834 4.64888 133.199675l-78.94091 0C809.702286 804.950052 818.35127 761.166873 820.325227 707.560978zM869.989347 391.304104c-7.606235 13.94664-15.807011 31.651884-22.48306 52.506864-15.294334 47.774073-25.185612 121.667014 11.676947 206.448956-11.997242 3.777023-25.051559 8.227382-38.888705 13.440104-2.532683-67.058278-17.09433-151.937434-61.256132-240.244666C788.951683 403.473261 834.899154 394.672828 869.989347 391.304104zM298.501488 125.4512c30.296003 8.151657 69.416999 20.564361 112.133893 38.84368 87.950098 37.630039 208.988802 108.428501 286.164508 232.001935 72.722278 116.448152 85.051071 231.278457 82.584903 307.279409-1.922792 59.279105-12.870122 105.468077-19.035542 125.934201L362.883821 829.510424c44.366464-103.353926 67.909669-203.241914 70.009494-300.532751 1.850138-85.674265-12.817933-168.45769-43.590797-246.25352C361.694739 212.938764 326.326207 160.250774 298.501488 125.4512zM221.779106 328.832284c43.22957 8.794293 110.101607 31.719422 162.744571 91.338265 5.698792 35.786041 8.170077 72.136947 7.28901 109.273752-2.294252 96.653317-27.139104 196.712197-73.852008 300.066123L263.433808 829.510424c22.440082-70.608128 34.395368-139.110291 35.506678-205.76641 1.052982-63.157435-7.534604-124.124995-25.524327-181.413769C257.817903 392.657938 237.910505 354.654392 221.779106 328.832284zM254.088976 681.154561c-5.359055 47.390333-16.281825 95.945189-32.634258 145.125285-17.476023-85.808318-52.624545-149.647275-80.680531-189.663664C171.442674 645.665279 211.504088 659.837046 254.088976 681.154561zM910.263609 915.467121l-800.225447 0 0-45.025473 800.225447 0L910.263609 915.467121z" p-id="2259"></path></svg>