<svg width="21" height="21" viewBox="0 0 21 21" xmlns="http://www.w3.org/2000/svg" xmlns:xlink="http://www.w3.org/1999/xlink"><defs><path d="M211.07 1752.226c.387.237.724.595.925.989a7.553 7.553 0 0 0-.925-.99zm-17.88-2.573v-.215c.007-3.205 2.733-5.5 5.918-5.499h5.131c3.19-.003 5.957 2.414 5.943 5.623l-.002.091h1.009a.5.5 0 0 1 .5.5v.768a.5.5 0 0 1-.5.5h-1.046l-.002.112a7.82 7.82 0 0 0-.183-.112h-.711a.5.5 0 0 1-.5-.5v-.076a6.316 6.316 0 0 0-.059-.021v-2.386c0-.966-2.274-2.999-3.36-2.999h-7.28c-1.19 0-3.358 1.914-3.358 3v5h-1c-.302 0-1 .698-1 1v5c0 .364.664 1 1 1v1a.5.5 0 0 0 .5.5h.5a.5.5 0 0 0 .5-.5v-1h4.311a8.04 8.04 0 0 0 .595 1.5h-3.407v1a.5.5 0 0 1-.5.5h-3.5a.5.5 0 0 1-.5-.5v-1.354c-.564-.389-1-1.037-1-1.646v-6c0-.887 1.114-2 2-2v-.518h-1a.5.5 0 0 1-.5-.5v-.768a.5.5 0 0 1 .5-.5h1zm7.88 3.786h-4.382c-.324 0-.706.074-.706-.25 0-.326.382-.75.706-.75h5.013a4.23 4.23 0 0 0-.631 1zm-5.382 2.5h1a.5.5 0 0 1 .5.499v1a.5.5 0 0 1-.5.5h-1a.499.499 0 0 1-.498-.5v-1c0-.276.222-.499.498-.499zm14.968 4.712a5.428 5.428 0 0 1-.459.548c.042.024.085.047.121.083l1.041 1.08a.498.498 0 0 1-.012.706l-.36.348a.501.501 0 0 1-.707-.012l-1.042-1.08a.485.485 0 0 1-.117-.23 5.5 5.5 0 0 1-6.15-.185 5.507 5.507 0 1 1 7.685-1.258zm-2.132-6.454a4.002 4.002 0 0 0-5.583.915 3.997 3.997 0 0 0 .916 5.58 4.002 4.002 0 0 0 5.583-.914 3.997 3.997 0 0 0-.916-5.58z" id="a"/></defs><use fill="#F2A049" xlink:href="#a" transform="translate(-191 -1743)" fill-rule="evenodd"/></svg>