<svg width="22" height="22" viewBox="0 0 22 22" xmlns="http://www.w3.org/2000/svg" xmlns:xlink="http://www.w3.org/1999/xlink"><defs><path d="M209.089 1983.276l2.037 1.997c.416.41.418 1.073.001 1.483a1.082 1.082 0 0 1-1.509.001l-2.042-2.001a10.613 10.613 0 0 1-6.636 2.307c-5.799 0-10.501-4.589-10.501-10.248 0-5.66 4.702-10.247 10.501-10.247 5.8 0 10.502 4.587 10.502 10.247 0 2.45-.883 4.698-2.353 6.461zm-8.149-15.204c-4.97 0-9 3.919-9 8.751 0 4.834 4.03 8.751 9 8.751s8.999-3.917 8.999-8.751c0-4.832-4.029-8.75-8.999-8.75zm.498 5.639v.988h-2.107v.946h2.107v1.031h-2.75v.989h2.75v2.664h1.16v-2.664h2.234c0 .316-.015.515-.043.601-.028.373-.243.545-.645.516h-.945c.087.316.156.63.215.946h1.075c.886 0 1.332-.43 1.332-1.29.028-.316.07-.902.128-1.762h-3.352v-1.031h2.75v-.945h-2.75v-.989h3.352v-.988h-3.352v-1.032h-1.16v1.032h-2.493v.988h2.494zm-3.825 6.746c.602.773 1.575 1.16 2.922 1.16.659.028 1.403.056 2.234.087h3.18c.056-.344.171-.703.343-1.075-2.55.058-4.383.072-5.5.043-1.231 0-2.119-.415-2.664-1.246v-4.125h-2.233v1.117h1.117v3.137a8.13 8.13 0 0 0-.602.558 9.09 9.09 0 0 1-.645.602l.56 1.16c.285-.43.715-.901 1.288-1.418zm.988-6.66a22.67 22.67 0 0 0-.3-.43 45.847 45.847 0 0 0-1.117-1.59l-.946.515c.459.66.902 1.362 1.332 2.107l1.031-.602z" id="a"/></defs><use fill="#F2A049" xlink:href="#a" transform="translate(-190 -1966)" fill-rule="evenodd"/></svg>