<svg width="39" height="43" viewBox="0 0 39 43" xmlns="http://www.w3.org/2000/svg" xmlns:xlink="http://www.w3.org/1999/xlink"><defs><path d="M302.118 979.97l.594-.65a2 2 0 1 0-2.953 0l.594.65h1.765zm15.119 30h-32c-1.657 0-3-1.341-3-2.997V980.97a3.001 3.001 0 0 1 3-3.001h2.998v-7.998c0-1.104.896-2.001 2-2.001h22.001a2 2 0 0 1 2 2v7.999h3.001a3 3 0 0 1 3 3v26.003a2.997 2.997 0 0 1-3 2.997zm-19-11h6.001a2 2 0 0 1 1.998 2v6.003h10.001a1 1 0 0 0 1-1.001V981.97a1 1 0 0 0-1-1h-4.084a1.51 1.51 0 0 0-.917-.914v-8.085a1 1 0 0 0-1-1h-18a1 1 0 0 0-1 1v8.085a1.493 1.493 0 0 0-.914.914h-4.084a1 1 0 0 0-1 1v24a1 1 0 0 0 1 1.002h9.999v-6.002a2 2 0 0 1 2-2zm1 3v5.003h4.001v-5.002h-4.001zm11.999-6h-20a1 1 0 0 1-1-.997v-1c0-.552.448-1.003 1-1.003h20c.553 0 1 .45 1 1.003v1a1 1 0 0 1-1 .998zm0-6.998h-20a1 1 0 0 1-1-1v-1a1 1 0 0 1 1-1h20a1 1 0 0 1 1 1v1a1 1 0 0 1-1 1zm-7.998-7.001h-4.001a1 1 0 0 1-.955-1.302 3.998 3.998 0 0 1 2.955-6.696 3.996 3.996 0 0 1 3.998 3.997 3.983 3.983 0 0 1-1.045 2.699 1.002 1.002 0 0 1-.952 1.302z" id="a"/></defs><use fill="#10AEFF" xlink:href="#a" transform="translate(-282 -967)" fill-rule="evenodd"/></svg>