<svg width="17" height="22" viewBox="0 0 17 22" xmlns="http://www.w3.org/2000/svg" xmlns:xlink="http://www.w3.org/1999/xlink"><defs><path d="M250.618 1393.771c-3.767 0-8-2.667-8-7.815 0-4.586 5.663-9.246 8-13.186 2.439 3.842 8 7.884 8 13.186 0 5.233-4.183 7.815-8 7.815zm5.5-11a2.642 2.642 0 0 0-.985-1.542c-1.576-2.289-3.653-4.385-4.516-5.958-1.52 2.835-6.5 6.937-6.5 10.999 0 3.453 4.01 6.047 6.5 6.047 2.807 0 6.5-2.616 6.5-6.047 0-1.14-.393-2.284-.983-3.404-.007-.031-.008-.064-.016-.095zm-3.251 7.5a.75.75 0 1 1 .001-1.5.75.75 0 0 1-.001 1.5zm-7.249-4.5c0-1.2.424-2.302 1.129-3.163l.871 1.163.063.106a3.474 3.474 0 0 0-.563 1.894 3.5 3.5 0 0 0 3.5 3.5c.042 0 .082-.011.124-.012.109.394.288.961.527 1.466a5 5 0 0 1-.651.046 5 5 0 0 1-5-5z" id="a"/></defs><use fill="#F76260" xlink:href="#a" transform="translate(-242 -1372)" fill-rule="evenodd"/></svg>