<svg width="18" height="22" viewBox="0 0 18 22" xmlns="http://www.w3.org/2000/svg" xmlns:xlink="http://www.w3.org/1999/xlink"><defs><path d="M196.272 1827.933l.382-1.872h1.38l-.378 1.872h.66l.382-1.872h1.352v-.654h-1.22l.33-1.595h.891v-.656h-.76l.382-1.885h-.662l-.383 1.885h-1.385l.382-1.885h-.659l-.382 1.885h-1.332v.656h1.199l-.323 1.595h-.875v.654h.742l-.382 1.872h.659zm-4.082 6.006v3.5a1.5 1.5 0 0 0 1.5 1.5h.999a1.5 1.5 0 0 0 1.5-1.5v-1h9v1a1.5 1.5 0 0 0 1.5 1.5h1a1.5 1.5 0 0 0 1.5-1.5v-18a1.5 1.5 0 0 0-1.5-1.5h-14a1.5 1.5 0 0 0-1.5 1.5v14.5h.001zm1.499-1.5h.001v5h.999v-2.5h12v2.5h1v-17.5a.5.5 0 0 0-.5-.5h-13a.5.5 0 0 0-.5.5v12.5zm3.422-8.628h1.384l-.328 1.596h-1.381l.325-1.595zm8.328.127h-3a.749.749 0 1 1 0-1.499h3a.75.75 0 0 1 0 1.499zm0 4.001h-3.5a.75.75 0 0 1 0-1.5h3.5a.75.75 0 0 1 0 1.5zm0 3.999h-9.5a.749.749 0 1 1 0-1.499h9.5a.75.75 0 0 1 0 1.499z" id="a"/></defs><use fill="#F2A049" xlink:href="#a" transform="translate(-192 -1817)" fill-rule="evenodd"/></svg>