<svg width="22" height="22" viewBox="0 0 22 22" xmlns="http://www.w3.org/2000/svg" xmlns:xlink="http://www.w3.org/1999/xlink"><defs><path d="M264.255 1310.948h-.464l-1.77-.018-.001.55v6.516c0 .83-.668 1.504-1.49 1.504h-12.908c-.823 0-1.49-.674-1.49-1.504v-7.066l-1.469.018h-.964s-.645-.37-.695-1.121a1.575 1.575 0 0 1 .695-1.453l8.959-8.776c.475-.497.956-.697 1.419-.697.462 0 .993.25 1.39.652l.803.805-1.055 1.218-.185-.187c-.484-.61-1.503-.565-1.907 0l-7.644 7.741c.058.108.107.223.132.347h2.011v8.519h3.972v-5.012a.998.998 0 0 1 .993-1.002h2.98c.548 0 .992.449.992 1.002v5.012h3.972v-8.52h2.484l-1.63-1.65 1.055-1.42 1.992 1.954c.357.214.568.868.568 1.367 0 .498-.233.926-.568 1.127l-.177.094zm-6.853-1.547h-.041l1.68-4.436h-3.972l4.01-5.94h.011a.549.549 0 0 1 .546-.525.55.55 0 0 1 .546.526h.042l-.05.116a.551.551 0 0 1-.103.243l-1.528 3.575h3.973l-3.975 6.385a.574.574 0 0 1-.568.633.574.574 0 0 1-.57-.577zm-1.836 3.583h-2.98v5.012h2.98v-5.012z" id="a"/></defs><use fill="#F76260" xlink:href="#a" transform="translate(-243 -1298)" fill-rule="evenodd"/></svg>