<svg width="23" height="22" viewBox="0 0 23 22" xmlns="http://www.w3.org/2000/svg" xmlns:xlink="http://www.w3.org/1999/xlink"><defs><path d="M160.118 1542.15h-3c-.275 0-.529-.081-.75-.21a1.486 1.486 0 0 1-.75.21h-10c-.274 0-.526-.08-.749-.21a1.48 1.48 0 0 1-.75.21h-3.001a1.5 1.5 0 0 1-1.5-1.5v-10.001a1.5 1.5 0 0 1 1.5-1.5h3v-3.5a1.5 1.5 0 0 1 1.5-1.5h1.5v1.5h-1a.5.5 0 0 0-.5.5v14a.5.5 0 0 0 .5.5h9a.5.5 0 0 0 .5-.5v-14a.5.5 0 0 0-.5-.5h-1v-1.5h1.5a1.5 1.5 0 0 1 1.5 1.5v3.5h3a1.5 1.5 0 0 1 1.5 1.5v10a1.5 1.5 0 0 1-1.5 1.5zm-16-11.001a.5.5 0 0 0-.5-.5h-2a.5.5 0 0 0-.5.5v9a.5.5 0 0 0 .5.5h2a.5.5 0 0 0 .5-.5v-9zm7.5-6h1a.5.5 0 0 0 .5-.5v-1a.5.5 0 0 0-.5-.5h-1v-1a.5.5 0 0 0-.5-.5h-1a.5.5 0 0 0-.5.5v1h-1a.5.5 0 0 0-.5.5v1a.5.5 0 0 0 .5.5h1v1a.5.5 0 0 0 .5.5h1a.5.5 0 0 0 .5-.5v-1zm8.5 6a.5.5 0 0 0-.5-.5h-2a.5.5 0 0 0-.5.5v9a.5.5 0 0 0 .5.5h2a.5.5 0 0 0 .5-.5v-9zm-7 6h-5a1 1 0 0 1-1.001-1v-1.5a1 1 0 0 1 1.002-1h4.999a1 1 0 0 1 1 1v1.5a1 1 0 0 1-1 1zm0-5h-5a1 1 0 0 1-1.001-1v-1.5a1 1 0 0 1 1.002-1h4.999a1 1 0 0 1 1 1v1.5a1 1 0 0 1-1 1zm0 4v-1.5h-5l.001 1.5h4.999zm0-5v-1.5h-5l.001 1.5h4.999z" id="a"/></defs><use fill="#F76260" xlink:href="#a" transform="translate(-139 -1521)" fill-rule="evenodd"/></svg>