<svg width="45" height="42" viewBox="0 0 45 42" xmlns="http://www.w3.org/2000/svg" xmlns:xlink="http://www.w3.org/1999/xlink"><defs><path d="M509.812 1450.819c-1.174-.823-2.229-1.63-2.553-1.873-.907-.679-1.516-1.606-.779-2.499.76-.914 1.583-2.02 2.317-3.03l.008.053c.041-.01.078-.03.122-.033l10.856-.979c.283-.017.546.084.746.26l-3.466 6.004-7.356.666.009.06s.045.622.096 1.37zm1.322 1.419c.021.19.042.372.063.544.326 2.714-1.075.81-1.75 1.129 0 0-4.836-3.968-5.562-4.365-1.141-.627-1.209-2.141-.46-3.347 1.845-2.982 4.314-6.198 5.094-6.682 0 0 1.49-2.246 1.792.759l1.096-.091-2.66-5.87a1.996 1.996 0 0 1 .94-2.666l7.216-3.458a2.004 2.004 0 0 1 2.667.941l4.887 10.777-.308.54-.003.009-2.965 5.132-.081.141-1.6 2.771-1.842 3.197-6.524.539zm-19.19-15.855c-.507-1.14-1.053-2.404-1.465-3.518-.4-1.087-1.511-1.023-2.553-.576-.371.159-1.599.669-2.899 1.275.676.33 1.24.603 1.24.603l.054.021-3.102 6.702 3.469 6.007c.251-.086.472-.266.597-.52l4.577-9.891c.021-.039.018-.081.033-.123l.05.02zm-8.804-2.385a57.05 57.05 0 0 0-.505-.219c-2.514-1.075-.161-1.335-.105-2.078 0 0 5.858-2.203 6.562-2.634 1.114-.675 2.46.024 3.132 1.275 1.657 3.087 3.207 6.834 3.236 7.75 0 0 1.2 2.414-1.549 1.177l-.47.994 6.41.63a2.001 2.001 0 0 1 1.842 2.146l-.619 7.978a1.996 1.996 0 0 1-2.146 1.84l-11.775-1.152-1.296-2.243-5.021-8.696c0-.003-.003-.003-.003-.006l-.487-.846 2.794-5.916zm22.332-8.934l.043-.034c-.026-.033-.065-.054-.089-.09l-6.276-8.909a1.036 1.036 0 0 1-.149-.778h6.933l4.255 6.039.047-.039 1.14-.77c-.126 1.428-.298 2.746-.346 3.147-.134 1.126-.632 2.12-1.773 1.926-1.171-.201-2.541-.361-3.785-.492zm-3.477.26l-.627-.905-3.752 5.24a2.001 2.001 0 0 1-2.78.52l-6.601-4.523a1.997 1.997 0 0 1-.517-2.78l6.888-9.622h13.608l3.728 5.376c.153-.112.301-.221.441-.326 2.188-1.64 1.239.528 1.854.949 0 0-1.018 6.175-1 7.001.027 1.299-1.25 2.117-2.669 2.072-3.502-.107-7.523-.639-8.333-1.072 0 0-2.687-.167-.24-1.93zm-10.412-1.013l3.299 2.261a1.002 1.002 0 0 0 1.392-.26l3.281-4.512-3.619-5.219-4.613 6.338a1.001 1.001 0 0 0 .26 1.392zm6.042 19.419l-5.547-.586-2.711 5.741 7.795.827a1 1 0 0 0 1.075-.919l.308-3.989a.995.995 0 0 0-.92-1.074zm20.105-11.495a1 1 0 0 0-1.334-.472l-3.607 1.729a1 1 0 0 0-.472 1.332l2.266 5.099 6.333-.525-3.186-7.163z" id="a"/></defs><use fill="#10AEFF" xlink:href="#a" transform="translate(-480 -1413)" fill-rule="evenodd"/></svg>