<svg width="40" height="42" viewBox="0 0 40 42" xmlns="http://www.w3.org/2000/svg"><path d="M20 41.711C1.531 37.077 0 17.221 0 11.71c0-2.53 1.832-3.383 3-3.999 4.5-2.386 14-7 14-7s3-1.599 6 0c3.963 2.106 12.244 6.19 14 7 .023.01 3 1.621 3 3.998 0 5.762-.392 25.578-20 30.002zm0-39S4.941 10.562 3 11.708C3 21.755 7.393 34.394 20 38.71c13.211-4.155 17.182-17.376 17-27-2.379-1.147-17-9-17-9zm-1.055 23.627h-4.347v-2.59h4.347v-1.406h-4.347v-2.59h3.058l-3.644-7.394h3.61l2.343 4.992c.297.625.508 1.176.633 1.652.148-.515.359-1.066.632-1.652l2.391-4.992h3.61l-3.692 7.394h3.106v2.59h-4.407v1.406h4.407v2.59h-4.407v3.2h-3.293v-3.2z" fill="#10AEFF" fill-rule="evenodd"/></svg>