<svg width="21" height="23" viewBox="0 0 21 23" xmlns="http://www.w3.org/2000/svg"><path d="M19.742 12.13h-6a1 1 0 0 0-1 1v8a1 1 0 0 0 1 1h6a1 1 0 0 0 1-1v-8a1 1 0 0 0-1-1zm-.25 8.3a.55.55 0 0 1-.55.55h-4.4a.55.55 0 0 1-.551-.55v-6.6a.55.55 0 0 1 .55-.55h4.4a.55.55 0 0 1 .55.55v6.6zm-3.75-4.8h2a.5.5 0 0 0 0-1h-2a.5.5 0 1 0 0 1zm2 1h-2a.5.5 0 1 0 0 1h2a.5.5 0 0 0 0-1zm0 2h-2a.5.5 0 1 0 0 1h2a.5.5 0 0 0 0-1zM14.42 9.955c-.079-.054-.15-.13-.246-.152-.167-.075-.348-.116-.52-.18A5.25 5.25 0 1 0 5.5 5.25c0 1.685.798 3.181 2.031 4.142C3.471 10.569.5 14.31.5 18.75c0 .598.062 1.181.166 1.75.014.422.35.758.764.758a.75.75 0 0 0 .75-.75A9.166 9.166 0 0 1 2 18.75a8.25 8.25 0 0 1 11.364-7.637c.386.189.454.22.693.22.419 0 .7-.314.7-.74a.77.77 0 0 0-.281-.592c-.008-.026-.033-.035-.056-.046zM7 5.25a3.75 3.75 0 1 1 7.5 0 3.75 3.75 0 0 1-7.5 0z" fill="#10AEFF" fill-rule="evenodd"/></svg>