<svg width="18" height="21" viewBox="0 0 18 21" xmlns="http://www.w3.org/2000/svg" xmlns:xlink="http://www.w3.org/1999/xlink"><defs><path d="M107.195 1387.71c-.6.617-1.648 1.202-2.706 1.813.093.068.145.196.132.425v.688h-7.006v-.688c0-.204.145-.286.37-.303-1.123-.642-2.266-1.245-2.904-1.895a8.587 8.587 0 0 1-2.463-6.036c0-4.739 3.805-8.578 8.5-8.578s8.5 3.84 8.5 8.578a8.588 8.588 0 0 1-2.423 5.995zm-6.574 1.987c-1.053-1.09-3.497-2.224-4.48-3.208a6.907 6.907 0 0 1-2.03-4.897c0-3.839 3.137-6.954 7.007-6.954 3.87 0 7.007 3.115 7.007 6.954 0 1.893-.761 3.61-1.998 4.864-.985 1-3.451 2.127-4.512 3.229a.506.506 0 0 0 .003-.05v-8.532c1.063-.172 2-.968 2-.968a.5.5 0 1 0 0-1s-1.178 1-2.39 1c-1.285 0-2.611-1-2.611-1a.5.5 0 1 0 0 1s.938.708 2 .933v8.568c0 .02.002.04.004.06zm.326.409c.11.178.17.354.17.528 0-.174.06-.35.165-.526a.499.499 0 0 1-.335-.002zm2.671 2.03h-5.001a.5.5 0 1 1 0-1h5.001a.5.5 0 0 1 0 1zm-.5 1.498h-4a.499.499 0 1 1 0-.998h4a.5.5 0 1 1 0 .998z" id="a"/></defs><use fill="#F76260" xlink:href="#a" transform="translate(-92 -1373)" fill-rule="evenodd"/></svg>