<svg width="17" height="22" viewBox="0 0 17 22" xmlns="http://www.w3.org/2000/svg"><path d="M15.5.5h-14A1.5 1.5 0 0 0 0 2v18a1.5 1.5 0 0 0 1.5 1.5h14A1.5 1.5 0 0 0 17 20V2A1.5 1.5 0 0 0 15.5.5zm0 19a.5.5 0 0 1-.5.5H2a.5.5 0 0 1-.5-.5v-17A.5.5 0 0 1 2 2h13a.5.5 0 0 1 .5.5v17zM9.75 17h-2.5a.75.75 0 1 0 0 1.5h2.5a.75.75 0 1 0 0-1.5zM13.5 3h-10a1 1 0 0 0-1 1v11a1 1 0 0 0 1 1h10a1 1 0 0 0 1-1V4a1 1 0 0 0-1-1zm0 11.5a.5.5 0 0 1-.5.5H4a.5.5 0 0 1-.5-.5v-10A.5.5 0 0 1 4 4h9a.5.5 0 0 1 .5.5v10z" fill="#F2A049" fill-rule="evenodd"/></svg>