<svg width="20" height="22" viewBox="0 0 20 22" xmlns="http://www.w3.org/2000/svg" xmlns:xlink="http://www.w3.org/1999/xlink"><defs><path d="M408.688 1764.438h-16a1.5 1.5 0 0 1-1.5-1.499v-18a1.5 1.5 0 0 1 1.5-1.5h16a1.5 1.5 0 0 1 1.5 1.5v18c0 .829-.671 1.499-1.5 1.499zm0-18.999a.5.5 0 0 0-.5-.5h-15a.5.5 0 0 0-.5.5v17a.5.5 0 0 0 .5.5h15a.5.5 0 0 0 .5-.5v-17zm-2 5.5H394.69a1 1 0 0 1-1.002-1v-2.501a1 1 0 0 1 1.002-.999h11.998a1 1 0 0 1 1 .999v2.5a1 1 0 0 1-1 1zm0-3.001a.5.5 0 0 0-.5-.5H395.19a.5.5 0 0 0-.5.5v1.5a.5.5 0 0 0 .5.5h10.998a.5.5 0 0 0 .5-.5v-1.5zm-10 6.001h-1.498a.5.5 0 1 1 0-1h1.498a.5.5 0 1 1 0 1zm5 0h-1.5a.5.5 0 1 1 0-1h1.5a.5.5 0 1 1 0 1zm5 0h-1.5a.5.5 0 0 1 0-1h1.5a.5.5 0 1 1 0 1zm-10 2.999h-1.498a.5.5 0 1 1 0-.999h1.498a.499.499 0 1 1 0 .999zm5 0h-1.5a.5.5 0 1 1 0-.999h1.5a.499.499 0 1 1 0 .999zm5 0h-1.5a.5.5 0 0 1 0-.999h1.5a.499.499 0 1 1 0 .999zm-10 3.001h-1.498a.5.5 0 1 1 0-1h1.498a.5.5 0 1 1 0 1zm5 0h-1.5a.5.5 0 1 1 0-1h1.5a.5.5 0 1 1 0 1zm5 0h-1.5a.5.5 0 0 1 0-1h1.5a.5.5 0 1 1 0 1z" id="a"/></defs><use fill="#F2A049" xlink:href="#a" transform="translate(-391 -1743)" fill-rule="evenodd"/></svg>