<svg width="40" height="41" viewBox="0 0 40 41" xmlns="http://www.w3.org/2000/svg"><path d="M14.652 5.551A1 1 0 0 1 15.486 4h9a1 1 0 0 1 .765 1.645c9.013 2.107 14.735 9.159 14.736 17.869 0 9.163-4.27 17.486-19.94 17.486C4.814 41-.01 33.25-.014 22.486-.016 14.124 6.43 7.459 14.652 5.551zM26.486 0h-13a1 1 0 0 0-1 1v1a1 1 0 0 0 1 1h13a1 1 0 0 0 1-1V1a1 1 0 0 0-1-1zm-7.014 38.007c-11.857 0-16.385-6.582-16.47-14.49-.095-8.592 8.608-15.526 17.5-15.526 8.118 0 16.47 7.664 16.47 15.526 0 8.846-5.63 14.49-17.5 14.49zM24.486 26c.552 0 1-.449 1-1v-1a1 1 0 0 0-1-1h-1.929l1.737-4.699c.387-.732.157-1.667-.512-2.09-.67-.422-1.526-.172-1.913.56l-2.013 5.447-2.316-5.367a1.5 1.5 0 1 0-2.598 1.5l2.007 4.65h-1.462a1 1 0 0 0-1 1v1c0 .551.448 1 1 1h3v2h-3a1 1 0 0 0-1 1v1c0 .551.448 1 1 1h3v3c0 .551.448 1 1 1h1c.552 0 1-.449 1-1v-3h3c.552 0 1-.449 1-1v-1a1 1 0 0 0-1-1h-3v-2h3V26z" fill="#10AEFF" fill-rule="evenodd"/></svg>