<svg width="22" height="22" viewBox="0 0 22 22" xmlns="http://www.w3.org/2000/svg"><path d="M20.5 8.95h-2v-7.5a1 1 0 0 0-1-1h-16a1 1 0 0 0-1 1v10.5a1 1 0 0 0 1 1h2v7.5a1 1 0 0 0 1 1h16a1 1 0 0 0 1-1V9.95a1 1 0 0 0-1-1zm-1 11h-14a.5.5 0 0 1-.5-.5v-8.5a.5.5 0 0 1 .5-.5H10c.291-.149.5-.424.5-.75a.748.748 0 0 0-.5-.704l-5.5-.045a1 1 0 0 0-1 1v1h-1a.5.5 0 0 1-.5-.5v-8a.5.5 0 0 1 .5-.5h14a.5.5 0 0 1 .5.5v6.5h-2.5c-.291.149-.5.423-.5.75 0 .325.209.6.5.704l5 .046a.5.5 0 0 1 .5.5v8.5a.5.5 0 0 1-.5.5zm-14.5-4h15v1H5v-1zM9.91 5.518a2.434 2.434 0 0 0-.237-.087.529.529 0 0 0-.5.519c0 .276.341.443.5.545 1.756.698 3.039 2.363 3.039 4.368v.185c-.039-.032-.81-.588-.81-.588a.54.54 0 0 0-.76.099.544.544 0 0 0 .098.762s1.59 1.255 1.818 1.292c.275.045.576-.21.576-.486 0-.014.039-.817.039-1.219a5.747 5.747 0 0 0-3.762-5.39z" fill="#F76260" fill-rule="evenodd"/></svg>