<svg width="22" height="21" viewBox="0 0 22 21" xmlns="http://www.w3.org/2000/svg" xmlns:xlink="http://www.w3.org/1999/xlink"><defs><path d="M207.117 1319.634h-.5a.5.5 0 0 1-.498-.5v-1.998a.5.5 0 0 1 .498-.5h.5a.5.5 0 0 1 .5.5v1.998a.5.5 0 0 1-.5.5zm-11.499-4.499h.5a.5.5 0 0 1 .5.5v2.001a.5.5 0 0 1-.5.5h-.5a.5.5 0 0 1-.5-.5v-2a.5.5 0 0 1 .5-.501zm4 1.5h.5a.5.5 0 0 1 .5.5v2a.5.5 0 0 1-.5.5h-.5a.5.5 0 0 1-.5-.5v-2a.5.5 0 0 1 .5-.5zm3.5-2h.5a.5.5 0 0 1 .5.5v2a.5.5 0 0 1-.5.501h-.5a.5.5 0 0 1-.5-.5v-2.001a.5.5 0 0 1 .5-.5zm2.29-10.353a6.25 6.25 0 0 0-12.29 1.604c0 .043.005.085.006.127a4.248 4.248 0 0 0 1.744 8.122h10.5c.123 0 .24-.03.342-.082a5 5 0 1 0-.303-9.77zm.206 1.5v.017a3.524 3.524 0 0 0-1.588 1.014l.004-.02a3.55 3.55 0 0 0-.413.561l.001.03a.75.75 0 0 1-1.458.252h-.313a5.01 5.01 0 0 1 2.162-2.768 4.751 4.751 0 0 0-9.39 1.018c0 .432.06.85.171 1.249h-.171v.03a2.735 2.735 0 0 0-2.501 2.72 2.74 2.74 0 0 0 2.5 2.724v.025h10.75l.028.001h1.721v-.051a3.49 3.49 0 0 0 3-3.448 3.501 3.501 0 0 0-4.503-3.354z" id="a"/></defs><use fill="#F76260" xlink:href="#a" transform="translate(-190 -1299)" fill-rule="evenodd"/></svg>