<svg width="18" height="22" viewBox="0 0 18 22" xmlns="http://www.w3.org/2000/svg" xmlns:xlink="http://www.w3.org/1999/xlink"><defs><path d="M408.188 1987.438h-14a1.5 1.5 0 0 1-1.5-1.5v-18a1.5 1.5 0 0 1 1.5-1.499h14a1.5 1.5 0 0 1 1.5 1.499v18a1.5 1.5 0 0 1-1.5 1.5zm0-19a.5.5 0 0 0-.5-.5h-13a.5.5 0 0 0-.5.5v17a.5.5 0 0 0 .5.5h13a.5.5 0 0 0 .5-.5v-17zm-2 13.501h-10a1 1 0 0 1-.998-1v-11a1 1 0 0 1 .998-1h10a1 1 0 0 1 1 1v11a1 1 0 0 1-1 1zm-.5-11a.5.5 0 0 0-.5-.5h-8a.5.5 0 0 0-.5.5v9a.5.5 0 0 0 .5.5h8a.5.5 0 0 0 .5-.5v-9zm-5.748 11.999h2.498a.75.75 0 0 1 0 1.5h-2.498a.75.75 0 1 1 0-1.5z" id="a"/></defs><use fill="#F2A049" xlink:href="#a" transform="translate(-392 -1966)" fill-rule="evenodd"/></svg>