<svg width="19" height="22" viewBox="0 0 19 22" xmlns="http://www.w3.org/2000/svg"><path d="M5 .5h-.5A.5.5 0 0 0 4 1v3.5a.5.5 0 0 0 .5.5H5a.5.5 0 0 0 .5-.5V1A.5.5 0 0 0 5 .5zm9.5 0H14a.5.5 0 0 0-.5.5v3.5a.5.5 0 0 0 .5.5h.5a.5.5 0 0 0 .5-.5V1a.5.5 0 0 0-.5-.5zm-2 2h-6V4h6V2.5zm5 0H16V4h1a.5.5 0 0 1 .5.5V7h-16V4.5A.5.5 0 0 1 2 4h1V2.5H1.5A1.5 1.5 0 0 0 0 4v16a1.5 1.5 0 0 0 1.5 1.5h16A1.5 1.5 0 0 0 19 20V4a1.5 1.5 0 0 0-1.5-1.5zm0 17a.5.5 0 0 1-.5.5H2a.5.5 0 0 1-.5-.5v-11h16v11zm-7.75-9a.75.75 0 0 0-.75.75v4a.75.75 0 1 0 1.5 0v-4a.75.75 0 0 0-.75-.75zm0 6.5a.75.75 0 1 0 0 1.5.75.75 0 0 0 0-1.5z" fill="#10AEFF" fill-rule="evenodd"/></svg>