<svg width="22" height="21" viewBox="0 0 22 21" xmlns="http://www.w3.org/2000/svg" xmlns:xlink="http://www.w3.org/1999/xlink"><defs><path d="M160.156 1909.152a5.515 5.515 0 0 1-.458.55c.041.024.083.046.12.082l1.041 1.079a.5.5 0 0 1-.012.707l-.359.347a.5.5 0 0 1-.708-.012l-1.042-1.08a.474.474 0 0 1-.117-.23 5.505 5.505 0 0 1-7.41-7.87 5.508 5.508 0 0 1 8.945 6.428zm-.822-15.212l-.025-.185a.497.497 0 0 0-.561-.43l-5.779.615h6.365zm-15.722 0l15.5-1.671a.998.998 0 0 1 1.123.86l.129.971a1.5 1.5 0 0 1 .824 1.34v6.18a7.018 7.018 0 0 0-1.499-1.419v-4.26a.5.5 0 0 0-.5-.5h-17a.5.5 0 0 0-.5.5v12.999a.5.5 0 0 0 .5.5h7.443c.32.552.707 1.057 1.161 1.5h-9.104a1.5 1.5 0 0 1-1.5-1.5v-14a1.5 1.5 0 0 1 1.5-1.5h1.923zm14.412 8.759a4.001 4.001 0 0 0-5.583.915 3.998 3.998 0 0 0 .916 5.58 3.998 3.998 0 1 0 4.668-6.495zm-1.584-3.26h-5.001a.75.75 0 1 1 0-1.498h5a.75.75 0 0 1 0 1.499zm-8.751 7.502h-3.501a1 1 0 0 1-.999-1v-7a1 1 0 0 1 .999-1h3.5a1 1 0 0 1 1 1v7a1 1 0 0 1-1 1zm-.5-7.001a.5.5 0 0 0-.5-.5h-1.5a.5.5 0 0 0-.5.5v5a.5.5 0 0 0 .5.5h1.5a.5.5 0 0 0 .5-.5v-5z" id="a"/></defs><use fill="#F2A049" xlink:href="#a" transform="translate(-140 -1892)" fill-rule="evenodd"/></svg>