<svg width="22" height="21" viewBox="0 0 22 21" xmlns="http://www.w3.org/2000/svg" xmlns:xlink="http://www.w3.org/1999/xlink"><defs><path d="M308.94 1983.149l2.037 1.997c.416.409.418 1.072.001 1.482a1.082 1.082 0 0 1-1.51.002l-2.041-2.002a10.613 10.613 0 0 1-6.636 2.308c-5.8 0-10.501-4.59-10.501-10.248 0-5.661 4.702-10.249 10.501-10.249 5.8 0 10.502 4.588 10.502 10.248 0 2.45-.884 4.699-2.354 6.462zm-2.414.29a9.117 9.117 0 0 1-5.735 2.007c-4.97 0-8.998-3.917-8.998-8.751 0-4.832 4.027-8.75 8.998-8.75 4.97 0 8.999 3.918 8.999 8.75 0 2.35-.953 4.485-2.503 6.057a.77.77 0 0 0-.045-.312 6.25 6.25 0 0 0-4.234-5.18 3.234 3.234 0 0 0 1.282-2.572 3.25 3.25 0 1 0-6.5 0c0 1.052.509 1.977 1.282 2.571a6.252 6.252 0 0 0-4.232 5.18.729.729 0 0 0-.05.25.75.75 0 1 0 1.5 0 .729.729 0 0 0-.05-.25h.113a4.748 4.748 0 0 1 4.686-4 4.747 4.747 0 0 1 4.686 4h.115a.73.73 0 0 0-.05.25c0 .41.327.743.736.75zm-5.487-10.5a1.75 1.75 0 1 0 0 3.5 1.75 1.75 0 0 0 0-3.5z" id="a"/></defs><use fill="#F2A049" xlink:href="#a" transform="translate(-290 -1966)" fill-rule="evenodd"/></svg>