<svg width="22" height="22" viewBox="0 0 22 22" xmlns="http://www.w3.org/2000/svg"><path d="M6.25 14.69h.5a.25.25 0 0 0 .25-.25v-4a.25.25 0 0 0-.25-.25h-.5a.25.25 0 0 0-.25.25v4c0 .138.112.25.25.25zM7 17.44c0 .138.112.25.25.25h2.5a.25.25 0 0 0 .25-.25v-.5a.25.25 0 0 0-.25-.25h-2.5a.25.25 0 0 0-.25.25v.5zM6.25 7.19h.5A.25.25 0 0 0 7 6.94v-3.5a.25.25 0 0 0-.25-.25h-.5a.25.25 0 0 0-.25.25v3.5c0 .138.112.25.25.25zM18 5.924a.25.25 0 0 0-.25-.25h-1.5a.25.25 0 0 0-.25.25v.5c0 .138.112.25.25.25H17v.766c0 .138.112.25.25.25h.5a.25.25 0 0 0 .25-.25V5.924zM14 16.94v.5c0 .138.112.25.25.25h2.5a.25.25 0 0 0 .25-.25v-.5a.25.25 0 0 0-.25-.25h-2.5a.25.25 0 0 0-.25.25zm2.5-14.75h-6V.69a.5.5 0 0 0-.5-.5h-.5a.5.5 0 0 0-.5.5v12a2 2 0 0 0 2 2h2a2 2 0 0 0 2-2v-2a2 2 0 0 0-2-2h-2c-.174 0-.34.03-.5.071v-2.07h2.75a.25.25 0 0 0 .25-.25v-.5a.25.25 0 0 0-.25-.25H10.5v-2h6a3.5 3.5 0 0 1 3.5 3.5v9a3.5 3.5 0 0 1-3.5 3.5h-9a3.5 3.5 0 0 1-3.5-3.5V.69a.5.5 0 0 0-.5-.5H3a.5.5 0 0 0-.5.5v1.5H1a.5.5 0 0 0-.5.5v.5a.5.5 0 0 0 .5.5h1.5v2.25a.25.25 0 0 0-.25-.25h-.5a.25.25 0 0 0-.25.25v.5c0 .137.112.25.25.25h.5a.25.25 0 0 0 .25-.25v2.25H1a.5.5 0 0 0-.5.5v.5a.5.5 0 0 0 .5.5h1.5v6a5 5 0 0 0 5 5h9a5 5 0 0 0 5-5v-9a5 5 0 0 0-5-5zm-5 8h1a1 1 0 0 1 1 1v1a1 1 0 0 1-1 1h-1a1 1 0 0 1-1-1v-1a1 1 0 0 1 1-1zm6.25 0h-.5a.25.25 0 0 0-.25.25v4c0 .138.112.25.25.25h.5a.25.25 0 0 0 .25-.25v-4a.25.25 0 0 0-.25-.25z" fill="#F2A049" fill-rule="evenodd"/></svg>