<svg width="39" height="43" viewBox="0 0 39 43" xmlns="http://www.w3.org/2000/svg" xmlns:xlink="http://www.w3.org/1999/xlink"><defs><path d="M518.309 1146.189h1.928a1 1 0 0 1 1 1.001v1a1 1 0 0 1-1 1h-3.001v2h3.001a1 1 0 0 1 1 1.001v1a1 1 0 0 1-1 1h-3.001v3a1 1 0 0 1-1 1.001h-1a1 1 0 0 1-1-1.001v-3h-3a1 1 0 0 1-1-1v-1a1 1 0 0 1 1-1.001h3v-2h-3a1 1 0 0 1-1-1v-1a1 1 0 0 1 1-1.001h1.461l-2.005-4.648a1.5 1.5 0 1 1 2.597-1.5l2.315 5.368 2.013-5.447c.388-.73 1.245-.982 1.914-.562.671.424.9 1.359.512 2.093l-1.734 4.696zm-8.474-10.977a1.496 1.496 0 0 1 1.287.913c.042.021.083.033.125.054l-.096.096c.039.135.084.27.084.415a1.5 1.5 0 0 1-1.499 1.502c-.146 0-.281-.045-.415-.083l-.322.322a16.422 16.422 0 0 0-6.264-1.239c-9.112 0-16.499 7.386-16.499 16.498 0 1.141.113 2.255.334 3.33l-.397-.013c-.152.672-.722 1.186-1.439 1.186a1.5 1.5 0 0 1-1.499-1.502c0-.242.071-.463.173-.666a17.65 17.65 0 0 1-.173-2.335c0-8.879 5.944-16.358 14.065-18.714a10.473 10.473 0 0 1-4.066-8.285c0-5.798 4.703-10.5 10.5-10.5s10.5 4.702 10.5 10.5c.002 3.517-1.744 6.616-4.399 8.521zm-6.099-16.021a7.5 7.5 0 1 0 .001 15.001 7.5 7.5 0 0 0-.001-15.001z" id="a"/></defs><use fill="#10AEFF" xlink:href="#a" transform="translate(-483 -1116)" fill-rule="evenodd"/></svg>