<svg width="41" height="42" viewBox="0 0 41 42" xmlns="http://www.w3.org/2000/svg"><path d="M40.541 32.86l-.582.812c-.323.448-.949.55-1.397.227l-2.436-1.749c-.069-.048-.11-.116-.161-.176-4.111 3.654-10.336 4.126-14.985.781-5.389-3.872-6.619-11.381-2.75-16.772 3.873-5.389 11.381-6.619 16.771-2.747 5.302 3.81 6.562 11.137 2.917 16.505l2.397 1.723a1 1 0 0 1 .226 1.396zm-7.287-17.18a8.995 8.995 0 0 0-12.561 2.06c-2.899 4.04-1.977 9.67 2.057 12.573a8.996 8.996 0 0 0 12.56-2.061c2.9-4.039 1.98-9.67-2.056-12.572zM12.999 32.999H7.998a1 1 0 0 1-1-1v-1a1 1 0 0 1 1-1h5.001a1 1 0 0 1 1 1v1a1 1 0 0 1-1 1zM7.998 20h4a1 1 0 0 1 1 .997v1a1 1 0 0 1-1 1.001h-4a1 1 0 0 1-1-1.001v-1a1 1 0 0 1 1-.997zm-1-9.002a1 1 0 0 1 1-1h9.001a1 1 0 0 1 1 1v1a1 1 0 0 1-1 1H7.998a1 1 0 0 1-1-1v-1zm27.5 0a1.492 1.492 0 0 1-1.4-1h-.099V4c0-.555-.448-1-1-1H4c-.553 0-1 .445-1 1v33.997a1 1 0 0 0 1 1h27.999a1 1 0 0 0 1-1v-1h.099a1.489 1.489 0 0 1 1.4-.997c.651 0 1.194.418 1.403.997H36v2a3 3 0 0 1-3 3.001H3a3 3 0 0 1-3-3.001V3a3 3 0 0 1 3-3h30a3 3 0 0 1 3 3v6.998h-.099c-.208.58-.752 1-1.403 1zM23.966 25.732v-.71h3.299v4.216h1.475v-4.216h3.299v.66h1.422v-6.247H28.74V17h-1.475v2.436h-4.721v6.296h1.422zM27 21v2.946h-2.456V21H27zm4.843 2.946H29V21h2.843v2.946z" fill="#10AEFF" fill-rule="evenodd"/></svg>