<svg width="22" height="23" viewBox="0 0 22 23" xmlns="http://www.w3.org/2000/svg"><path d="M3.113 17.187L.715 16.44c-1.207-.376-.68-2.026.073-2.438L13.454 7.06V1.57H11.39v-.044a.786.786 0 0 1-.516-.741c0-.342.216-.633.516-.741V0h.646c2.352.647 1.445 0 .387 0h-.387 4.775a.78.78 0 0 1 .774.786.78.78 0 0 1-.774.786h-1.916.109v4.64l1.683-.923a1.537 1.537 0 0 1 2.099.637l2.382 5.37c.442.877.305 1.512.04 1.655l-.457.271.227.437c.4.767.11 1.718-.646 2.124L8.543 22.107a1.538 1.538 0 0 1-2.093-.655l-.283-.544-1.083.435a.513.513 0 0 1-.67-.294l-1.332-3.41a.531.531 0 0 1 .031-.452zm2.569 2.789l-1.16-2.23a1.576 1.576 0 0 1-.02-.04.53.53 0 0 0-.08.521l.571 1.462c.105.269.405.4.67.294l.019-.007zm.96-1.692c.638.2 1.168.364 1.476.46 1.392.448 1.856.596 3.25-.11.851-.388 5.7-3.236 8.258-4.747l.053.091a.543.543 0 0 1-.208.683l-10.82 5.894c-.679.405-.736.148-.986-.307L6.64 18.284zm11.945-5.599c-1.79.9-6.344 3.541-9.028 4.864-1.415-.418-6.373-1.983-6.91-2.15-.363-.113-.39-.321.524-.805l13.17-6.992c1.056-.569 1.198-.003 1.48.46 0 0 .896 1.616 1.37 2.62.473 1.002.605 1.394-.606 2.003z" fill="#F2A049" fill-rule="evenodd"/></svg>