<svg width="23" height="25" viewBox="0 0 23 25" xmlns="http://www.w3.org/2000/svg" xmlns:xlink="http://www.w3.org/1999/xlink"><defs><path d="M359.004 1980.444c.085 0 .17-.01.25-.027.383-.085.733-.375 1.042-.862.932-1.466 1.149-4.14.55-6.812-.846-3.775-2.995-6.31-4.473-6.31-.084 0-.17.01-.25.027-.382.085-.733.375-1.043.862-.931 1.466-1.146 4.14-.547 6.813.845 3.774 2.994 6.309 4.471 6.309zm-13.667.623l-1.915.514a1.5 1.5 0 0 1-1.838-1.06l-1.424-5.313a1.5 1.5 0 0 1 1.061-1.837l3.383-.907c.344-.276 7.084-5.102 8.865-6.614.912-.776 1.89-1.078 2.76-.913.048-.003.096-.004.144-.004 2.4 0 4.97 3.167 5.935 7.482 1.046 4.664-.177 8.902-2.728 9.466a2.671 2.671 0 0 1-1.07.02c-.28.017-.548 0-.79-.047-1.839-.36-5.27-.702-7.797-.924l1.217 5.213a.999.999 0 0 1-.707 1.225l-2.413.646a1 1 0 0 1-1.226-.706l-1.457-6.24zm4.224-1.655c-.953-.06-1.57-.09-1.57-.09l-.019-.01-1.677-6.257.013-.013s4.382-3.128 6.8-4.933c-.516 1.724-.57 3.984-.04 6.353.499 2.225 1.423 4.144 2.53 5.482-2.092-.257-4.493-.433-6.029-.531v-.004l-.008.003zm-7.469-4.724a.502.502 0 0 0-.352.614l1.164 4.346a.5.5 0 0 0 .613.354l2.897-.776-1.423-5.314-2.899.776zm6.036 11.743l1.448-.388-1.144-4.906a5.46 5.46 0 0 1-.313.009 4.7 4.7 0 0 1-1.26-.162l1.269 5.447z" id="a"/></defs><use fill="#F2A049" xlink:href="#a" transform="translate(-340 -1964)" fill-rule="evenodd"/></svg>