<svg width="41" height="45" viewBox="0 0 41 45" xmlns="http://www.w3.org/2000/svg"><path d="M38.483 24.259h-12a2 2 0 0 0-2 2v16a2 2 0 0 0 2 2h12a2 2 0 0 0 2-2v-16a2 2 0 0 0-2-2zm-.5 16.6a1.1 1.1 0 0 1-1.1 1.1h-8.8a1.1 1.1 0 0 1-1.101-1.1v-13.2a1.1 1.1 0 0 1 1.101-1.1h8.8a1.1 1.1 0 0 1 1.1 1.1v13.2zm-7.5-9.6h4a1.001 1.001 0 0 0 0-2h-4a1 1 0 1 0 0 2zm4 2h-4a1 1 0 1 0 0 2h4a1 1 0 0 0 0-2zm0 4h-4a1 1 0 1 0 0 2h4a1 1 0 0 0 0-2zM27.84 19.911c-.157-.108-.3-.263-.493-.306-.333-.149-.696-.231-1.04-.36A10.486 10.486 0 0 0 31 10.5C31 4.701 26.299 0 20.5 0S10 4.701 10 10.5c0 3.37 1.595 6.362 4.063 8.283C5.942 21.138 0 28.619 0 37.5c0 1.196.124 2.362.331 3.5.029.844.7 1.516 1.529 1.516a1.5 1.5 0 0 0 1.5-1.5 18.333 18.333 0 0 1-.359-3.516c0-9.114 7.387-16.5 16.5-16.5 2.205 0 4.305.44 6.228 1.225.77.379.907.44 1.385.44.837 0 1.399-.626 1.399-1.48.001-.477-.221-.9-.562-1.183-.016-.052-.065-.069-.111-.091zM13.001 10.5a7.5 7.5 0 1 1 15 0 7.5 7.5 0 0 1-15 0z" fill="#10AEFF" fill-rule="evenodd"/></svg>