<svg width="22" height="19" viewBox="0 0 22 19" xmlns="http://www.w3.org/2000/svg" xmlns:xlink="http://www.w3.org/1999/xlink"><defs><path d="M98.09 945.012l-6.472-.053a.5.5 0 0 1-.5-.5v-2.5h6v-.05c.079.029.161.05.25.05a.75.75 0 0 0 0-1.499c-.089 0-.171.02-.25 0h-6v-8.5a.5.5 0 0 1 .5-.5h17a.5.5 0 0 1 .5.5l.05 4.499a.734.734 0 0 0-.05.25.75.75 0 1 0 1.5 0c0-.088-.02-.17 0-.25v-5a1.5 1.5 0 0 0-1.5-1.5h-18a1.5 1.5 0 0 0-1.5 1.5v13.5a1.5 1.5 0 0 0 1.5 1.5h7.21l.04.001a.75.75 0 1 0-.277-1.448zm11.941 1.55a.749.749 0 1 1-1.06 1.062l-1.178-1.18a5.46 5.46 0 0 1-3.175 1.016 5.501 5.501 0 1 1 5.5-5.501 5.473 5.473 0 0 1-1.228 3.462l1.141 1.142zm-5.413-8.602a4 4 0 1 0 0 8 4 4 0 0 0 0-8z" id="a"/></defs><use fill="#F76260" xlink:href="#a" transform="translate(-89 -929)" fill-rule="evenodd"/></svg>