<svg width="20" height="22" viewBox="0 0 20 22" xmlns="http://www.w3.org/2000/svg" xmlns:xlink="http://www.w3.org/1999/xlink"><defs><path d="M208.618 800.064v.571a.5.5 0 0 1-.5.5h-2a.5.5 0 0 1-.499-.5v-.5h-10v.5a.5.5 0 0 1-.5.5h-2a.5.5 0 0 1-.5-.5v-.57a1.995 1.995 0 0 1-1.5-1.929v-16.001a2 2 0 0 1 2-2h15a2 2 0 0 1 2 2v16.001a1.997 1.997 0 0 1-1.501 1.928zm0-17.429a1 1 0 0 0-1-.999h-14a1 1 0 0 0-1 .999v15.001a1 1 0 0 0 1 .999h13.999c.553 0 1-.447 1-.999v-15.001zm-1.26 10.495h-13.495a.75.75 0 0 1 0-1.5h13.494a.75.75 0 1 1 0 1.5zm-12.24 1.005a1.5 1.5 0 1 1 0 3 1.5 1.5 0 0 1 0-3zm10.999 0a1.5 1.5 0 1 1 0 3 1.5 1.5 0 0 1 0-3zm-1.498-4a1 1 0 0 0-1 1h-1a1.999 1.999 0 0 1 3.999 0h-.999a1 1 0 0 0-1-1z" id="a"/></defs><use fill="#F76260" xlink:href="#a" transform="translate(-191 -780)" fill-rule="evenodd"/></svg>