<svg width="21" height="21" viewBox="0 0 21 21" xmlns="http://www.w3.org/2000/svg" xmlns:xlink="http://www.w3.org/1999/xlink"><defs><path d="M269.5 466h-18a1.5 1.5 0 0 1-1.5-1.5v-17a1.5 1.5 0 0 1 1.5-1.5h18a1.5 1.5 0 0 1 1.5 1.5v17a1.5 1.5 0 0 1-1.5 1.5zm0-6.637V448a.5.5 0 0 0-.5-.5h-17a.5.5 0 0 0-.5.5v13.298a6.098 6.098 0 0 1 2.591-2.269 3.486 3.486 0 0 1-1.09-2.529 3.5 3.5 0 1 1 6.999 0c0 .997-.422 1.893-1.092 2.529.085.04.17.08.253.123a6.254 6.254 0 0 1 2.826-2.224 3.493 3.493 0 0 1-.986-2.43 3.5 3.5 0 1 1 7 0 3.477 3.477 0 0 1-1.145 2.575 6.3 6.3 0 0 1 2.644 2.289zm-.5 5.138h-6.505a6.323 6.323 0 0 0-2.167-4.557c1.065-1.539 2.797-1.944 3.922-1.944a4.75 4.75 0 0 1 4.75 4.75c0 .256-.027.506-.066.75H269v1.001zm-17 0h9a4.5 4.5 0 0 0-9 0zm4.5-10.001a2 2 0 1 0 .002 4 2 2 0 0 0-.002-4zm8-2a2 2 0 1 0-.001 3.999 2 2 0 0 0 .001-3.999z" id="a"/></defs><use fill="#10AEFF" xlink:href="#a" transform="translate(-250 -445.5)" fill-rule="evenodd"/></svg>