<svg width="21" height="22" viewBox="0 0 21 22" xmlns="http://www.w3.org/2000/svg" xmlns:xlink="http://www.w3.org/1999/xlink"><defs><path d="M549.577 1744.637h-.375c-.664 0-1.203.537-1.203 1.203 0 .103.016.2.04.295h6.92a1.2 1.2 0 0 0 .041-.295c0-.666-.538-1.203-1.203-1.203h-.61a2 2 0 0 0-3.61 0zm-6.54 6.863c.34-2.87 2.911-4.866 5.883-4.865h5.131c2.933-.001 5.506 2.041 5.892 4.865h.88a.5.5 0 0 1 .5.5v.769a.5.5 0 0 1-.5.5h-.86l-.014.499c0 .122-.011.246-.019.369h.07c.948 0 2 1.082 2 1.999v5.5c0 .609-.436 1.259-1 1.647v.852a.5.5 0 0 1-.5.5H557a.5.5 0 0 1-.5-.5v-.5h-10v.5a.5.5 0 0 1-.5.5h-3.5a.5.5 0 0 1-.5-.5v-.852c-.564-.388-1-1.038-1-1.647v-5.501c0-.886 1.115-1.999 2-1.999v-.867h-1.118a.5.5 0 0 1-.5-.5V1752a.5.5 0 0 1 .5-.5h1.156zm15.463 1.592v2.543h1a1 1 0 0 1 1 1v4c0 .17-.245.627-.5.992v1.507a.5.5 0 0 1-.5.5H558a.5.5 0 0 1-.5-.5v-.998h-12v.998a.5.5 0 0 1-.5.5h-1.5a.5.5 0 0 1-.5-.5v-1.431c-.261-.361-.5-.85-.5-1.067v-4.001c0-.302.698-1 1-1h1v-4.5c0-1.084 2.168-3 3.36-3h7.279c1.087 0 3.36 2.033 3.36 3v.542a.498.498 0 0 0-.118.323v.769c0 .123.044.236.118.323zm-12.29 1.542s2.491-1 5.29-1c2.146 0 5.5 1 5.5 1 .483.13.5.676.5 1.001 0 .325-.381.5-.71.5 0 0-2.616-1-5.29-1-2.712 0-5.29 1-5.29 1-.243.022-.61-.19-.71-.5-.116-.359.053-.784.71-1zm2.289 3.502h6.001a.5.5 0 0 1 .5.5v.5a.5.5 0 0 1-.5.5h-6.001a.5.5 0 0 1-.5-.5v-.5a.5.5 0 0 1 .5-.5zm-2.499 1.5h-1a.5.5 0 0 1-.5-.5v-1a.5.5 0 0 1 .5-.5h1a.5.5 0 0 1 .5.5v1a.5.5 0 0 1-.5.5zm12 0h-1a.5.5 0 0 1-.5-.5v-1a.5.5 0 0 1 .5-.5h1a.5.5 0 0 1 .5.5v1a.5.5 0 0 1-.5.5z" id="a"/></defs><use fill="#F2A049" xlink:href="#a" transform="translate(-541 -1743)" fill-rule="evenodd"/></svg>