<svg width="45" height="35" viewBox="0 0 45 35" xmlns="http://www.w3.org/2000/svg"><path d="M28.015 20.28c1.251 0 1.875-.86 1.875-2.577.158-1.51.236-3.723.236-6.643l-4.61 1.328V7.937h-1.952v5.001l-2.502.701V9.967h-1.953v4.296l-1.251.313v-1.483h-1.717V7.937h-1.875v5.156h-1.875v1.952h1.875v7.11L12 22.621l.391 1.953a638.14 638.14 0 0 1 3.123-.702c1.355-.364 2.293-.597 2.812-.704a25.939 25.939 0 0 1-.078-1.952c-.364.053-.833.157-1.406.312a4.865 4.865 0 0 0-.702.156v-6.641h1.329l.311 1.642 1.329-.391v7.031c-.051 1.821.911 2.708 2.89 2.654h5.47c1.821.054 2.863-.547 3.126-1.794.206-.783.391-1.693.546-2.735-.731-.209-1.355-.442-1.875-.705a29.77 29.77 0 0 1-.391 2.267c-.104.887-.782 1.302-2.03 1.251h-4.063c-1.25.051-1.824-.496-1.719-1.643v-6.953l2.502-.779v7.655h1.952v-8.201l2.657-.782c0 .987-.054 2.266-.158 3.827-.051.833-.391 1.225-1.015 1.173H25.75c.104.312.209.73.313 1.25a5.5 5.5 0 0 0 .155.626c.728.001 1.328-.053 1.797-.157zm14.721 8.91a1.5 1.5 0 0 1 1.499 1.502c0 .176-.042.34-.098.498h.098a2.998 2.998 0 0 1-2.997 3.001H3.237a3 3 0 0 1-3-3.001V3.191a3 3 0 0 1 3-3h38.001c1.078 0 2.015.576 2.543 1.43.278.271.454.648.454 1.069 0 .06-.026.11-.032.167.012.11.032.221.032.334h-.098a1.493 1.493 0 0 1-1.4 1.001c-.65 0-1.191-.422-1.4-1.001H4.238a1 1 0 0 0-1 1.001V30.19a1 1 0 0 0 1 1h37.099a1.457 1.457 0 0 1-.099-.498 1.5 1.5 0 0 1 1.498-1.502zm0-18a1.5 1.5 0 0 1-1.499-1.499v-2a1.5 1.5 0 1 1 2.998 0v2a1.5 1.5 0 0 1-1.499 1.499zm0 7.001a1.5 1.5 0 0 1-1.499-1.502v-2a1.5 1.5 0 0 1 2.998 0v2a1.5 1.5 0 0 1-1.499 1.502zm0 7.998a1.5 1.5 0 0 1-1.499-1.498V22.69a1.5 1.5 0 0 1 2.998 0v2.001c0 .828-.672 1.498-1.499 1.498z" fill="#10AEFF" fill-rule="evenodd"/></svg>