<svg width="20" height="21" viewBox="0 0 20 21" xmlns="http://www.w3.org/2000/svg"><path d="M19.657 15.732l-1.12-.804c1.703-2.568 1.09-6.043-1.43-7.856a5.743 5.743 0 0 0-8.023 1.316 5.765 5.765 0 0 0 1.314 8.037 5.74 5.74 0 0 0 7.155-.362c.005.004.006.009.01.012l1.218.875a.5.5 0 0 0 .698-.114l.292-.406a.499.499 0 0 0-.114-.698zm-2.466-1.508a4.244 4.244 0 0 1-5.922.969 4.24 4.24 0 0 1-.97-5.919 4.244 4.244 0 0 1 5.922-.969 4.24 4.24 0 0 1 .97 5.919zM4 11.5h1.5A.5.5 0 0 0 6 11v-.5a.5.5 0 0 0-.5-.5H4a.5.5 0 0 0-.5.5v.5a.5.5 0 0 0 .5.5zM17.25 18a.748.748 0 0 0-.704.5H16.5v.5a.5.5 0 0 1-.5.5H2a.5.5 0 0 1-.5-.5V2a.5.5 0 0 1 .5-.5h14a.5.5 0 0 1 .5.5v3h.046c.103.29.378.5.704.5.326 0 .601-.21.704-.5H18V1.5A1.5 1.5 0 0 0 16.5 0h-15A1.5 1.5 0 0 0 0 1.5v18A1.5 1.5 0 0 0 1.5 21h15a1.5 1.5 0 0 0 1.5-1.5v-1h-.046a.747.747 0 0 0-.704-.5zM8.5 6.5V6a.5.5 0 0 0-.5-.5H4a.5.5 0 0 0-.5.5v.5A.5.5 0 0 0 4 7h4a.5.5 0 0 0 .5-.5zm-5 9a.5.5 0 0 0 .5.5h2a.5.5 0 0 0 .5-.5V15a.5.5 0 0 0-.5-.5H4a.5.5 0 0 0-.5.5v.5z" fill="#10AEFF" fill-rule="evenodd"/></svg>