<svg width="39" height="40" viewBox="0 0 39 40" xmlns="http://www.w3.org/2000/svg" xmlns:xlink="http://www.w3.org/1999/xlink"><defs><path d="M600.715 1453.253c-20.18-7.437-18.473-25.667-18.209-27.68 0-2.406 1.406-2.887 2.527-3.424 4.453-2.129 14.473-7.407 14.473-7.407s2.525-1.248 4.842.149c3.633 2.188 12.09 7.072 13.389 7.072.025 0 2.463 1.347 2.463 3.609-.001 2.203.601 20.248-19.485 27.681zm1.254-35.901s-14.781 7.461-16.732 7.902c-.51 9.229 4.303 20.873 15.498 25.187 11.338-4.06 16.676-16.343 16.502-25.187-2.35-.611-15.268-7.902-15.268-7.902zm2.701 21.055l-3.936-1.768-3.932 1.768.541-4.13-2.971-3.036 4.266-.785 2.096-3.643 2.1 3.643 4.268.785-2.971 3.036.539 4.13z" id="a"/></defs><use fill="#10AEFF" xlink:href="#a" transform="translate(-582 -1414)" fill-rule="evenodd"/></svg>