<svg width="42" height="43" viewBox="0 0 42 43" xmlns="http://www.w3.org/2000/svg" xmlns:xlink="http://www.w3.org/1999/xlink"><defs><path d="M514 695.253v3h7a1 1 0 0 1 1 1v1a1 1 0 0 1-1 1h-7v7c0 .55.448 1 1 1h10c.552 0 1-.45 1-1v-22c0-.55-.448-1-1-1h-10a1 1 0 0 0-1 1v6h7c.554 0 1 .446 1 1v1a1 1 0 0 1-1 1h-7zm-18.998 14h-4.004c-.552 0-1-.45-1-1v-34a1 1 0 0 1 1-1h19a1 1 0 0 1 1.002 1v34c0 .55-.448 1-1.002 1H506v-7a2 2 0 0 0-2-2h-7a1.998 1.998 0 0 0-1.998 2v7zm18.998-27v-9c0-1.656-1.344-3-3-3h-21a3 3 0 0 0-3 3v36a3 3 0 0 0 3 3h21c.546 0 1.058-.146 1.5-.401.44.255.953.401 1.5.401h12a3 3 0 0 0 3-3v-24c0-1.658-1.342-3-3-3h-12zm-14-5zm6 13h-11a1 1 0 0 1-1-1v-1a1 1 0 0 1 1-1h11a1 1 0 0 1 1 1v1a1 1 0 0 1-1 1zm0 6h-11a1 1 0 0 1-1-1v-1c0-.55.448-1 1-1h11a1 1 0 0 1 1 1v1a1 1 0 0 1-1 1zm-3 13v-6h-5v6h5z" id="a"/></defs><use fill="#10AEFF" xlink:href="#a" transform="translate(-487 -670)" fill-rule="evenodd"/></svg>