<svg width="22" height="22" viewBox="0 0 22 22" xmlns="http://www.w3.org/2000/svg"><path d="M17.844 12.893a9.786 9.786 0 0 0-4.19-3.038A5.25 5.25 0 1 0 5.5 5.482a5.24 5.24 0 0 0 2.031 4.142C3.471 10.802.5 14.542.5 18.982c0 .555.057 1.095.146 1.624H.67c0 .011-.003.022-.003.032a.75.75 0 0 0 1.5.008h.001l-.001-.007a.755.755 0 0 0-.031-.203A8.288 8.288 0 0 1 2 18.982a8.25 8.25 0 0 1 8.25-8.25 8.231 8.231 0 0 1 6.464 3.132.748.748 0 1 0 1.13-.971zm-7.094-3.66a3.75 3.75 0 1 1 0-7.501 3.75 3.75 0 0 1 0 7.5zm10.214 4.282a.75.75 0 0 0-1.047.169l-3.98 5.328-2.209-2.246a.75.75 0 1 0-1.07 1.051l2.805 2.853a.751.751 0 0 0 1.06.009c.053-.052.084-.113.118-.174a.742.742 0 0 0 .183-.175l4.308-5.767a.75.75 0 0 0-.168-1.048z" fill="#F76260" fill-rule="evenodd"/></svg>