<svg width="21" height="21" viewBox="0 0 21 21" xmlns="http://www.w3.org/2000/svg" xmlns:xlink="http://www.w3.org/1999/xlink"><defs><path d="M213.5 458v1.5h3.5a.5.5 0 0 1 .5.5v.5a.5.5 0 0 1-.5.5h-3.5v3.5a.5.5 0 0 0 .5.5h5a.5.5 0 0 0 .5-.5v-11a.5.5 0 0 0-.5-.5h-5a.5.5 0 0 0-.5.5v3h3.5c.277 0 .5.223.5.5v.5a.5.5 0 0 1-.5.5h-3.5zm-9.499 7h-2.002a.5.5 0 0 1-.5-.5v-17a.5.5 0 0 1 .5-.5h9.5a.5.5 0 0 1 .501.5v17c0 .275-.224.5-.501.5H209.5v-3.5a1 1 0 0 0-1-1H205a.999.999 0 0 0-.999 1v3.5zm9.499-13.5V447a1.5 1.5 0 0 0-1.5-1.5h-10.5a1.5 1.5 0 0 0-1.5 1.5v18a1.5 1.5 0 0 0 1.5 1.5H212c.273 0 .53-.073.75-.2.22.127.477.2.75.2h6a1.5 1.5 0 0 0 1.5-1.5v-12a1.5 1.5 0 0 0-1.5-1.5h-6zm-7-2.5a1.5 1.5 0 1 1 0 3.002 1.5 1.5 0 0 1 0-3.002zm3 6.5H204a.5.5 0 0 1-.5-.5v-.5a.5.5 0 0 1 .5-.5h5.5a.5.5 0 0 1 .5.5v.5a.5.5 0 0 1-.5.5zm0 3H204a.5.5 0 0 1-.5-.5v-.5a.5.5 0 0 1 .5-.5h5.5a.5.5 0 0 1 .5.5v.5a.5.5 0 0 1-.5.5zM208 465v-3h-2.5v3h2.5z" id="a"/></defs><use fill="#10AEFF" xlink:href="#a" transform="translate(-200 -445.5)" fill-rule="evenodd"/></svg>