<svg width="21" height="22" viewBox="0 0 21 22" xmlns="http://www.w3.org/2000/svg"><path d="M9.478 6.138v7.084H8.51v-6.06H6.662v6.214h-1V6.138h3.816zm-2.32 1.694h.857v3.597c-.037 1.254-.227 2.252-.572 2.992-.345.69-.895 1.225-1.65 1.606l-.583-.913c.755-.374 1.261-.832 1.518-1.375.257-.594.4-1.364.43-2.31V7.832zm1.297 5.61c.572.543 1.07 1.1 1.496 1.672l-.77.77c-.337-.557-.803-1.15-1.397-1.782l.671-.66zm1.463-6.699h2.046a6.118 6.118 0 0 0-.363-.836l1.144-.198c.125.323.242.668.352 1.034h2.046v1.078H9.918V6.743zm-.165 2.992h1.276a10.146 10.146 0 0 0-.55-1.33l1.045-.408c.227.477.436 1.056.627 1.738h.935c.25-.6.455-1.188.616-1.76l1.078.385c-.147.418-.337.877-.572 1.375h1.188v1.1H9.753v-1.1zm5.071 1.837v4.334h-1.067v-.517h-2.332v.517h-1.078v-4.334h4.477zm2.757 4.976l-.317-1.098a.75.75 0 0 0-1.441.416l.694 2.403a.75.75 0 0 0 1.355.19A10.451 10.451 0 0 0 21 11C21 5.202 16.3.5 10.5.5 4.701.5 0 5.201 0 11s4.701 10.5 10.5 10.5c.337 0 .67-.02 1-.051v-.007c.008 0 .015.003.024.003a.75.75 0 1 0 0-1.5l-.024.002v-.007a9.04 9.04 0 0 1-1 .06 9 9 0 1 1 9-9 8.95 8.95 0 0 1-1.919 5.548zm-6.156-2.237h2.332v-1.66h-2.332v1.66z" fill="#F2A049" fill-rule="evenodd"/></svg>