<svg width="22" height="18" viewBox="0 0 22 18" xmlns="http://www.w3.org/2000/svg" xmlns:xlink="http://www.w3.org/1999/xlink"><defs><path d="M143.327 1092.766h-.21a1.5 1.5 0 0 1-1.5-1.498c0-.554.282-1.042.667-1.4l.72-1.73c.187.083.395.13.614.13h4.499a1.5 1.5 0 0 0 1.5-1.5v-3.5a1.5 1.5 0 0 0-1.5-1.5h-2.58a1.498 1.498 0 0 1 1.414-1h11.167a1.5 1.5 0 0 1 1.499 1.49h.001v9.015a1.5 1.5 0 0 1-1.22 1.468 2.5 2.5 0 1 0 .17 1.526h.05a2.5 2.5 0 0 0 2.5-2.5v-.5c0-.171-.018-.338-.051-.5h.05v-9.5h-.05c-.231-1.14-1.24-2-2.45-2h-11.999c-1.209 0-2.218.86-2.45 2h-.05l-3.793 9.01-.017.038-.191.453h.051a2.486 2.486 0 0 0-.051.5v.498a2.5 2.5 0 0 0 2.5 2.5h.55a2.5 2.5 0 0 0 4.9.001h5.551v-1.5h-5.71a2.5 2.5 0 1 0-4.582 0zm1.704-9.498l-1.457 3.5h4.044a.499.499 0 0 0 .499-.5v-2.501a.497.497 0 0 0-.498-.499h-2.588zm11.088 9.499a1 1 0 1 0 0 2 1 1 0 0 0 0-2zm-10.501 0a1 1 0 1 0 0 2 1 1 0 0 0 0-2z" id="a"/></defs><use fill="#F76260" xlink:href="#a" transform="translate(-140 -1079)" fill-rule="evenodd"/></svg>