<svg width="22" height="20" viewBox="0 0 22 20" xmlns="http://www.w3.org/2000/svg" xmlns:xlink="http://www.w3.org/1999/xlink"><defs><path d="M242.827 1537.783h-.21a1.5 1.5 0 0 1-1.5-1.499c0-.554.282-1.042.667-1.399l.72-1.731c.187.084.395.13.614.13h4.499a1.5 1.5 0 0 0 1.5-1.5v-3.499a1.5 1.5 0 0 0-1.5-1.5h-2.58a1.498 1.498 0 0 1 1.414-1.001h11.167a1.5 1.5 0 0 1 1.498 1.491h.002v9.014a1.5 1.5 0 0 1-1.22 1.468 2.5 2.5 0 1 0 .17 1.527h.05a2.5 2.5 0 0 0 2.5-2.5v-.5c0-.172-.019-.339-.051-.5h.05v-9.5h-.05c-.231-1.14-1.24-2-2.45-2h-11.999c-1.209 0-2.218.86-2.45 2h-.05l-3.793 9.01-.017.038-.191.452h.051a2.486 2.486 0 0 0-.051.5v.499a2.5 2.5 0 0 0 2.5 2.5h.55a2.5 2.5 0 0 0 4.9.001h5.551v-1.5h-5.71a2.5 2.5 0 1 0-4.582 0zm1.704-9.498l-1.457 3.499h4.044a.499.499 0 0 0 .499-.5v-2.5a.497.497 0 0 0-.498-.499h-2.588zm10.588 3.499h.998a.5.5 0 0 0 .5-.5v-.5a.5.5 0 0 0-.5-.5h-.999v-1a.5.5 0 0 0-.5-.5h-.5a.5.5 0 0 0-.5.5v1h-1a.5.5 0 0 0-.5.5v.5a.5.5 0 0 0 .5.5h1v1a.5.5 0 0 0 .5.5h.5a.5.5 0 0 0 .5-.5v-1zm-7.251-9.5h4.5a.75.75 0 1 1 0 1.5h-4.5a.749.749 0 1 1 0-1.5zm7.75 15.5a1 1 0 1 0 .001 2 1 1 0 0 0 0-2zm-10.5 0a1 1 0 1 0 0 2 1 1 0 0 0 0-2z" id="a"/></defs><use fill="#F76260" xlink:href="#a" transform="translate(-239 -1522)" fill-rule="evenodd"/></svg>