<svg width="44" height="42" viewBox="0 0 44 42" xmlns="http://www.w3.org/2000/svg" xmlns:xlink="http://www.w3.org/1999/xlink"><defs><path d="M618.31 1147.189h1.926c.553 0 1.002.448 1.002 1.001v1a1 1 0 0 1-1.002 1h-3v2h3c.553 0 1.002.448 1.002 1.001v1c0 .552-.449 1-1.002 1h-3v3a1 1 0 0 1-1 1.001h-1a1 1 0 0 1-1-1.001v-3h-3a1 1 0 0 1-1-1v-1a1 1 0 0 1 1-1.001h3v-2h-3a1 1 0 0 1-1-1v-1a1 1 0 0 1 1-1.001h1.461l-2.006-4.648a1.5 1.5 0 1 1 2.598-1.5l2.316 5.368 2.014-5.447c.389-.73 1.244-.982 1.914-.562.668.424.899 1.359.51 2.093l-1.734 4.696zm3.928-9.5c0 .194-.055.38-.145.55v.952h-2.857l-16.08-16.137c-.973-1.219-3.027-1.129-3.84 0l-15.393 15.447c.119.215.215.444.262.692h4.053v16.997h7.998v-10.002a2 2 0 0 1 2-2h6c1.105 0 2.002.896 2.002 2v1h-7.002v9.002h7.002v.1c.158-.058.322-.1.498-.1.83 0 1.498.672 1.498 1.499 0 .83-.668 1.502-1.498 1.502-.176 0-.34-.042-.498-.099v.099h-18a3.002 3.002 0 0 1-3.002-3.001v-12.999c0-.376.076-.734.203-1.066h-3.149a2.573 2.573 0 0 1-.552.066c-.191 0-.373-.027-.552-.066h-.806v-.337a2.495 2.495 0 0 1 0-4.196v-.63l18-17.483h.582c.523-.779 1.344-1.29 2.275-1.29.931 0 1.75.511 2.273 1.29h.584l18 17.483v.18c.09.171.144.354.144.547z" id="a"/></defs><use fill="#10AEFF" xlink:href="#a" transform="translate(-579 -1118)" fill-rule="evenodd"/></svg>