<svg width="18" height="22" viewBox="0 0 18 22" xmlns="http://www.w3.org/2000/svg"><path d="M16 .58H2a1.5 1.5 0 0 0-1.5 1.5v18a1.5 1.5 0 0 0 1.5 1.5h14a1.5 1.5 0 0 0 1.5-1.5v-18A1.5 1.5 0 0 0 16 .58zm0 19a.5.5 0 0 1-.5.5h-13a.5.5 0 0 1-.5-.5v-17a.5.5 0 0 1 .5-.5h13a.5.5 0 0 1 .5.5v17zm-5.75-2.5h-2.5a.75.75 0 1 0 0 1.5h2.5a.75.75 0 1 0 0-1.5zm3.75-14H4a1 1 0 0 0-1 1v11a1 1 0 0 0 1 1h10a1 1 0 0 0 1-1v-11a1 1 0 0 0-1-1zm0 11.5a.5.5 0 0 1-.5.5h-9a.5.5 0 0 1-.5-.5v-10a.5.5 0 0 1 .5-.5h9a.5.5 0 0 1 .5.5v10z" fill="#F76260" fill-rule="evenodd"/></svg>