<svg width="22" height="18" viewBox="0 0 22 18" xmlns="http://www.w3.org/2000/svg" xmlns:xlink="http://www.w3.org/1999/xlink"><defs><path d="M448.467 1751.268h2.62v1.676h-3.695v3.007h-1.59v1.075h5.285v2.363h1.161v-2.363h3.91v-1.075h-3.91v-1.976h3.222v-1.031h-3.222v-1.675h3.48v-1.032h-6.66c.172-.315.344-.658.516-1.031l-1.29-.128c-.602 1.433-1.417 2.606-2.448 3.523.2.286.343.501.43.644.113.173.2.301.256.387.802-.803 1.447-1.59 1.935-2.364zm2.62 2.707v1.976h-2.534v-1.976h2.534zm10.161-2.974a.75.75 0 0 1-.749-.751v-1a.75.75 0 0 1 1.5 0v1a.75.75 0 0 1-.75.751zm0 3.499a.75.75 0 0 1-.749-.749v-1a.75.75 0 0 1 1.5 0v1a.75.75 0 0 1-.75.749zm0 4.001a.75.75 0 0 1-.749-.751v-.998a.75.75 0 1 1 1.5 0v.998a.75.75 0 0 1-.75.751zm0 1.5a.75.75 0 0 1 .752.75.73.73 0 0 1-.05.25h.05a1.5 1.5 0 0 1-1.5 1.499h-19.001A1.5 1.5 0 0 1 440 1761v-14c0-.828.67-1.5 1.499-1.5h19c.54 0 1.008.286 1.272.714.14.136.228.325.228.537 0 .03-.013.053-.016.082.006.055.017.111.017.168h-.05a.748.748 0 0 1-.702.5.746.746 0 0 1-.7-.5H442a.5.5 0 0 0-.5.5v13a.5.5 0 0 0 .5.499h16.5v.002h2.05a.73.73 0 0 1-.05-.251.75.75 0 0 1 .75-.75z" id="a"/></defs><use fill="#F2A049" xlink:href="#a" transform="translate(-440 -1745)" fill-rule="evenodd"/></svg>