<svg width="22" height="18" viewBox="0 0 22 18" xmlns="http://www.w3.org/2000/svg"><path d="M20 .5H2A1.5 1.5 0 0 0 .5 2v14A1.5 1.5 0 0 0 2 17.5h18a1.5 1.5 0 0 0 1.5-1.5V2A1.5 1.5 0 0 0 20 .5zm0 15a.5.5 0 0 1-.5.5h-17a.5.5 0 0 1-.5-.5v-13a.5.5 0 0 1 .5-.5h17a.5.5 0 0 1 .5.5v13zM18 4h-3a.5.5 0 0 0-.5.5v3a.5.5 0 0 0 .5.5h3a.5.5 0 0 0 .5-.5v-3A.5.5 0 0 0 18 4zm-.5 2.5a.5.5 0 0 1-.5.5h-1a.5.5 0 0 1-.5-.5v-1A.5.5 0 0 1 16 5h1a.5.5 0 0 1 .5.5v1zm-5 4.5H5a.5.5 0 0 0-.5.5v.5a.5.5 0 0 0 .5.5h7.5a.5.5 0 0 0 .5-.5v-.5a.5.5 0 0 0-.5-.5zm0-4.5H5a.5.5 0 0 0-.5.5v.5A.5.5 0 0 0 5 8h7.5a.5.5 0 0 0 .5-.5V7a.5.5 0 0 0-.5-.5z" fill="#F76260" fill-rule="evenodd"/></svg>