<svg width="21" height="22" viewBox="0 0 21 22" xmlns="http://www.w3.org/2000/svg"><path d="M17.046 9c.104.29.378.5.704.5.326 0 .601-.21.704-.5h.046V2A1.5 1.5 0 0 0 17 .5H2A1.5 1.5 0 0 0 .5 2v18A1.5 1.5 0 0 0 2 21.5h15a1.5 1.5 0 0 0 1.5-1.5v-2h-.046a.744.744 0 0 0 .046-.25.75.75 0 1 0-1.454.25H17v1.5a.5.5 0 0 1-.5.5h-14a.5.5 0 0 1-.5-.5v-17a.5.5 0 0 1 .5-.5h14a.5.5 0 0 1 .5.5V9h.046zM15 11.25a.75.75 0 0 0-.75-.75h-9.5a.75.75 0 1 0 0 1.5h9.5a.75.75 0 0 0 .75-.75zM14.25 6h-9.5a.75.75 0 1 0 0 1.5h9.5a.75.75 0 1 0 0-1.5zm-9.5 9a.75.75 0 1 0 0 1.5h4.5a.75.75 0 1 0 0-1.5h-4.5zm15.215-4.716a.75.75 0 0 0-1.048.168l-3.98 5.327-2.209-2.245a.75.75 0 0 0-1.07 1.051l2.805 2.852a.75.75 0 0 0 1.06.01c.052-.052.083-.113.117-.173a.746.746 0 0 0 .183-.176l4.309-5.768a.748.748 0 0 0-.168-1.046z" fill="#F76260" fill-rule="evenodd"/></svg>