<svg width="23" height="20" viewBox="0 0 23 20" xmlns="http://www.w3.org/2000/svg" xmlns:xlink="http://www.w3.org/1999/xlink"><defs><path d="M151.189 1763.691c-6.076 0-11-4.254-11-9.5 0-5.247 4.924-9.5 11-9.5 6.074 0 10.999 4.253 10.999 9.5 0 5.246-4.924 9.5-10.999 9.5zm0-17.5c-5.248 0-9.5 3.582-9.5 8s4.253 8 9.5 8c5.246 0 9.5-3.582 9.5-8s-4.254-8-9.5-8zm5.249 5.776c-1.203-.63-2.25-1.532-3.138-2.707l.215-.473-1.16-.086a7.891 7.891 0 0 1-2.878 3.18v-.989h-1.075v-2.105h-1.075v2.105h-1.202v.988h1.202a14.081 14.081 0 0 1-1.416 3.223c.113.602.2 1.104.257 1.505.517-.832.903-1.662 1.16-2.493v4.94h1.075v-4.769l.816.817.558-.945a127.62 127.62 0 0 0-1.375-1.118v-1.16h1.032a1.644 1.644 0 0 1-.387.215c.2.344.387.688.559 1.031a2.27 2.27 0 0 0 .215-.128c.258-.2.458-.358.601-.473v.903h4.641v-.989c.027.029.07.057.129.085.314.23.572.387.772.473.144-.344.3-.687.474-1.03zm-.302 6.574v-.903h-1.59c.2-.515.459-1.26.774-2.233.171-.487.301-.86.386-1.118l-1.031-.257a6.444 6.444 0 0 0-.214.73c-.374 1.289-.675 2.25-.904 2.878h-4.339v.903h6.918zm-1.073-6.101h-4.512c.888-.717 1.618-1.49 2.191-2.322.573.832 1.346 1.605 2.321 2.322zm-3.524 4.511a31.351 31.351 0 0 0-.859-2.75l-.947.216c.287.916.56 1.846.817 2.793l.988-.259zm1.934-.387a40.273 40.273 0 0 0-.602-2.62l-.988.17c.285 1.004.5 1.877.643 2.622l.947-.172z" id="a"/></defs><use fill="#F2A049" xlink:href="#a" transform="translate(-140 -1744)" fill-rule="evenodd"/></svg>