<svg width="23" height="21" viewBox="0 0 23 21" xmlns="http://www.w3.org/2000/svg" xmlns:xlink="http://www.w3.org/1999/xlink"><defs><path d="M245.189 1972.628c.007-3.207 2.735-5.502 5.92-5.5h6.131c3.15-.002 5.885 2.352 5.943 5.5h1.005a.5.5 0 0 1 .5.5v1.5a.5.5 0 0 1-.5.5h-1.045l-.002.132c0 .122-.013.246-.02.369h.069c.949 0 2 1.082 2 1.999v6c-.002.61-.438 1.259-1.002 1.647v.852a1 1 0 0 1-1 1h-2.498a1 1 0 0 1-1-1v-.5h-11v.5a1 1 0 0 1-1 1h-2.501a1 1 0 0 1-.999-1v-.852c-.563-.388-1-1.038-1-1.647v-6c0-.886 1.114-2 1.999-2v-.5h-1a.5.5 0 0 1-.5-.5v-1.5a.5.5 0 0 1 .5-.5h1zm8.441 6.786l-2.713-2.752a.75.75 0 1 0-1.07 1.05l3.305 3.353a.75.75 0 0 0 1.197-.173.753.753 0 0 0 .165-.167l4.808-6.266a.753.753 0 0 0-.168-1.049.752.752 0 0 0-1.048.17l-4.476 5.834zm10.058-1.286a1 1 0 0 0-1-1h-.5c0-.277-.222-.5-.498-.5v-5c0-.967-2.276-3-3.361-3h-8.28c-1.192 0-3.361 1.915-3.361 3v5a.5.5 0 0 0-.5.5h-.5c-.3 0-.998.698-.998 1v5c0 .232.267.571.548.789a.495.495 0 0 0 .45.71v.5a.5.5 0 0 0 .5.5h.5a.5.5 0 0 0 .5-.5v-.5c.276 0 .5-.222.5-.498h12.986l.015-.002a.5.5 0 0 0 .5.5v.5a.5.5 0 0 0 .5.5h.498a.5.5 0 0 0 .5-.5v-.5a.5.5 0 0 0 .5-.5.478.478 0 0 0-.07-.241c.28-.232.57-.571.57-.757v-5.001h.001z" id="a"/></defs><use fill="#F2A049" xlink:href="#a" transform="translate(-243 -1967)" fill-rule="evenodd"/></svg>