<svg width="20" height="22" viewBox="0 0 20 22" xmlns="http://www.w3.org/2000/svg" xmlns:xlink="http://www.w3.org/1999/xlink"><defs><path d="M108.999 1022.286v.57a.5.5 0 0 1-.5.5h-2a.5.5 0 0 1-.499-.5v-.5H96v.5a.5.5 0 0 1-.5.5h-2a.5.5 0 0 1-.5-.5v-.57a1.995 1.995 0 0 1-1.5-1.928v-16.002a2 2 0 0 1 2-1.999h15a2 2 0 0 1 2 2v16a1.997 1.997 0 0 1-1.501 1.93zm0-17.43a1 1 0 0 0-1-.998h-14a1 1 0 0 0-1 .999v15a1 1 0 0 0 1 1h13.999a1 1 0 0 0 1-1v-15zm-1.26 10.496H94.243a.75.75 0 0 1 0-1.5h13.496a.75.75 0 1 1 0 1.5zm-12.24 1.005a1.5 1.5 0 1 1 0 3 1.5 1.5 0 0 1 0-3zm10.999 0a1.5 1.5 0 1 1 0 3 1.5 1.5 0 0 1 0-3zm-1.499-4a1 1 0 0 0-1 1h-1a1.999 1.999 0 0 1 4 0H106a1 1 0 0 0-1-1z" id="a"/></defs><use fill="#F76260" xlink:href="#a" transform="translate(-91 -1002)" fill-rule="evenodd"/></svg>