<svg width="22" height="23" viewBox="0 0 22 23" xmlns="http://www.w3.org/2000/svg"><path d="M3.266 17.687L.867 16.94c-1.206-.376-.679-2.026.074-2.438L13.607 7.56V2.07h-2.065v-.044a.786.786 0 0 1-.516-.741c0-.342.215-.633.516-.741V.5h.645c2.352.647 1.445 0 .387 0h-.387 4.775a.78.78 0 0 1 .775.786.78.78 0 0 1-.775.786h-1.915.109v4.64l1.683-.923a1.537 1.537 0 0 1 2.099.637l2.381 5.37c.442.877.306 1.512.04 1.655 0 0-.166.1-.456.271l.227.437c.4.767.11 1.718-.646 2.124L8.696 22.607a1.538 1.538 0 0 1-2.093-.655l-.284-.544-1.083.435a.513.513 0 0 1-.67-.294l-1.331-3.41a.531.531 0 0 1 .03-.452zm2.569 2.789l-1.161-2.23a1.57 1.57 0 0 1-.02-.04.53.53 0 0 0-.079.521l.57 1.462c.106.269.406.4.671.294l.019-.007zm.959-1.692l1.477.46c1.391.448 1.856.596 3.25-.11.85-.388 5.7-3.236 8.258-4.747l.053.091a.543.543 0 0 1-.208.683l-10.82 5.894c-.679.405-.736.148-.987-.307l-1.023-1.964zm11.946-5.599c-1.79.9-6.345 3.541-9.028 4.864-1.416-.418-6.373-1.983-6.91-2.15-.363-.113-.39-.321.524-.805l13.17-6.992c1.056-.569 1.198-.003 1.48.46 0 0 .896 1.616 1.37 2.62.472 1.002.604 1.394-.606 2.003z" fill="#F2A049" fill-rule="evenodd"/></svg>