<svg width="22" height="21" viewBox="0 0 22 21" xmlns="http://www.w3.org/2000/svg" xmlns:xlink="http://www.w3.org/1999/xlink"><defs><path d="M155.118 1022.259h-1.5v-18a1 1 0 0 0-1-1h-3a1 1 0 0 0-.999 1v18h-1.501v-7a1 1 0 0 0-1-1h-3a1 1 0 0 0-1 1v7h-1a.5.5 0 0 0-.5.5v.5a.5.5 0 0 0 .5.5h20a.5.5 0 0 0 .5-.5v-.5a.5.5 0 0 0-.5-.5h-1v-12.5a1 1 0 0 0-1-1h-3.001a1 1 0 0 0-.999 1v12.5zm3.5 0v-12h-2.001v12h2zm-6.5 0v-17.5h-2v17.5h2zm-6.5 0v-6.501h-2v6.5h2z" id="a"/></defs><use fill="#F76260" xlink:href="#a" transform="translate(-140 -1003)" fill-rule="evenodd"/></svg>