<svg width="36" height="46" viewBox="0 0 36 46" xmlns="http://www.w3.org/2000/svg"><path d="M31.381 4.043l-.008-.053a.998.998 0 0 0-1.138-.839l-10.879.892h12.025zm-28.98.06a.457.457 0 0 1 .066-.015L30.775.033a3.004 3.004 0 0 1 3.416 2.52l.283 1.877A3 3 0 0 1 36 7.043v35a3 3 0 0 1-3 3H3a3 3 0 0 1-3-3v-35a3 3 0 0 1 2.401-2.94zM33 8.043a1 1 0 0 0-1-1H4.001a1 1 0 0 0-1 1v33a1 1 0 0 0 1 1H32a1 1 0 0 0 1-1v-33zM12.949 34.04c-.415 1.666-.854 3.52-1.311 5.562l-1.627-.439c.46-1.415.938-3.29 1.439-5.625.332.167.833.335 1.499.502zm.251-3.064l-1.063 1.251c-.418-.376-1-.875-1.75-1.5a6.817 6.817 0 0 0-.624-.563l1.062-1.125c.79.624 1.583 1.272 2.375 1.937zm-3.001-4.875l1.063-1.126a64.52 64.52 0 0 1 1.875 1.44c.292.207.501.372.624.498l-1.123 1.25c-.961-.874-1.773-1.56-2.439-2.062zm5.939 5.064V30.04h2.374v-2.25h1.314v2.25H22.2v1.126h-2.374v.938l.499-.627c.917.501 1.666.92 2.251 1.251l-.687.938c-.418-.29-.979-.646-1.687-1.063l-.376-.188v1.313h-1.314V32.23c-.582.583-1.29 1.146-2.123 1.687a10.581 10.581 0 0 1-.752-1c.917-.415 1.752-1 2.502-1.75h-2.001zm6.562-3.75h-7.064v6.875h-1.499v-8.124h3.126c.125-.499.248-.979.374-1.437l1.75.123-.436 1.313H24.2v8.124h-1.499v-6.873H22.7zm-1.75 2.373l-.75-.687c.415-.415.812-.833 1.186-1.25l.875.686-.624.627c-.292.251-.522.46-.687.624zm-4.938-1.25l.875-.625.439.44c.332.29.582.54.75.748l-.812.687a9.006 9.006 0 0 0-1.252-1.25zm8.876 9.75l-.376.75c-.167.25-.271.438-.313.564-2.666-.5-4.353-1.334-5.061-2.502-.668 1.21-2.439 2.084-5.314 2.627a39.813 39.813 0 0 1-.436-.689 5.956 5.956 0 0 0-.313-.562c2.958-.5 4.583-1.23 4.875-2.188h-4.437V35.04h4.75c.039-.167.062-.48.062-.938h1.624l-.062.938h4.938v1.248H20.2c.542 1 2.103 1.666 4.688 2zM10.826 10.541a82.103 82.103 0 0 1-.627-.815l1.439-.75 2 2.376-1.439.938c-.292-.417-.749-.999-1.373-1.749zm2.374 4.935l-1.437.938a66.9 66.9 0 0 0-2-2.562l1.373-.75a37.97 37.97 0 0 1 2.064 2.374zm10.999 3.565c-.917-.543-1.687-1.125-2.311-1.752v3.125h-5.437v.687c-.042.627.29.917 1 .875h3.873c.752.042 1.167-.206 1.251-.75.042-.164.104-.478.188-.938a4.1 4.1 0 0 1 .125-.56c.457.208.917.372 1.374.498a9.385 9.385 0 0 1-.373 1.69c-.251.955-1 1.436-2.251 1.436h-4.75c-1.251-.042-1.896-.648-1.938-1.812v-3.25c-.46.375-.938.751-1.436 1.124a3.274 3.274 0 0 0-.251-.624 4.34 4.34 0 0 0-.313-.627l-1.248 5.44-1.627-.439c.501-1.583.958-3.458 1.376-5.625.165.042.395.104.687.188.334.125.564.21.687.251v-.062a10.103 10.103 0 0 0 3.377-3.126H13.39v-1.314h2.562v-1.75h-1.938v-1.31h1.938V8.787h1.562v1.627h2.812V8.788h1.564v1.627h2.248v1.311H21.89v1.75h2.812v1.314h-3.063c.79 1.21 1.894 2.146 3.312 2.812l-.752 1.44zm-7.748.185h3.935v-1.562h-3.935v1.562zm3.687-4.248a.77.77 0 0 0-.125-.188h-2.126a15.95 15.95 0 0 1-1.188 1.624h4.439c-.25-.248-.585-.729-1-1.436zm.186-3.252h-2.812v1.75h2.812v-1.75z" fill="#10AEFF" fill-rule="evenodd"/></svg>