<svg width="21" height="21" viewBox="0 0 21 21" xmlns="http://www.w3.org/2000/svg"><path d="M20.823 7.721V1.25a.753.753 0 0 0-.042-.25.747.747 0 0 0-.7-1L.745.001c-.324 0-.6.209-.702.5H0v20h.044c.102.29.378.5.702.5H20.08a.75.75 0 0 0 .743-.75v-6.338c.038-.126.068-.24.094-.335.03-.109.053-.21.083-.286l-.177-.069v-4.81c.038-.126.068-.24.094-.334.03-.111.053-.211.083-.288l-.177-.069zM1.5 10.244v2.872c.41-.362.902-.617 1.476-.617 1.297 0 2.002.672 2.68 1.32.63.6 1.238 1.18 2.28 1.18 1.007 0 1.542-.544 2.113-1.127.65-.662 1.345-1.373 2.843-1.373 1.534 0 2.354.776 3.085 1.464.578.546 1.1 1.036 1.872 1.036.9 0 1.272-.666 1.487-1.31v-3.077c-.391.237-.878.389-1.487.389-1.36 0-2.207-.801-2.89-1.442-.715-.677-1.164-1.059-2.067-1.059-.877 0-1.201.33-1.787.927-.65.664-1.54 1.573-3.17 1.573-1.633 0-2.598-.921-3.3-1.591-.645-.616-.984-.91-1.659-.91-.499 0-1.151.957-1.476 1.745zm0-2.628V1.5h17.836v6.687c-.215.645-.586 1.313-1.487 1.313-.772 0-1.294-.492-1.872-1.038-.73-.689-1.551-1.464-3.085-1.464-1.498 0-2.193.711-2.843 1.374-.571.58-1.106 1.128-2.114 1.128-1.04 0-1.649-.582-2.28-1.183-.677-.647-1.382-1.319-2.679-1.319-.574 0-1.067.255-1.476.617zm0 8.129v3.754h17.836v-3.387c-.391.237-.878.388-1.487.388-1.36 0-2.207-.8-2.89-1.442-.715-.677-1.164-1.059-2.067-1.059-.877 0-1.201.33-1.787.929-.65.663-1.54 1.572-3.17 1.572-1.633 0-2.598-.92-3.3-1.591-.645-.615-.984-.91-1.659-.91-.499 0-1.151.956-1.476 1.746z" fill="#F76260" fill-rule="evenodd"/></svg>