<svg width="21" height="22" viewBox="0 0 21 22" xmlns="http://www.w3.org/2000/svg"><path d="M16 .5H2A1.5 1.5 0 0 0 .5 2v18A1.5 1.5 0 0 0 2 21.5h12.5v-.046c.29-.103.5-.377.5-.704a.75.75 0 0 0-.5-.704V20h-12a.5.5 0 0 1-.5-.5v-17a.5.5 0 0 1 .5-.5h13a.5.5 0 0 1 .5.5v5h.046a.747.747 0 0 0 1.408 0h.046V2A1.5 1.5 0 0 0 16 .5zM11.5 6h-7a.5.5 0 0 0-.5.5V7a.5.5 0 0 0 .5.5h7A.5.5 0 0 0 12 7v-.5a.5.5 0 0 0-.5-.5zm-7 6h5a.5.5 0 0 0 .5-.5V11a.5.5 0 0 0-.5-.5h-5a.5.5 0 0 0-.5.5v.5a.5.5 0 0 0 .5.5zm5.5 3H4.5a.5.5 0 0 0-.5.5v.5a.5.5 0 0 0 .5.5H10a.5.5 0 0 0 .5-.5v-.5a.5.5 0 0 0-.5-.5zm6.354-5.718a4 4 0 0 0-3.333 6.208h-.01l3.359 4.534 3.036-4.16a4 4 0 0 0-3.051-6.583zm2.064 5.419l-2.031 2.816-2.031-2.743a2.48 2.48 0 0 1-.5-1.492 2.5 2.5 0 1 1 4.555 1.419h.007zm-2.006-.383a.912.912 0 1 0 0-1.823.912.912 0 0 0 0 1.823z" fill="#09BB07" fill-rule="evenodd"/></svg>