<svg width="22" height="17" viewBox="0 0 22 17" xmlns="http://www.w3.org/2000/svg" xmlns:xlink="http://www.w3.org/1999/xlink"><defs><path d="M109.808 1984.938H97.306a1.5 1.5 0 0 1-1.5-1.5v-1.678l-2.599 1.225c-.176.245-.569.419-1.034.446-.026.005-.053.005-.082.006l-.034.002c-.567 0-1.04-.228-1.193-.54a.739.739 0 0 1-.557-.71v-10.5a.74.74 0 0 1 .557-.711c.154-.31.626-.539 1.193-.539.025 0 .047.003.072.005.038.002.075 0 .114.006.423.037.773.203.947.427l2.617 1.282v-1.72a1.5 1.5 0 0 1 1.5-1.5h12.5a1.5 1.5 0 0 1 1.499 1.5v13c0 .828-.67 1.5-1.498 1.5zm0-14a.5.5 0 0 0-.5-.5H97.806a.5.5 0 0 0-.5.5v2.501h-.344c-.017.051-.024.101-.051.15a.751.751 0 0 1-1.025.274l-4.08-1.849v9.94c.081-.01.165-.014.25-.014.02 0 .039.003.058.003l4.077-1.918a.773.773 0 0 1 1.017.253c.03.052.041.106.057.161h.041v2.5a.5.5 0 0 0 .5.5h11.5a.5.5 0 0 0 .5-.5v-12zm-2.501 7h-7.5a1 1 0 0 1-1-1v-2a1 1 0 0 1 1-.999h7.5a1 1 0 0 1 1 .999v2a1 1 0 0 1-1 1zm-1-2.5h-5.5a.5.5 0 0 0 0 1h5.5a.5.5 0 0 0 0-1z" id="a"/></defs><use fill="#F2A049" xlink:href="#a" transform="translate(-90 -1968)" fill-rule="evenodd"/></svg>