<svg width="19" height="21" viewBox="0 0 19 21" xmlns="http://www.w3.org/2000/svg"><path d="M16.75 13a.748.748 0 0 0-.704.5H16V19a.5.5 0 0 1-.5.5h-13A.5.5 0 0 1 2 19V2a.5.5 0 0 1 .5-.5h13a.5.5 0 0 1 .5.5v1.5h.046c.104.29.378.5.704.5.326 0 .601-.21.704-.5h.046v-2A1.5 1.5 0 0 0 16 0H2A1.5 1.5 0 0 0 .5 1.5v18A1.5 1.5 0 0 0 2 21h14a1.5 1.5 0 0 0 1.5-1.5v-6h-.046a.748.748 0 0 0-.704-.5zM11 13a.5.5 0 0 0-.5-.5h-6a.5.5 0 1 0 0 1h6a.5.5 0 0 0 .5-.5zm1-3.5H4.5a.5.5 0 1 0 0 1H12a.5.5 0 1 0 0-1zm6.198-4.234l-.464-.215a.51.51 0 0 0-.678.25l-4.502 9.751a.512.512 0 0 0 .249.679l.463.215a.51.51 0 0 0 .679-.25l4.502-9.75a.512.512 0 0 0-.25-.68zM9 3a.5.5 0 0 0-.5.5v1h-1A.5.5 0 0 0 7 5v.5a.5.5 0 0 0 .5.5h1v1a.5.5 0 0 0 .5.5h.5A.5.5 0 0 0 10 7V6h1a.5.5 0 0 0 .5-.5V5a.5.5 0 0 0-.5-.5h-1v-1a.5.5 0 0 0-.5-.5H9zM4.5 15.5a.5.5 0 1 0 0 1H9a.5.5 0 1 0 0-1H4.5zm7.438.497l-.442 2.266.519.234 1.478-1.795s-1.211-.55-1.496-.678l-.06-.027z" fill="#F76260" fill-rule="evenodd"/></svg>