<svg width="19" height="22" viewBox="0 0 19 22" xmlns="http://www.w3.org/2000/svg"><path d="M19 10.717V10.5c0-.037-.008-.072-.01-.109C18.864 4.622 15.72 0 9.502 0 3.495 0 .172 4.588.017 10.328c-.006.057-.017.114-.017.172V16a1.5 1.5 0 0 0 1.5 1.5H4A1.5 1.5 0 0 0 5.5 16v-5.5A1.5 1.5 0 0 0 4 9H1.59c.452-4.275 2.689-7.508 7.912-7.508 5.231 0 7.46 3.233 7.911 7.508H15a1.5 1.5 0 0 0-1.5 1.5V16a1.5 1.5 0 0 0 1.5 1.5h2.5A1.5 1.5 0 0 0 19 16v-5.23l.001-.024v-.029zM2 10.5h1.5a.5.5 0 0 1 .5.5v4.5a.5.5 0 0 1-.5.5H2a.5.5 0 0 1-.5-.5V11a.5.5 0 0 1 .5-.5zm15.5 5a.5.5 0 0 1-.5.5h-1.5a.5.5 0 0 1-.5-.5V11a.5.5 0 0 1 .5-.5H17a.5.5 0 0 1 .5.5v4.5zm-1.409 2c-.373.699-.771 1.273-1.184 1.594-.639.498-1.57.381-2.277.37A1.957 1.957 0 0 0 10.743 18a1.965 1.965 0 0 0-1.961 1.97c0 1.087.878 1.968 1.961 1.968.766 0 1.423-.446 1.746-1.089.84.051 2.073-.05 3.024-.598.768-.443 1.447-1.499 2.028-2.75h-1.45zm-5.349 3.313a.84.84 0 0 1-.836-.844.84.84 0 0 1 .836-.844.84.84 0 0 1 .836.844.84.84 0 0 1-.835.844z" fill="#F76260" fill-rule="evenodd"/></svg>