<svg width="21" height="22" viewBox="0 0 21 22" xmlns="http://www.w3.org/2000/svg"><path d="M21 7.258a.747.747 0 0 0-.216-.526.741.741 0 0 0-.213-.492L15.268.937a.739.739 0 0 0-.48-.21.748.748 0 0 0-.535-.227h-7.5a.748.748 0 0 0-.517.209.742.742 0 0 0-.506.214L.427 6.226a.746.746 0 0 0-.216.511.746.746 0 0 0-.211.52v7.5c0 .198.078.375.201.51a.747.747 0 0 0 .218.518l5.303 5.305a.75.75 0 0 0 .534.218.745.745 0 0 0 .497.192h7.5c.201 0 .382-.08.517-.208a.743.743 0 0 0 .506-.215l5.303-5.303a.744.744 0 0 0 .214-.501.745.745 0 0 0 .207-.514V7.258zM14.23 20H6.755L1.5 14.745v-7.47L6.775 2h7.435l5.29 5.29v7.442L14.23 20zM10.5 3.5a7.5 7.5 0 1 0 0 15 7.5 7.5 0 0 0 0-15zM15.696 14a5.97 5.97 0 0 0 .461-1H4.841c.155.44.36.855.608 1.24A.748.748 0 0 1 6 14h9.698zm-1.229 1.5A5.977 5.977 0 0 1 10.5 17a5.977 5.977 0 0 1-3.968-1.5h7.937zm2.011-4a6.08 6.08 0 0 0 0-1h-3.98a.75.75 0 1 1 0-1.5h3.659a5.971 5.971 0 0 0-.474-1.023.753.753 0 0 1-.185.023h-3a.75.75 0 1 1 0-1.5h1.97a5.977 5.977 0 0 0-3.97-1.5c-1.521 0-2.91.566-3.968 1.5h2.468A.75.75 0 1 1 9 8H6a.748.748 0 0 1-.55-.24A5.976 5.976 0 0 0 4.841 9h4.158a.75.75 0 1 1 0 1.5H4.52a6.08 6.08 0 0 0 0 1h11.959z" fill="#F76260" fill-rule="evenodd"/></svg>