<svg width="20" height="22" viewBox="0 0 20 22" xmlns="http://www.w3.org/2000/svg" xmlns:xlink="http://www.w3.org/1999/xlink"><defs><path d="M156.353 2048.894c-.145-2.152-1.476-3.281-3.991-3.39h-4.759v11.21h1.751v-4.21h2.844c2.733-.037 4.118-1.24 4.155-3.61zm3.148-7h-3a.499.499 0 0 1-.5-.5v-.498a.5.5 0 0 1 .5-.5h4a.499.499 0 0 1 .5.5v4a.5.5 0 0 1-.5.5h-.5a.5.5 0 0 1-.5-.5v-3.001zm.75 19.501h.25a.5.5 0 0 0 .5-.5v-4a.5.5 0 0 0-.5-.5h-.5a.5.5 0 0 0-.5.5v3h-3a.5.5 0 0 0-.5.5v.5a.5.5 0 0 0 .5.5h3.75zm-19.25-1.022v-3.477a.5.5 0 0 1 .5-.5h.5a.5.5 0 0 1 .5.5v3h2.999a.5.5 0 0 1 .5.5v.5a.5.5 0 0 1-.5.5h-4a.5.5 0 0 1-.5-.5v-.5a.51.51 0 0 1 0-.023zm0-18.956v3.478a.5.5 0 0 0 .5.5h.5a.5.5 0 0 0 .5-.5v-3h2.999c.276 0 .5-.222.5-.5v-.499a.5.5 0 0 0-.5-.5h-4a.5.5 0 0 0-.5.5v.521zm13.548 7.532c-.037 1.42-.894 2.15-2.57 2.187h-2.625v-4.265h2.624c1.641.035 2.498.728 2.571 2.078z" id="a"/></defs><use fill="#F2A049" xlink:href="#a" transform="translate(-141 -2040)" fill-rule="evenodd"/></svg>