<svg width="20" height="21" viewBox="0 0 20 21" xmlns="http://www.w3.org/2000/svg"><path d="M14.75 21H2.5A2.5 2.5 0 0 1 0 18.5v-17A1.5 1.5 0 0 1 1.5 0H15a1.5 1.5 0 0 1 1.5 1.5V10h2a1.5 1.5 0 0 1 1.5 1.5v7a2.5 2.5 0 0 1-2.5 2.5h-2.75zm2.225-1.5a1.254 1.254 0 0 0-.475-.745V11.5H18a.5.5 0 0 1 .5.5v6a1.5 1.5 0 0 1-1.525 1.5zM1.5 12.855V18A1.5 1.5 0 0 0 3 19.5h1c.177 0 .343-.036.5-.092v.092H15V2a.5.5 0 0 0-.5-.5H2a.5.5 0 0 0-.5.5v10.855zM4 6.5h6.5A.5.5 0 0 0 11 6v-.5a.5.5 0 0 0-.5-.5H4a.5.5 0 0 0-.5.5V6a.5.5 0 0 0 .5.5zm8 3H4a.5.5 0 0 0-.5.5v.5a.5.5 0 0 0 .5.5h8a.5.5 0 0 0 .5-.5V10a.5.5 0 0 0-.5-.5zm0 4.5H4a.5.5 0 0 0-.5.5v.5a.5.5 0 0 0 .5.5h8a.5.5 0 0 0 .5-.5v-.5a.5.5 0 0 0-.5-.5z" fill="#F76260" fill-rule="evenodd"/></svg>