<svg width="20" height="21" viewBox="0 0 20 21" xmlns="http://www.w3.org/2000/svg"><path d="M7.332 3.276A.5.5 0 0 1 7.75 2.5h4.5a.5.5 0 0 1 .383.822C17.138 4.376 20 7.902 20 12.257 20 16.838 17.865 21 10.03 21 2.414 21 .002 17.125 0 11.743c-.002-4.18 3.22-7.513 7.332-8.467zM13.25.5h-6.5a.5.5 0 0 0-.5.5v.5a.5.5 0 0 0 .5.5h6.5a.5.5 0 0 0 .5-.5V1a.5.5 0 0 0-.5-.5zM9.743 19.504c-5.929 0-8.193-3.291-8.236-7.246-.047-4.295 4.305-7.762 8.75-7.762 4.06 0 8.236 3.832 8.236 7.762 0 4.424-2.816 7.246-8.75 7.246zM12.25 13.5a.5.5 0 0 0 .5-.5v-.5a.5.5 0 0 0-.5-.5h-.965l.869-2.35c.193-.366.078-.833-.256-1.044-.335-.212-.763-.087-.957.28l-1.006 2.723-1.158-2.684a.75.75 0 1 0-1.3.75l1.004 2.326H7.75a.5.5 0 0 0-.5.5v.5a.5.5 0 0 0 .5.5h1.5v1h-1.5a.5.5 0 0 0-.5.5v.5a.5.5 0 0 0 .5.5h1.5v1.5a.5.5 0 0 0 .5.5h.5a.5.5 0 0 0 .5-.5V16h1.5a.5.5 0 0 0 .5-.5V15a.5.5 0 0 0-.5-.5h-1.5v-1h1.5z" fill="#F76260" fill-rule="evenodd"/></svg>