<svg width="22" height="20" viewBox="0 0 22 20" xmlns="http://www.w3.org/2000/svg" xmlns:xlink="http://www.w3.org/1999/xlink"><defs><path d="M109.022 1894.198l-.025-.185a.498.498 0 0 0-.561-.43l-5.779.615h6.365zm-15.722 0l15.5-1.671a.998.998 0 0 1 1.123.86l.129.971a1.5 1.5 0 0 1 .824 1.34v14c0 .829-.67 1.5-1.499 1.5h-18a1.5 1.5 0 0 1-1.5-1.5v-14a1.5 1.5 0 0 1 1.5-1.5H93.3zm16.078 2a.5.5 0 0 0-.5-.5h-17a.5.5 0 0 0-.5.5v13a.5.5 0 0 0 .5.5h17a.5.5 0 0 0 .5-.5v-13zm-6.003 7.68c-1.09.745-1.906 1.547-2.45 2.405h4.555v.988h-6.145v-.73c.602-1.116 1.519-2.148 2.75-3.093 1.462-1.031 2.134-1.861 2.02-2.493-.028-.973-.573-1.474-1.633-1.503-.944 0-1.546.558-1.804 1.675l-1.204-.386c.43-1.575 1.505-2.363 3.224-2.363 1.746.058 2.677.874 2.793 2.449.142 1.031-.56 2.048-2.106 3.051zm-7.177 3.436v-6.874c-.659.63-1.561 1.188-2.707 1.675v-1.16c1.489-.686 2.493-1.531 3.008-2.534h.988v8.894h-1.288z" id="a"/></defs><use fill="#F2A049" xlink:href="#a" transform="translate(-89 -1892)" fill-rule="evenodd"/></svg>