<svg width="21" height="21" viewBox="0 0 21 21" xmlns="http://www.w3.org/2000/svg" xmlns:xlink="http://www.w3.org/1999/xlink"><defs><path d="M250.896 1683.883a7 7 0 0 0 8.405-10.469l-1.053 1.135.062.104-3.117 3.073c-.589.592-.446.768-1.413.053l-.366-.34c-.812-.75-.71-.758-.053-1.414l3.388-3.34-.097-.09.874-.944c-2.817-1.95-6.708-1.592-9.105.993a7 7 0 0 0-1.25 7.642l-6.391 4.963a1.501 1.501 0 0 0 0 2.121l2.976 2.976a1.502 1.502 0 0 0 2.121 0l5.019-6.463zm-1.373-.753a7.062 7.062 0 0 1-1.557-1.504l-5.771 4.33a.501.501 0 0 0 0 .707l2.269 2.268a.5.5 0 0 0 .706 0l4.353-5.8zm5.74-10.95a5.5 5.5 0 0 0-5.452 9.256 5.5 5.5 0 0 0 7.773-.29 5.484 5.484 0 0 0 1.347-4.877l-2.977 2.844c-.752.81-2.454.63-3.265-.173-1.438-1.328-1.677-2.549-.767-3.568l3.34-3.192z" id="a"/></defs><use fill="#F2A049" xlink:href="#a" transform="translate(-240 -1670)" fill-rule="evenodd"/></svg>