<svg width="23" height="15" viewBox="0 0 23 15" xmlns="http://www.w3.org/2000/svg" xmlns:xlink="http://www.w3.org/1999/xlink"><defs><path d="M296.201 1684.906v2.337h-6.252v-13.815h6.006v2.336h-3.322v3.177h3.157v2.235h-3.157v3.73h3.568zm5.39-8.998v11.335h-2.683v-11.335h-2.44v-2.48h7.584v2.48h-2.46zm9.574.02c-.307-.143-.655-.267-1.25-.267-1.516 0-2.89 1.313-2.89 4.735 0 3.3 1.25 4.592 2.89 4.592.451 0 .963-.104 1.292-.206l.266 2.255c-.39.184-1.148.327-2.09.327-3.526 0-5.207-2.909-5.207-6.824 0-5.206 2.89-7.236 5.575-7.236.942 0 1.6.184 1.865.368l-.45 2.256z" id="a"/></defs><use fill="#F2A049" xlink:href="#a" transform="translate(-289 -1673)" fill-rule="evenodd"/></svg>