<svg width="43" height="43" viewBox="0 0 43 43" xmlns="http://www.w3.org/2000/svg" xmlns:xlink="http://www.w3.org/1999/xlink"><defs><path d="M812.506 1433.001c-1.336 0-2.611-.257-3.787-.714l-1.711 1.714-7.002-6.998 2-2.001.422.421a10.44 10.44 0 0 1-.422-2.922c0-5.799 4.699-10.501 10.5-10.501 1.521 0 2.963.328 4.264.91.066.442.055.94-.25 1.255-.645.665-5.311 5.329-5.311 5.329s-.477.814 0 1.441c.475.628 2.555 2.496 2.871 2.885.316.391 1.439 0 1.439 0l5.309-5.327c0 .001.684-.185 1.287-.221a10.47 10.47 0 0 1 .893 4.229c0 5.801-4.703 10.5-10.502 10.5zm-7.307 3.053l-14.955-14.953.77-.768-1.711-3.17-7.099-4.151-2.204 2.195 4.151 7.067 3.191 1.72.776-.773 14.915 14.917-.021.021v2.807c-.07 1.427-.07 2.735.705 3.508l9.969 9.936a1.994 1.994 0 0 0 2.816 0l4.926-4.911c.78-.776.78-2.03 0-2.807l-9.969-9.936c-.778-.773-2.323-.785-3.518-.702h-2.742zm11.807-10.052c-1.055 1.01-2.738 2.188-4 1.001-1.082-1.021-3.535-3.145-5.002-5.001-.746-.946-.285-2.669 1-4.001 1.568-1.615 3.002-3 3.002-3s-2.246-.165-5.998 4c-2.404 2.666-1 6.001-1 6.001l-1.002 2.001 3.002 2.997 1.996-1s3.535 3.102 7.002 0c3.078-2.753 4-5.998 4-5.998s-.752.845-3 3zm-16.287 14.466l-9.236 9.237a.994.994 0 0 1-.463.248c-.908 1.233-2.361 2.048-4.014 2.048a5 5 0 0 1-5-5.001c0-1.645.809-3.093 2.037-4.003a.965.965 0 0 1 .25-.481l9.236-9.237a1.018 1.018 0 0 1 1.439 0l5.75 5.75c.4.397.4 1.042.001 1.439zm-3.863-.612l-2.719-2.723a.483.483 0 0 0-.682 0l-7.367 7.375c-.055.054-.057.128-.082.196a2.366 2.366 0 0 0 1.365 4.297c.801 0 1.508-.403 1.934-1.013.064-.023.133-.023.184-.074l7.367-7.378a.479.479 0 0 0 0-.68zm20.592 7.178l-6.768-6.751c-.559-.555-1.451-.775-2.129-.89l-1.627-.388-.928.929.387 1.621c.156.814.334 1.567.891 2.123l6.771 6.753c.555.556 1.283.729 1.623.385l2.168-2.158c.344-.343.17-1.069-.388-1.624z" id="a"/></defs><use fill="#10AEFF" xlink:href="#a" transform="translate(-780 -1412)" fill-rule="evenodd"/></svg>