<svg width="20" height="22" viewBox="0 0 20 22" xmlns="http://www.w3.org/2000/svg"><path d="M5.469.5h-.5a.5.5 0 0 0-.5.5v3.5a.5.5 0 0 0 .5.5h.5a.5.5 0 0 0 .5-.5V1a.5.5 0 0 0-.5-.5zm9.5 0h-.5a.5.5 0 0 0-.5.5v3.5a.5.5 0 0 0 .5.5h.5a.5.5 0 0 0 .5-.5V1a.5.5 0 0 0-.5-.5zM13 2.276H7v1.5h6v-1.5zm5 0h-1.5v1.5h1a.5.5 0 0 1 .5.5v2.5H2v-2.5a.5.5 0 0 1 .5-.5h1v-1.5H2a1.5 1.5 0 0 0-1.5 1.5v16a1.5 1.5 0 0 0 1.5 1.5h16a1.5 1.5 0 0 0 1.5-1.5v-16a1.5 1.5 0 0 0-1.5-1.5zm0 17a.5.5 0 0 1-.5.5h-15a.5.5 0 0 1-.5-.5v-11h16v11zm-5.238-8.684l-3.138 4.73-2.303-2.32a.775.775 0 0 0-1.09-.009.762.762 0 0 0-.01 1.082l2.948 2.97c.021.02.05.03.073.048.014.014.021.032.037.045a.631.631 0 0 0 .641.096.75.75 0 0 0 .34-.18c.123-.12 3.617-5.57 3.617-5.57.223-.341.154-.817-.154-1.063s-.738-.17-.96.171z" fill="#F76260" fill-rule="evenodd"/></svg>