<svg width="22" height="20" viewBox="0 0 22 20" xmlns="http://www.w3.org/2000/svg" xmlns:xlink="http://www.w3.org/1999/xlink"><defs><path d="M158.618 1393.27h-1a2.48 2.48 0 0 1-2.066-1.116.534.534 0 0 1-.351-.482c-.249.06-.529.098-.833.098-.34 0-.651-.043-.92-.114a2.495 2.495 0 0 1-2.33 1.615h-1a2.497 2.497 0 0 1-2.33-1.615 3.58 3.58 0 0 1-.92.114 3.63 3.63 0 0 1-.92-.114 2.495 2.495 0 0 1-2.33 1.615h-1a2.5 2.5 0 0 1-2.5-2.501v-14.001a2.5 2.5 0 0 1 2.5-2.499h1a2.49 2.49 0 0 1 2.33 1.615c.268-.072.582-.114.92-.114.339 0 .653.043.92.114a2.49 2.49 0 0 1 2.33-1.615h1a2.49 2.49 0 0 1 2.33 1.615c.267-.072.581-.114.92-.114.303 0 .583.035.831.093a.537.537 0 0 1 .355-.48 2.475 2.475 0 0 1 2.063-1.114h1a2.5 2.5 0 0 1 2.5 2.499v14.001a2.5 2.5 0 0 1-2.5 2.5zm-5-16.074c-.414-.086-.736-.24-.892-.427h-.107a.5.5 0 0 0-.5-.498c-.045 0-.085.014-.125.025a.998.998 0 0 0-.875-.525h-1a1 1 0 0 0-.875.525c-.041-.01-.081-.025-.126-.025a.5.5 0 0 0-.5.498h-.107c-.156.187-.48.341-.894.427v13.147c.415.086.738.24.894.427h.107a.5.5 0 0 0 .5.5c.045 0 .085-.014.126-.025.17.31.495.525.875.525h1a1 1 0 0 0 .875-.525c.04.01.08.025.125.025a.5.5 0 0 0 .5-.5h.107c.156-.187.479-.341.893-.427v-13.147zm1.5 0c.415-.086.737-.24.893-.427h.107a.5.5 0 0 1 .5-.498c.044 0 .084.014.125.025a1 1 0 0 1 .875-.525h1a1 1 0 0 1 1 .998v14.001a1 1 0 0 1-1 1h-1a.998.998 0 0 1-.875-.525.738.738 0 0 1-.575-.475h-.157c-.156-.187-.478-.341-.892-.427v-13.147zm-9 0c-.414-.086-.736-.24-.892-.427h-.107a.5.5 0 0 0-.5-.498c-.044 0-.085.014-.125.025a.998.998 0 0 0-.875-.525h-1a1 1 0 0 0-1 .998v14.001a1 1 0 0 0 1 1h1a1 1 0 0 0 .875-.525c.04.01.08.025.125.025a.5.5 0 0 0 .5-.5h.107c.156-.187.478-.341.893-.427v-13.147z" id="a"/></defs><use fill="#F76260" xlink:href="#a" transform="translate(-140 -1374)" fill-rule="evenodd"/></svg>