<svg width="19" height="23" viewBox="0 0 19 23" xmlns="http://www.w3.org/2000/svg" xmlns:xlink="http://www.w3.org/1999/xlink"><defs><path d="M307.117 1469.136h-13.999a2 2 0 0 1-2-2v-14.5a5.002 5.002 0 0 1 5-5.001h8a5 5 0 0 1 5 5.001v14.499a2 2 0 0 1-2.001 2.001zm-10.08-14.001h3.86l-1.311-2.229a.562.562 0 0 0-.76-.2l-1.929 1.095a.54.54 0 0 0-.205.745l.346.589zm5.735 0h1.108a.74.74 0 0 1 .738.739v.023a.74.74 0 0 1-.738.739h-7.523a.76.76 0 0 1-.027-.001h-.212c-.023 0-.043.01-.068.014l-.067-.114a.738.738 0 0 1-.365-.627l-.865-1.48a1.077 1.077 0 0 1 .401-1.483l3.803-2.172a1.108 1.108 0 0 1 1.5.397l2.315 3.965zm4.846 8.07v-10.068a4 4 0 0 0-4-4.001h-6.999a4 4 0 0 0-4.001 4v13a1.5 1.5 0 0 0 1.5 1.5h12.001a1.5 1.5 0 0 0 1.499-1.5v-2.93z" id="a"/></defs><use fill="#F76260" xlink:href="#a" transform="translate(-291 -1447)" fill-rule="evenodd"/></svg>