<svg width="22" height="22" viewBox="0 0 22 22" xmlns="http://www.w3.org/2000/svg" xmlns:xlink="http://www.w3.org/1999/xlink"><defs><path d="M101.002 2061.392c-5.8 0-10.502-4.7-10.502-10.499 0-5.798 4.703-10.497 10.502-10.497 5.8 0 10.502 4.7 10.502 10.497 0 5.798-4.703 10.5-10.502 10.5zm0-19.492c-4.971 0-9 4.031-9 9.002a9 9 0 1 0 17.999 0c0-4.97-4.03-9.002-8.999-9.002zm5.352 6.993c-.147-2.151-1.477-3.28-3.992-3.39h-4.759v11.211h1.751v-4.211h2.844c2.734-.036 4.119-1.24 4.156-3.61zm-1.805.055c-.038 1.421-.894 2.151-2.57 2.187h-2.625v-4.265h2.624c1.641.036 2.498.729 2.571 2.078z" id="a"/></defs><use fill="#F2A049" xlink:href="#a" transform="translate(-90 -2040)" fill-rule="evenodd"/></svg>