<svg width="23" height="19" viewBox="0 0 23 19" xmlns="http://www.w3.org/2000/svg" xmlns:xlink="http://www.w3.org/1999/xlink"><defs><path d="M157.368 798.508a4.75 4.75 0 1 1-.001-9.5 4.75 4.75 0 0 1 .001 9.5zm0-8a3.25 3.25 0 1 0 0 6.499 3.25 3.25 0 0 0 0-6.5zm-12.5 8a4.75 4.75 0 1 1-.002-9.5 4.75 4.75 0 0 1 .001 9.5zm0-8a3.25 3.25 0 1 0 0 6.5 3.25 3.25 0 0 0 0-6.5zm-.25-4.5h2.5c1.317 0 2.404-2.77 3.01-2.488 1.105.603 5.003 2.678 5.49 2.988.781.496.65 1.75 0 1.999-.65.25-2.563.893-3 1-.523.13-1 .01-1 .5v4c0 .381-.175 1-.5 1s-1 .037-1-1v-4s-.172-1.591 1.5-1.999c.043 0 3-.5 3-.5s-3.112-1.424-4-2c-.291-.19-.5 0-.5 0s-1.608 1.982-2.499 2c-.893.018-2.326 0-3 0-.675 0-1-.409-1-1-.001-.28.999-.5.999-.5zm1.5-1a2.5 2.5 0 1 1 0-5 2.5 2.5 0 0 1 0 5zm0-3.5a1 1 0 1 0 0 2 1 1 0 0 0 0-2z" id="a"/></defs><use fill="#F76260" xlink:href="#a" transform="translate(-140 -780)" fill-rule="evenodd"/></svg>