<svg width="18" height="21" viewBox="0 0 18 21" xmlns="http://www.w3.org/2000/svg"><path d="M15.546 3.5c.103.29.378.5.704.5.326 0 .6-.21.704-.5H17v-2A1.5 1.5 0 0 0 15.5 0h-14A1.5 1.5 0 0 0 0 1.5v18A1.5 1.5 0 0 0 1.5 21h14a1.5 1.5 0 0 0 1.5-1.5v-6h-.046a.747.747 0 0 0-1.408 0H15.5V19a.5.5 0 0 1-.5.5H2a.5.5 0 0 1-.5-.5V2a.5.5 0 0 1 .5-.5h13a.5.5 0 0 1 .5.5v1.5h.046zM13 5.5H4a.5.5 0 0 0-.5.5v.5A.5.5 0 0 0 4 7h9a.5.5 0 0 0 .5-.5V6a.5.5 0 0 0-.5-.5zM11.5 10H4a.5.5 0 0 0-.5.5v.5a.5.5 0 0 0 .5.5h7.5a.5.5 0 0 0 .5-.5v-.5a.5.5 0 0 0-.5-.5zm-2 4.5H4a.5.5 0 0 0-.5.5v.5a.5.5 0 0 0 .5.5h5.5a.5.5 0 0 0 .5-.5V15a.5.5 0 0 0-.5-.5zm8.198-9.235l-.464-.214a.51.51 0 0 0-.678.25l-4.502 9.751a.512.512 0 0 0 .249.679l.463.215a.51.51 0 0 0 .679-.25l4.502-9.75a.513.513 0 0 0-.25-.68zm-6.26 10.732l-.442 2.265.518.235 1.479-1.796-1.496-.678-.06-.026z" fill="#10AEFF" fill-rule="evenodd"/></svg>