<svg width="21" height="17" viewBox="0 0 21 17" xmlns="http://www.w3.org/2000/svg"><path d="M19.5 0h-18A1.5 1.5 0 0 0 0 1.5v14A1.5 1.5 0 0 0 1.5 17h18a1.5 1.5 0 0 0 1.5-1.5v-14A1.5 1.5 0 0 0 19.5 0zm0 15a.5.5 0 0 1-.5.5H2a.5.5 0 0 1-.5-.5V2a.5.5 0 0 1 .5-.5h17a.5.5 0 0 1 .5.5v13zm-5.986-6.075c-.654-1.311-2.35-4.736-2.888-6.097 0 0-2.677 4.995-3.334 6.59 0-.002.005-.003.006-.005a3.5 3.5 0 1 0 6.734 1.337 3.48 3.48 0 0 0-.518-1.825zm-2.982 3.825c-1.105 0-2-.927-2-2.07 0-.174.027-.34.066-.501-.002.001-.009.002-.01.004l.033-.082c.049-.176.117-.341.207-.494.595-1.315 1.73-3.28 1.73-3.28.624.989 1.55 2.977 1.78 3.479.015.032.032.063.045.096l.01.023h-.004c.09.235.143.488.143.755 0 1.143-.896 2.07-2 2.07z" fill="#F2A049" fill-rule="evenodd"/></svg>