<svg width="22" height="18" viewBox="0 0 22 18" xmlns="http://www.w3.org/2000/svg" xmlns:xlink="http://www.w3.org/1999/xlink"><defs><path d="M109.69 1836.772H91.688a1.5 1.5 0 0 1-1.5-1.5v-14a1.5 1.5 0 0 1 1.5-1.5h18a1.5 1.5 0 0 1 1.499 1.5v14c0 .829-.67 1.5-1.499 1.5zm0-15a.5.5 0 0 0-.5-.5h-17a.5.5 0 0 0-.5.5v13a.5.5 0 0 0 .5.5h17a.5.5 0 0 0 .5-.5v-13zm-5.501 8a3.498 3.498 0 0 1-3.5 3.5 3.5 3.5 0 0 1-3.5-3.5c0-.355.069-.69.167-1.013-.088.005-.15.007-.167.014.074-.06.152-.139.231-.224a3.458 3.458 0 0 1 .966-1.393c1.147-1.981 2.303-4.883 2.303-4.883 0 1.094 1.489 3.526 2.525 5.084.261.273.475.589.638.936.207.298.337.479.337.479l-.163-.002a3.5 3.5 0 0 1 .163 1.003zm-1.501-.66s-.075-.106-.192-.282a2.05 2.05 0 0 0-.362-.549c-.591-.921-1.445-2.361-1.445-3.01 0 0-.661 1.718-1.316 2.889a2.065 2.065 0 0 0-.553.822 1.33 1.33 0 0 1-.131.13.561.561 0 0 1 .096-.009c-.057.191-.096.39-.096.6 0 1.142.896 2.068 2 2.068 1.105 0 1.999-.926 1.999-2.067 0-.208-.037-.403-.093-.591h.093z" id="a"/></defs><use fill="#F2A049" xlink:href="#a" transform="translate(-90 -1819)" fill-rule="evenodd"/></svg>