<svg width="43" height="42" viewBox="0 0 43 42" xmlns="http://www.w3.org/2000/svg"><path d="M37.536 33.674l4.075 3.995c.833.818.836 2.144.003 2.961a2.161 2.161 0 0 1-3.019.003l-4.084-4.001a21.227 21.227 0 0 1-13.271 4.616C9.641 41.248.236 32.07.236 20.749.236 9.43 9.641.252 21.24.252c11.599 0 21.004 9.178 21.004 20.497 0 4.903-1.767 9.397-4.708 12.925zM21.24 3.266c-9.942 0-18 7.834-18 17.501 0 9.665 8.058 17.501 18 17.501 9.939 0 17.997-7.837 17.997-17.501 0-9.666-8.058-17.501-17.997-17.501zm-3.154 14.093h3.236c0 .343-.03.773-.086 1.29 0 .573-.03 1.003-.09 1.287H14.5v1.977h6.296c-.409 1.493-2.448 2.779-6.124 3.869.176.23.409.543.702.943.29.403.493.717.612.947 3.149-1.087 5.159-2.32 6.034-3.696a168.348 168.348 0 0 1 5.95 3.61l1.311-1.977a8.09 8.09 0 0 0-.786-.43c-2.451-1.317-4.347-2.29-5.688-2.92l.087-.174.176-.173h6.736v-1.977h-6.297v-1.03c.057-.63.087-1.146.087-1.546h5.249v-1.89h-9.709c.29-.517.552-1.033.785-1.549l-2.185-.514c-.758 1.89-1.78 3.523-3.063 4.896.583.459.964.776 1.138.946.233.173.409.316.525.43a18.987 18.987 0 0 0 1.75-2.319zm12.42 12.545v-1.977H13.362V13.062h16.883V11H11v18.904h19.506z" fill="#10AEFF" fill-rule="evenodd"/></svg>