<svg width="19" height="22" viewBox="0 0 19 22" xmlns="http://www.w3.org/2000/svg" xmlns:xlink="http://www.w3.org/1999/xlink"><defs><path d="M209.564 1527.73l-4.502 9.75a.508.508 0 0 1-.678.25l-.462-.215a.512.512 0 0 1-.25-.68l4.502-9.75a.509.509 0 0 1 .677-.25l.464.216a.51.51 0 0 1 .249.679zm-6.431 12.55l-.518-.234.44-2.266.06.027 1.496.678-1.478 1.796zm-7.266-2.497h4.001a.75.75 0 0 1 0 1.5h-4a.75.75 0 0 1 0-1.5zm0-3.499h5.5a.75.75 0 1 1 0 1.5h-5.5a.75.75 0 0 1 0-1.5zm7.752-2.75a.75.75 0 0 1-.751.75h-7a.75.75 0 0 1 0-1.5h7a.75.75 0 0 1 .75.75zm-3.501-6.75h.5a.5.5 0 0 1 .5.5v1h1a.5.5 0 0 1 .5.5v.5a.5.5 0 0 1-.5.5h-1v1a.5.5 0 0 1-.5.5h-.5a.5.5 0 0 1-.5-.5v-1h-1a.5.5 0 0 1-.5-.5v-.5a.5.5 0 0 1 .5-.5h1v-1a.5.5 0 0 1 .5-.5zm7.75 1a.746.746 0 0 1-.7-.5h-.05v-1.5a.5.5 0 0 0-.5-.5h-13a.5.5 0 0 0-.5.5v17a.5.5 0 0 0 .5.5h13a.5.5 0 0 0 .5-.5v-5.5h.05c.105-.29.375-.5.7-.5.326 0 .596.21.7.5h.05v6a1.5 1.5 0 0 1-1.5 1.5h-14a1.5 1.5 0 0 1-1.5-1.5v-18a1.5 1.5 0 0 1 1.5-1.5h14a1.5 1.5 0 0 1 1.5 1.5v2h-.05a.746.746 0 0 1-.7.5z" id="a"/></defs><use fill="#F76260" xlink:href="#a" transform="translate(-191 -1521)" fill-rule="evenodd"/></svg>