<svg width="20" height="22" viewBox="0 0 20 22" xmlns="http://www.w3.org/2000/svg"><path d="M16.546 8.888c.104.29.378.5.704.5.326 0 .601-.21.704-.5H18v-7a1.5 1.5 0 0 0-1.5-1.5h-15a1.5 1.5 0 0 0-1.5 1.5v18a1.5 1.5 0 0 0 1.5 1.5h15a1.5 1.5 0 0 0 1.5-1.5v-2h-.046a.744.744 0 0 0 .046-.25.75.75 0 1 0-1.454.25H16.5v1.5a.5.5 0 0 1-.5.5H2a.5.5 0 0 1-.5-.5v-17a.5.5 0 0 1 .5-.5h14a.5.5 0 0 1 .5.5v6.5h.046zm-2.046 2.25a.75.75 0 0 0-.75-.75h-9.5a.75.75 0 1 0 0 1.5h9.5a.75.75 0 0 0 .75-.75zm-.75-5.25h-9.5a.75.75 0 1 0 0 1.5h9.5a.75.75 0 1 0 0-1.5zm-9.5 9a.75.75 0 1 0 0 1.5h4.5a.75.75 0 1 0 0-1.5h-4.5zm15.215-4.716a.75.75 0 0 0-1.048.168l-3.98 5.328-2.209-2.246a.75.75 0 0 0-1.07 1.051l2.805 2.853a.75.75 0 0 0 1.06.009c.052-.051.083-.113.117-.173a.746.746 0 0 0 .183-.176l4.309-5.768a.748.748 0 0 0-.168-1.046z" fill="#F76260" fill-rule="evenodd"/></svg>