<svg width="20" height="22" viewBox="0 0 20 22" xmlns="http://www.w3.org/2000/svg"><path d="M19.5 10.717V10.5c0-.037-.008-.072-.01-.109C19.364 4.622 16.22 0 10.001 0 3.995 0 .672 4.588.518 10.328.51 10.385.5 10.442.5 10.5V16A1.5 1.5 0 0 0 2 17.5h2.5A1.5 1.5 0 0 0 6 16v-5.5A1.5 1.5 0 0 0 4.5 9H2.09c.452-4.275 2.689-7.508 7.911-7.508 5.232 0 7.462 3.233 7.912 7.508H15.5a1.5 1.5 0 0 0-1.5 1.5V16a1.5 1.5 0 0 0 1.5 1.5H18a1.5 1.5 0 0 0 1.5-1.5v-5.23l.001-.024v-.029zm-17-.217H4a.5.5 0 0 1 .5.5v4.5a.5.5 0 0 1-.5.5H2.5a.5.5 0 0 1-.5-.5V11a.5.5 0 0 1 .5-.5zm15.5 5a.5.5 0 0 1-.5.5H16a.5.5 0 0 1-.5-.5V11a.5.5 0 0 1 .5-.5h1.5a.5.5 0 0 1 .5.5v4.5zm-1.409 2c-.372.699-.771 1.273-1.184 1.594-.639.498-1.57.381-2.276.37A1.957 1.957 0 0 0 11.243 18a1.965 1.965 0 0 0-1.961 1.97c0 1.087.878 1.968 1.961 1.968.767 0 1.424-.446 1.746-1.089.84.051 2.073-.05 3.024-.598.767-.443 1.447-1.499 2.029-2.75H16.59zm-5.348 3.313a.84.84 0 0 1-.837-.844.84.84 0 0 1 .837-.844.84.84 0 0 1 .835.844.84.84 0 0 1-.835.844z" fill="#F76260" fill-rule="evenodd"/></svg>