<svg width="42" height="43" viewBox="0 0 42 43" xmlns="http://www.w3.org/2000/svg"><path d="M34.687 25.321a19.573 19.573 0 0 0-8.38-6.075A10.487 10.487 0 0 0 31 10.5C31 4.701 26.299 0 20.5 0S10 4.701 10 10.5c0 3.371 1.595 6.362 4.063 8.284C5.942 21.139 0 28.619 0 37.5c0 1.109.114 2.19.292 3.248l.048.001c-.001.021-.006.042-.006.063a1.5 1.5 0 0 0 2.999.016h.003l-.002-.014v-.002c0-.141-.026-.275-.062-.405a16.577 16.577 0 0 1-.271-2.907c0-9.114 7.387-16.5 16.5-16.5 5.242 0 9.904 2.453 12.927 6.264l.001-.001c.271.388.719.644 1.229.644a1.496 1.496 0 1 0 1.029-2.586zM20.5 18a7.5 7.5 0 1 1 0-15 7.5 7.5 0 0 1 0 15zm20.429 8.566a1.5 1.5 0 0 0-2.094.337l-7.961 10.656-4.417-4.492a1.5 1.5 0 1 0-2.14 2.103l5.609 5.705c.581.589 1.53.598 2.121.018.104-.103.167-.226.234-.347.137-.094.264-.208.367-.35l8.617-11.535a1.5 1.5 0 0 0-.336-2.095z" fill="#10AEFF" fill-rule="evenodd"/></svg>