<svg width="22" height="22" viewBox="0 0 22 22" xmlns="http://www.w3.org/2000/svg"><path d="M8 8.127V2.002H6v7.354c-.622.705-1 1.63-1 2.645v8h1.5v-7.5a3 3 0 0 1 3-3h5.638c.088-.15.212-.274.362-.361V8.002s.371.406 1 1c.477.45.556.58 1 1-.329.317-.184.255-1 1-.488.446-1 1-1 1v-1.139a1.002 1.002 0 0 1-.362-.361H9.5a2 2 0 0 0-2 2v7.5H9v-7a1 1 0 0 1 1-1h4.5v1.5s.621.88 1.5 0c1.47-1.473 1.891-1.891 2.5-2.5.609-.61.691-1.308.051-1.95-.812-.814-1.692-1.66-2.551-2.55-1.133-1.176-1.5 0-1.5 0v1.5H9c-.345 0-.68.043-1 .125zM20 .502H2a1.5 1.5 0 0 0-1.5 1.5v18a1.5 1.5 0 0 0 1.5 1.5h18a1.5 1.5 0 0 0 1.5-1.5v-18a1.5 1.5 0 0 0-1.5-1.5zm0 19a.5.5 0 0 1-.5.5h-17a.5.5 0 0 1-.5-.5v-17a.5.5 0 0 1 .5-.5h17a.5.5 0 0 1 .5.5v17z" fill="#F2A049" fill-rule="evenodd"/></svg>