<svg width="22" height="22" viewBox="0 0 22 22" xmlns="http://www.w3.org/2000/svg" xmlns:xlink="http://www.w3.org/1999/xlink"><defs><path d="M294.66 1086.635c.104.291.382.5.708.5h9.5a.751.751 0 0 0 .708-.5h.043c0-.061-.001-.122-.003-.182a.757.757 0 0 0-.01-.212 5.501 5.501 0 0 0-10.974 0 .756.756 0 0 0-.011.212c-.002.06-.003.12-.003.182h.043zm1.584-1h7.748a4.001 4.001 0 0 0-7.748 0zm11.417 7.5c-1.559 2.41-4.257 4-7.543 4-5.27 0-9-4.029-9-9s3.695-9 9-9c5.549 0 9 4.029 9 9 0 .168-.005.335-.015.5h-13.735a.75.75 0 0 0-.707.5h-.014a5.13 5.13 0 0 0-.008.073.75.75 0 0 0-.017.251 4.24 4.24 0 0 0-.004.176c0 2.762 2.067 5 5.5 5 1.785 0 3.176-.58 4.113-1.513.044.008.09.012.137.012h3.293zm1.914-.5h.019c-1.686 3.543-5.29 6-9.476 6-6.877 0-10.5-4.701-10.5-10.5 0-5.8 4.098-10.5 10.5-10.5 6.848 0 10.5 4.7 10.5 10.5 0 .328-.02.652-.053.972a.75.75 0 0 1-.696 1.028h-13.72c.215 1.696 1.544 2.999 3.969 2.999 1.622 0 2.756-.594 3.392-1.499h5.359a.75.75 0 0 1 .706 1z" id="a"/></defs><use fill="#F76260" xlink:href="#a" transform="translate(-289 -1077)" fill-rule="evenodd"/></svg>