<svg width="19" height="21" viewBox="0 0 19 21" xmlns="http://www.w3.org/2000/svg"><path d="M4.969 0h-.5a.5.5 0 0 0-.5.5V4a.5.5 0 0 0 .5.5h.5a.5.5 0 0 0 .5-.5V.5a.5.5 0 0 0-.5-.5zm9.5 0h-.5a.5.5 0 0 0-.5.5V4a.5.5 0 0 0 .5.5h.5a.5.5 0 0 0 .5-.5V.5a.5.5 0 0 0-.5-.5zM12.5 1.776h-6v1.5h6v-1.5zm5 0H16v1.5h1a.5.5 0 0 1 .5.5v2.5h-16v-2.5a.5.5 0 0 1 .5-.5h1v-1.5H1.5a1.5 1.5 0 0 0-1.5 1.5v16a1.5 1.5 0 0 0 1.5 1.5h16a1.5 1.5 0 0 0 1.5-1.5v-16a1.5 1.5 0 0 0-1.5-1.5zm0 17a.5.5 0 0 1-.5.5H2a.5.5 0 0 1-.5-.5v-11h16v11zm-5.238-8.684l-3.138 4.73-2.303-2.32a.775.775 0 0 0-1.09-.009.762.762 0 0 0-.01 1.082l2.948 2.97c.021.02.05.03.073.048.014.014.021.032.037.045a.631.631 0 0 0 .641.096.75.75 0 0 0 .34-.18c.123-.12 3.617-5.57 3.617-5.57.223-.341.154-.817-.154-1.063s-.738-.17-.96.171z" fill="#F2A049" fill-rule="evenodd"/></svg>