<svg width="19" height="21" viewBox="0 0 19 21" xmlns="http://www.w3.org/2000/svg"><path d="M5 0h-.5a.5.5 0 0 0-.5.5V4a.5.5 0 0 0 .5.5H5a.5.5 0 0 0 .5-.5V.5A.5.5 0 0 0 5 0zm9.5 0H14a.5.5 0 0 0-.5.5V4a.5.5 0 0 0 .5.5h.5A.5.5 0 0 0 15 4V.5a.5.5 0 0 0-.5-.5zm-2 2h-6v1.5h6V2zm5 0H16v1.5h1a.5.5 0 0 1 .5.5v2.5h-16V4a.5.5 0 0 1 .5-.5h1V2H1.5A1.5 1.5 0 0 0 0 3.5v16A1.5 1.5 0 0 0 1.5 21h16a1.5 1.5 0 0 0 1.5-1.5v-16A1.5 1.5 0 0 0 17.5 2zm0 17a.5.5 0 0 1-.5.5H2a.5.5 0 0 1-.5-.5V8h16v11zm-7.75-9a.75.75 0 0 0-.75.75v4a.75.75 0 1 0 1.5 0v-4a.75.75 0 0 0-.75-.75zm0 6.5a.75.75 0 1 0 0 1.5.75.75 0 0 0 0-1.5z" fill="#F2A049" fill-rule="evenodd"/></svg>