<svg width="22" height="19" viewBox="0 0 22 19" xmlns="http://www.w3.org/2000/svg"><path d="M5.24 7.934a.73.73 0 0 0 .735 0c.435-.253 4.25-2.547 4.25-4.97 0-1.48-1.2-2.686-2.674-2.686a2.66 2.66 0 0 0-1.944.844A2.66 2.66 0 0 0 3.663.278 2.684 2.684 0 0 0 .99 2.965c0 2.422 3.816 4.716 4.25 4.97zM3.663 1.738c.67 0 1.214.55 1.214 1.227a.73.73 0 0 0 1.46 0c0-.677.545-1.227 1.214-1.227.67 0 1.214.55 1.214 1.227 0 1.097-1.806 2.62-3.158 3.483C4.256 5.586 2.45 4.062 2.45 2.965c0-.677.545-1.227 1.214-1.227zm17.623 9.868l-2.84-2.84c-.563-.563-1.588-.988-2.385-.988H8.615A1.827 1.827 0 0 0 6.79 9.603v.22c0 1.006.819 1.824 1.825 1.824h1.96l-.388.389c-.265.265-.867.466-1.239.413l-6.263-.895c-.824-.118-1.815.163-2.306.654a1.23 1.23 0 0 0-.357 1.113c.091.473.452.877.99 1.108l6.419 2.75c.703.302 1.792.389 2.533.203l2.694-.673a15.86 15.86 0 0 0 2.182-.75l.711-.317c.263-.116.712-.023.906.19l2.57 2.805a.728.728 0 0 0 1.031.046.73.73 0 0 0 .046-1.032l-2.57-2.806c-.614-.67-1.745-.906-2.575-.537l-.711.316c-.512.227-1.402.533-1.944.669l-2.694.673c-.431.108-1.196.047-1.604-.129L1.64 13.11a1.79 1.79 0 0 1 .839-.11l6.263.895c.824.118 1.89-.237 2.478-.826l.86-.86c.6-.6.468-1.139.384-1.343-.085-.204-.373-.678-1.22-.678h-2.63a.37.37 0 0 1-.365-.365v-.219a.37.37 0 0 1 .365-.365h7.446c.408 0 1.065.272 1.353.56l2.84 2.84a.73.73 0 0 0 1.032-1.032z" fill="#F76260" fill-rule="evenodd"/></svg>