<svg width="22" height="22" viewBox="0 0 22 22" xmlns="http://www.w3.org/2000/svg" xmlns:xlink="http://www.w3.org/1999/xlink"><defs><path d="M251.775 1758.847v-.601h2.88v.601h1.073v-4.168H250.7v4.168h1.076zm-4.726-3.094v-5.586h2.02v5.542h.774v-6.574h-3.567v6.618h.773zm1.032 1.16c.114.144.3.344.559.6.4.373.701.674.901.904l.688-.773a61.198 61.198 0 0 0-1.892-1.72c.115-.514.172-1.244.172-2.19v-2.836h-.901v2.792c0 1.261-.115 2.15-.344 2.665-.202.573-.688 1.131-1.462 1.676.259.315.459.602.602.859.86-.746 1.419-1.404 1.677-1.978zm8.25-3.224v-.945h-1.806c.144-.2.344-.515.602-.945.143-.258.258-.443.343-.558l-1.03-.344c-.173.315-.43.789-.773 1.417a7.52 7.52 0 0 1-.258.43h-3.224v.945h6.145zm-.3-2.964v-.945h-2.107a24.774 24.774 0 0 1-.515-1.203l-1.118.215.43.988h-2.276v.945h5.586zm-1.376 4.9v1.76h-2.879v-1.76h2.88zm3.492 6.003l.17.256c.125-.116.247-.235.367-.357a.751.751 0 0 0 .26-.274 10.44 10.44 0 0 0 2.746-7.062c0-5.8-4.702-10.5-10.5-10.5-5.8 0-10.5 4.7-10.5 10.5 0 5.798 4.7 10.499 10.5 10.499.558 0 1.101-.057 1.636-.14l-.326-1.465a8.987 8.987 0 0 1-1.311.106 9 9 0 1 1 9-9 8.941 8.941 0 0 1-1.586 5.096l-.29-1.006a.75.75 0 0 0-1.442.417l.694 2.402a.75.75 0 0 0 .582.528zm-5.383-9.398c-.087-.144-.23-.372-.43-.688-.2-.285-.358-.5-.471-.644l-.947.429c.172.201.387.531.645.988.115.173.2.302.258.386l.945-.471z" id="a"/></defs><use fill="#F3A24C" xlink:href="#a" transform="translate(-240 -1743)" fill-rule="evenodd"/></svg>