<svg width="20" height="22" viewBox="0 0 20 22" xmlns="http://www.w3.org/2000/svg"><path d="M19.657 16.232l-1.12-.804a5.76 5.76 0 0 0-1.43-7.857 5.743 5.743 0 0 0-8.023 1.317 5.765 5.765 0 0 0 1.314 8.036 5.74 5.74 0 0 0 7.155-.36c.005.003.006.008.01.01l1.218.876a.5.5 0 0 0 .699-.115l.291-.406a.499.499 0 0 0-.114-.697zm-2.466-1.508a4.244 4.244 0 0 1-5.921.969 4.24 4.24 0 0 1-.97-5.919 4.244 4.244 0 0 1 5.921-.969 4.24 4.24 0 0 1 .97 5.919zM4 12h1.5a.5.5 0 0 0 .5-.5V11a.5.5 0 0 0-.5-.5H4a.5.5 0 0 0-.5.5v.5a.5.5 0 0 0 .5.5zm13.25 6.5a.748.748 0 0 0-.704.5H16.5v.5a.5.5 0 0 1-.5.5H2a.5.5 0 0 1-.5-.5v-17A.5.5 0 0 1 2 2h14a.5.5 0 0 1 .5.5v3h.046c.104.29.378.5.704.5.326 0 .601-.21.704-.5H18V2A1.5 1.5 0 0 0 16.5.5h-15A1.5 1.5 0 0 0 0 2v18a1.5 1.5 0 0 0 1.5 1.5h15A1.5 1.5 0 0 0 18 20v-1h-.046a.747.747 0 0 0-.704-.5zM8.5 7v-.5A.5.5 0 0 0 8 6H4a.5.5 0 0 0-.5.5V7a.5.5 0 0 0 .5.5h4a.5.5 0 0 0 .5-.5zm-5 9a.5.5 0 0 0 .5.5h2a.5.5 0 0 0 .5-.5v-.5A.5.5 0 0 0 6 15H4a.5.5 0 0 0-.5.5v.5z" fill="#10AEFF" fill-rule="evenodd"/></svg>