<svg width="21" height="23" viewBox="0 0 21 23" xmlns="http://www.w3.org/2000/svg"><path d="M19.241 12.63h-6a1 1 0 0 0-1 1v8a1 1 0 0 0 1 1h6a1 1 0 0 0 1-1v-8a1 1 0 0 0-1-1zm-.25 8.3a.55.55 0 0 1-.55.55h-4.4a.55.55 0 0 1-.55-.55v-6.6a.55.55 0 0 1 .55-.55h4.4a.55.55 0 0 1 .55.55v6.6zm-3.75-4.8h2a.5.5 0 0 0 0-1h-2a.5.5 0 1 0 0 1zm2 1h-2a.5.5 0 1 0 0 1h2a.5.5 0 0 0 0-1zm0 2h-2a.5.5 0 1 0 0 1h2a.5.5 0 0 0 0-1zm-3.321-8.674c-.079-.054-.15-.132-.246-.153-.167-.075-.349-.116-.52-.18A5.25 5.25 0 1 0 5 5.75c0 1.685.798 3.181 2.031 4.142C2.971 11.069 0 14.81 0 19.25c0 .598.062 1.181.166 1.75.014.422.35.758.764.758a.75.75 0 0 0 .75-.75 9.166 9.166 0 0 1-.18-1.758 8.25 8.25 0 0 1 11.365-7.637c.385.189.453.22.692.22.419 0 .7-.313.7-.74a.77.77 0 0 0-.281-.592c-.009-.026-.033-.034-.056-.045zM6.5 5.75a3.75 3.75 0 1 1 7.5 0 3.75 3.75 0 0 1-7.5 0z" fill="#F2A049" fill-rule="evenodd"/></svg>