<svg width="43" height="34" viewBox="0 0 43 34" xmlns="http://www.w3.org/2000/svg" xmlns:xlink="http://www.w3.org/1999/xlink"><defs><path d="M219.238 411.253h-36a3 3 0 0 1-3-3.001v-26.999a3 3 0 0 1 3-3h36a2.998 2.998 0 0 1 2.997 3v26.999a2.997 2.997 0 0 1-2.997 3.001zm0-28.999a1 1 0 0 0-1-1h-34a1 1 0 0 0-1 1v24.998a1 1 0 0 0 1 1h34a1 1 0 0 0 1-1v-24.998zm-13.621 13.077a.996.996 0 0 1 .618.922v1a1 1 0 0 1-1 1h-7.999a1 1 0 0 1-1-1v-1c0-.418.257-.773.621-.925a5.95 5.95 0 0 1-1.621-4.075 6 6 0 0 1 11.999 0 5.968 5.968 0 0 1-1.618 4.078zm-4.38-8.076a4 4 0 1 0 0 7.997 4 4 0 0 0 0-7.997zm-13.002 13.999h26.002a1 1 0 0 1 0 2h-26.002a1 1 0 0 1 0-2z" id="a"/></defs><use fill="#10AEFF" xlink:href="#a" transform="translate(-180 -378)" fill-rule="evenodd"/></svg>