<svg width="40" height="43" viewBox="0 0 40 43" xmlns="http://www.w3.org/2000/svg"><path d="M39.406 31.559l-2.239-1.608c3.405-5.136 2.18-12.086-2.86-15.713-5.158-3.712-12.342-2.533-16.048 2.633-3.705 5.166-2.528 12.361 2.629 16.073 4.44 3.196 10.378 2.758 14.31-.722.009.007.012.017.021.022l2.436 1.751a1 1 0 0 0 1.396-.229l.583-.812a.998.998 0 0 0-.228-1.395zm-4.932-3.017c-2.734 3.805-8.037 4.672-11.843 1.939a8.479 8.479 0 0 1-1.94-11.837 8.487 8.487 0 0 1 11.843-1.939 8.479 8.479 0 0 1 1.94 11.837zM8.092 23.095h3a1 1 0 0 0 1-1v-1a1 1 0 0 0-1-1h-3a1 1 0 0 0-1 1v1a1 1 0 0 0 1 1zm26.5 13c-.652 0-1.202.419-1.408 1h-.092v1a1 1 0 0 1-1 1h-28a1 1 0 0 1-1-1v-34a1 1 0 0 1 1-1h28a1 1 0 0 1 1 1v6h.092c.207.581.756 1 1.408 1 .652 0 1.202-.419 1.408-1h.092v-7a3 3 0 0 0-3-3h-30a3 3 0 0 0-3 3v36a3 3 0 0 0 3 3h30a3 3 0 0 0 3-3v-2H36c-.206-.581-.755-1-1.408-1zm-17.5-23v-1a1 1 0 0 0-1-1h-8a1 1 0 0 0-1 1v1a1 1 0 0 0 1 1h8a1 1 0 0 0 1-1zm-10 18a1 1 0 0 0 1 1h4a1 1 0 0 0 1-1v-1a1 1 0 0 0-1-1h-4a1 1 0 0 0-1 1v1z" fill="#10AEFF" fill-rule="evenodd"/></svg>