<svg width="21" height="21" viewBox="0 0 21 21" xmlns="http://www.w3.org/2000/svg"><path d="M7.832 3.276A.5.5 0 0 1 8.25 2.5h4.5a.5.5 0 0 1 .383.822c4.506 1.054 7.368 4.58 7.368 8.935 0 4.581-2.135 8.743-9.97 8.743C2.914 21 .502 17.125.5 11.743.498 7.563 3.72 4.23 7.832 3.276zM13.75.5h-6.5a.5.5 0 0 0-.5.5v.5a.5.5 0 0 0 .5.5h6.5a.5.5 0 0 0 .5-.5V1a.5.5 0 0 0-.5-.5zm-3.507 19.004c-5.929 0-8.193-3.291-8.236-7.246-.047-4.295 4.305-7.762 8.75-7.762 4.06 0 8.236 3.832 8.236 7.762 0 4.424-2.816 7.246-8.75 7.246zM12.75 13.5a.5.5 0 0 0 .5-.5v-.5a.5.5 0 0 0-.5-.5h-.965l.869-2.35c.193-.366.078-.833-.256-1.044-.335-.212-.763-.087-.957.28l-1.006 2.723-1.158-2.684a.75.75 0 1 0-1.3.75l1.004 2.326H8.25a.5.5 0 0 0-.5.5v.5a.5.5 0 0 0 .5.5h1.5v1h-1.5a.5.5 0 0 0-.5.5v.5a.5.5 0 0 0 .5.5h1.5v1.5a.5.5 0 0 0 .5.5h.5a.5.5 0 0 0 .5-.5V16h1.5a.5.5 0 0 0 .5-.5V15a.5.5 0 0 0-.5-.5h-1.5v-1h1.5z" fill="#F76260" fill-rule="evenodd"/></svg>