<svg width="22" height="21" viewBox="0 0 22 21" xmlns="http://www.w3.org/2000/svg" xmlns:xlink="http://www.w3.org/1999/xlink"><defs><path d="M309.5 1393h-.5a.5.5 0 0 1-.5.5h-1.498a.5.5 0 0 1-.5-.5H295a.5.5 0 0 1-.5.5H293a.5.5 0 0 1-.5-.5 2 2 0 0 1-2-2v-15.5a2 2 0 0 1 2-2h17a2 2 0 0 1 2 2v15.5a2 2 0 0 1-2 2zm.5-16.5a1.5 1.5 0 0 0-1.5-1.5h-15a1.5 1.5 0 0 0-1.5 1.5v13.5a1.5 1.5 0 0 0 1.5 1.5h15a1.5 1.5 0 0 0 1.5-1.5v-13.5zm-2 12h-14a1 1 0 0 1-1-1v-10.501a1 1 0 0 1 1-.998h14a1 1 0 0 1 1 .998v10.5a1 1 0 0 1-1 1zm-.5-10.501a.5.5 0 0 0-.498-.5H295a.5.5 0 0 0-.5.5v8.5a.5.5 0 0 0 .5.5h12.002a.5.5 0 0 0 .498-.5v-8.5zm-.498 12.5h1.498a.5.5 0 1 1 0 1.001h-1.498a.5.5 0 1 1 0-1z" id="a"/></defs><use fill="#F76260" xlink:href="#a" transform="translate(-290 -1373)" fill-rule="evenodd"/></svg>