<svg width="22" height="21" viewBox="0 0 22 21" xmlns="http://www.w3.org/2000/svg" xmlns:xlink="http://www.w3.org/1999/xlink"><defs><path d="M160.914 1975.217a19.753 19.753 0 0 0-1.324 1.444c.031.109.053.222.053.342l-.007 1.528c0 .535-.938.8-1.639 1.11 0 0-3.439 1.11-6.933 1.11-3.608 0-7.274-1.11-7.274-1.11-.91-.385-1.64-.844-1.64-1.11l.007-1.963a15.287 15.287 0 0 0-1.447-1.924c-.682-.761-1.15-1.536-.067-2.396.342-.272 8.732-4.98 8.932-5.13 1.14-.474 1.894-.49 2.954 0 .488.223 8.333 4.827 8.975 5.235 1.025.649.471 1.801-.59 2.864zm-1.254-2.227c-.354-.322-7.152-4.044-7.517-4.242-1.06-.575-.697-.61-2 0-.431.164-7.682 4.002-7.92 4.242-.563.564-.64.46-.546.543.629.563 1.618 1.93 2.002 2.475v.384c-.18 1.196.415 1.455 1.112 1.708 0 0 3.195 1.142 6.318 1.142 2.984 0 5.902-1.142 5.902-1.142.787-.393 1.24-.289 1.111-1.713v-.262c.28-.338 1.137-1.39 1.537-2.048.491-.81.632-.508.001-1.087zm-8.768-.745l.908 1.727 1.848.372-1.287 1.44.235 1.958-1.704-.838-1.703.838.233-1.957-1.285-1.44 1.846-.373.91-1.727zm-6.928 8.569h.203a6.405 6.405 0 0 0-.031.588c0 3.646 3.97 3.853 6.756 3.853 2.78 0 6.758-.206 6.758-3.853 0-.208-.013-.415-.033-.621a3.232 3.232 0 0 0 1.531-.56v1.17c0 4.683-4.373 5.356-8.256 5.356-3.372 0-8.253-.39-8.253-5.356v-.865c.406.182.852.288 1.325.288z" id="a"/></defs><use fill="#F2A049" xlink:href="#a" transform="translate(-140 -1966)" fill-rule="evenodd"/></svg>