<svg width="43" height="39" viewBox="0 0 43 39" xmlns="http://www.w3.org/2000/svg" xmlns:xlink="http://www.w3.org/1999/xlink"><defs><path d="M200.322 972.972H189.94l5.278 18.77a.932.932 0 0 1 .035.23 1 1 0 0 1 .984.998 8 8 0 0 1-16 0 1 1 0 0 1 1-.997h.336l5.495-20.893a.996.996 0 0 1 .183-.367c.09-.34.37-.627.758-.723a1.12 1.12 0 0 1 .518-.004c.068-.01.138-.014.209-.014h24.999c.088 0 .173.007.257.021l.015-.003c.567-.137 1.144.179 1.293.708l5.92 21.045a.938.938 0 0 1 .034.23c.544.01.982.452.982.997a8 8 0 1 1-16 0 1 1 0 0 1 1-.997h.335l4.997-19.001h-9.415c.055.156.085.324.085.499v31.5h13.498a1.5 1.5 0 1 1 0 3.002h-31a1.5 1.5 0 0 1 0-3.001h14.501V973.47c0-.175.03-.343.085-.5zm-16.683 19l4.571-17.374 4.887 17.375h-9.458zm26.002 0l4.569-17.376 4.885 17.377h-9.454zm-1.304 1.998c.478 2.837 2.929 5 5.899 5s5.422-2.163 5.899-5h-11.798zm-20.102 5c2.971 0 5.422-2.163 5.9-5h-11.796c.477 2.837 2.929 5 5.896 5z" id="a"/></defs><use fill="#10AEFF" xlink:href="#a" transform="translate(-180 -969)" fill-rule="evenodd"/></svg>