<svg width="22" height="18" viewBox="0 0 22 18" xmlns="http://www.w3.org/2000/svg" xmlns:xlink="http://www.w3.org/1999/xlink"><defs><path d="M246.868 796.507a1.75 1.75 0 0 0 .945-3.223l-.382-.246-.453-.027a1.752 1.752 0 0 0-1.86 1.747c0 .965.786 1.749 1.75 1.749zm10.749-1.499a1.501 1.501 0 0 0 1.215-2.38l-.25-.344-.39-.163a1.504 1.504 0 0 0-1.033-.041l-.401.128-.278.323a1.5 1.5 0 0 0 1.137 2.477zm4.25-6c.69 0 1.251-.561 1.251-1.25a1.251 1.251 0 1 0-2.205.808l.254.299.375.1c.105.029.215.044.325.044zm-11.499-2.5a2.25 2.25 0 0 0 1.115-.295l.401-.23.28-.37a2.252 2.252 0 0 0-1.796-3.605 2.253 2.253 0 0 0-2.251 2.25c0 .81.44 1.562 1.146 1.96l.436.247.503.038c.056.002.111.005.166.005zm-3.5 11.499a3.25 3.25 0 1 1 .2-6.494l1.458-3.989a3.748 3.748 0 0 1 1.843-7.016 3.75 3.75 0 0 1 2.991 6.009.83.83 0 0 1 .336.289l3.005 3.844a2.998 2.998 0 0 1 2.067.085l1-1.2a2.75 2.75 0 1 1 1.383.878l-1.106 1.33a3 3 0 1 1-4.703-.191l-3.029-3.875a.921.921 0 0 1-.085-.163 3.734 3.734 0 0 1-2.135.484.74.74 0 0 1-.071.203l-1.399 3.822a3.249 3.249 0 0 1-1.755 5.985v-.001z" id="a"/></defs><use fill="#F76260" xlink:href="#a" transform="translate(-243 -780)" fill-rule="evenodd"/></svg>