<svg width="17" height="22" viewBox="0 0 17 22" xmlns="http://www.w3.org/2000/svg" xmlns:xlink="http://www.w3.org/1999/xlink"><defs><path d="M204.485 1393.882l3.489.867a.52.52 0 0 0 .629-.361.5.5 0 0 0-.374-.609l-2.296-.57c2.257-1.375 3.685-3.964 3.685-7.039 0-5.065-5.04-7.046-5.04-9.81-2.035 1.666-.507 5.754-.507 5.754-3.964-4.117.156-8.842.156-8.843-10.144 3.861-10.609 11.351-10.609 12.501 0 3.439 1.386 5.86 3.561 7.217l-2.091.541a.5.5 0 1 0 .248.969l3.217-.833c1.06.402 2.243.605 3.504.605.86 0 1.675-.136 2.428-.389zm-5.872-1.832c-2.14-1.141-3.495-3.566-3.495-6.778 0-.878 1.308-6.054 6-9 0 0-1.124 6.947 4.061 6.947 0 0-.966-2.748-.56-3.948 1.349 2.861 3.499 3.081 3.499 7.5 0 2.685-1.462 4.56-3.559 5.437.357-.59.56-1.31.56-2.101 0-2.291-2.207-3.188-2.207-4.438-.89.754-.221 2.602-.22 2.602-1.735-1.862.068-4 .068-4-4.438 1.746-4.641 5.135-4.641 5.656 0 .844.179 1.553.494 2.123zm2.505-5.28c-1.805 1.16-1.5 2.657-1.5 3.001 0 1.142.538 2.5 2 2.5 1.362 0 2-.495 2-2 0-.542.02-.873-.5-2-.156.472 0 1.5 0 1.5-1.994 0-2-3-2-3z" id="a"/></defs><use fill="#F76260" xlink:href="#a" transform="translate(-193 -1373)" fill-rule="evenodd"/></svg>