<svg width="22" height="21" viewBox="0 0 22 21" xmlns="http://www.w3.org/2000/svg" xmlns:xlink="http://www.w3.org/1999/xlink"><defs><path d="M106.387 1085.005h2.23a2 2 0 0 1 2 2l-1.999 9.5a2 2 0 0 1-2 2h-13a2 2 0 0 1-2-2l-2-9.5a2 2 0 0 1 2-2h2.548l2.129-6.376a.761.761 0 0 1 .92-.523.72.72 0 0 1 .523.892l-2.006 6.007h9.01l-2.087-6.069c-.115-.398.132-.804.55-.907.418-.103.85.134.966.533l2.216 6.443zm-15.018 3.567l-.251-1.067a1 1 0 0 1 1-1h16a1 1 0 0 1 1 1l-.252 1.067a.498.498 0 0 0-.248-.066h-17a.498.498 0 0 0-.25.066zm.337 1.434l1.412 6a1 1 0 0 0 1 1h12a1 1 0 0 0 1-1l1.411-6H91.706z" id="a"/></defs><use fill="#F76260" xlink:href="#a" transform="translate(-89 -1078)" fill-rule="evenodd"/></svg>