<svg width="43" height="42" viewBox="0 0 43 42" xmlns="http://www.w3.org/2000/svg"><path d="M37.536 33.674l4.076 3.995c.833.818.836 2.144.003 2.961a2.161 2.161 0 0 1-3.019.003l-4.084-4.001c-3.618 2.884-8.237 4.616-13.271 4.616C9.642 41.248.238 32.07.238 20.749.238 9.43 9.642.252 21.241.252S42.245 9.43 42.245 20.749c-.001 4.903-1.768 9.397-4.709 12.925zM21.24 3.266c-9.942 0-18 7.834-18 17.501 0 9.665 8.058 17.501 18 17.501 9.939 0 17.998-7.837 17.998-17.501 0-9.666-8.059-17.501-17.998-17.501zm7.165 10.656v3.437h-7.783v-3.437h7.783zM15.636 31.454V16.243A31.457 31.457 0 0 0 17.21 11.6l-2.275-.6c-.934 3.496-2.245 6.703-3.935 9.625.057.343.143.89.262 1.633.114.514.203.943.26 1.287a59.378 59.378 0 0 0 1.925-2.833v10.742h2.189zm7.61-12.119v2.406h-6.649v2.063h5.249c-1.344 1.89-3.267 3.493-5.774 4.812.35.287.815.86 1.4 1.717 2.505-1.316 4.431-3.15 5.774-5.5v6.619h2.362v-6.706c1.048 2.123 2.884 3.899 5.508 5.329.117-.173.322-.486.612-.946.292-.457.496-.773.615-.943-2.567-1.203-4.374-2.666-5.425-4.383h5.249V21.74h-6.559v-2.406h4.986v-7.476H18.347v7.476h4.899v.001z" fill="#10AEFF" fill-rule="evenodd"/></svg>