<svg width="17" height="8" viewBox="0 0 17 8" xmlns="http://www.w3.org/2000/svg"><path d="M.259.484h3.86c.841 0 1.471.2 1.89.6.418.4.628.969.628 1.707 0 .759-.228 1.352-.685 1.78-.456.426-1.152.64-2.089.64H2.592V8H.259V.484zm2.333 3.204h.569c.447 0 .762-.078.943-.233a.752.752 0 0 0 .272-.597.835.835 0 0 0-.236-.6c-.157-.164-.453-.246-.887-.246h-.661v1.676zM7.826.484h3.056l1.179 4.573L13.235.484h3.046V8h-1.897V2.268L12.912 8h-1.717L9.728 2.268V8H7.826V.484z" fill="#F76260" fill-rule="evenodd"/></svg>