<svg width="20" height="21" viewBox="0 0 20 21" xmlns="http://www.w3.org/2000/svg"><path d="M16.546 8.5c.104.29.378.5.704.5.326 0 .601-.21.704-.5H18v-7A1.5 1.5 0 0 0 16.5 0h-15A1.5 1.5 0 0 0 0 1.5v18A1.5 1.5 0 0 0 1.5 21h15a1.5 1.5 0 0 0 1.5-1.5v-2h-.046a.744.744 0 0 0 .046-.25.75.75 0 1 0-1.454.25H16.5V19a.5.5 0 0 1-.5.5H2a.5.5 0 0 1-.5-.5V2a.5.5 0 0 1 .5-.5h14a.5.5 0 0 1 .5.5v6.5h.046zM14.5 10.75a.75.75 0 0 0-.75-.75h-9.5a.75.75 0 1 0 0 1.5h9.5a.75.75 0 0 0 .75-.75zm-.75-5.25h-9.5a.75.75 0 1 0 0 1.5h9.5a.75.75 0 1 0 0-1.5zm-9.5 9a.75.75 0 1 0 0 1.5h4.5a.75.75 0 1 0 0-1.5h-4.5zm15.215-4.716a.75.75 0 0 0-1.048.168l-3.98 5.327-2.209-2.245a.75.75 0 0 0-1.07 1.051l2.805 2.852a.75.75 0 0 0 1.06.01c.052-.051.083-.113.117-.173a.746.746 0 0 0 .183-.176l4.309-5.768a.748.748 0 0 0-.168-1.046z" fill="#09BB07" fill-rule="evenodd"/></svg>