<svg width="22" height="15" viewBox="0 0 22 15" xmlns="http://www.w3.org/2000/svg" xmlns:xlink="http://www.w3.org/1999/xlink"><defs><path d="M203.24 1686.114c2.65-2.95 6.56-7.321 6.899-7.762.436-.575.395-1.312.158-1.787-.199-.401-.503-.605-.903-.605h-6.775l-2.538 2.77h8.672l-2.01 2.295-4.452 5.089h.948zm.615 1.383h-4.615l6.462-7.384h-8.77l5.078-5.538h7.385c2.227 0 3.188 2.85 1.845 4.615-.494.65-7.385 8.307-7.385 8.307zm-4.103-1.383h-7.315c-2.204 0-3.158-2.85-1.827-4.616.49-.649 7.32-8.307 7.32-8.307h4.571l-6.407 7.384h8.684l-5.026 5.539zm-.613-1.385l2.513-2.77h-8.592l1.989-2.291 4.42-5.093h-.916c-2.628 2.949-6.5 7.314-6.837 7.756-.435.579-.385 1.342-.154 1.805.196.393.49.593.877.593h6.7z" id="a"/></defs><use fill="#F2A049" xlink:href="#a" transform="translate(-190 -1673)" fill-rule="evenodd"/></svg>