<svg width="17" height="21" viewBox="0 0 17 21" xmlns="http://www.w3.org/2000/svg"><path d="M15.5 0h-14A1.5 1.5 0 0 0 0 1.5v18A1.5 1.5 0 0 0 1.5 21h14a1.5 1.5 0 0 0 1.5-1.5v-18A1.5 1.5 0 0 0 15.5 0zm0 19a.5.5 0 0 1-.5.5H2a.5.5 0 0 1-.5-.5V2a.5.5 0 0 1 .5-.5h13a.5.5 0 0 1 .5.5v17zm-5.75-2.5h-2.5a.75.75 0 1 0 0 1.5h2.5a.75.75 0 1 0 0-1.5zm3.75-14h-10a1 1 0 0 0-1 1v11a1 1 0 0 0 1 1h10a1 1 0 0 0 1-1v-11a1 1 0 0 0-1-1zm0 11.5a.5.5 0 0 1-.5.5H4a.5.5 0 0 1-.5-.5V4a.5.5 0 0 1 .5-.5h9a.5.5 0 0 1 .5.5v10z" fill="#F76260" fill-rule="evenodd"/></svg>