<svg width="19" height="21" viewBox="0 0 19 21" xmlns="http://www.w3.org/2000/svg" xmlns:xlink="http://www.w3.org/1999/xlink"><defs><path d="M251.038 1020.986c-3.711-.212-6.739-2.956-7.399-6.53l.048.018a.476.476 0 0 0 .615-.308l.163-.477a.514.514 0 0 0-.291-.65l-1.36-.513a.474.474 0 0 0-.617.306l-.056.167H242c0 .139.015.274.021.41a.515.515 0 0 0 .01.198c.317 4.963 4.428 8.892 9.47 8.892 5.041 0 9.155-3.932 9.468-8.896a.502.502 0 0 0 .011-.19c.006-.138.021-.274.021-.414h-.142l-.057-.167a.473.473 0 0 0-.615-.306l-1.362.514a.515.515 0 0 0-.29.649l.162.478c.09.264.366.401.616.307l.048-.018a8.004 8.004 0 0 1-6.884 6.484.748.748 0 0 0 .024-.19v-10.25h3.75a.751.751 0 0 0 0-1.5h-9.001a.75.75 0 1 0 0 1.5H251v10.25c0 .082.014.162.038.236zm-2.538-15.236a3.25 3.25 0 1 1 6.5 0 3.25 3.25 0 0 1-6.5 0zm3.25 1.749a1.75 1.75 0 1 0 .001-3.499 1.75 1.75 0 0 0-.001 3.499z" id="a"/></defs><use fill="#F76260" xlink:href="#a" transform="translate(-242 -1002)" fill-rule="evenodd"/></svg>