<svg width="23" height="19" viewBox="0 0 23 19" xmlns="http://www.w3.org/2000/svg" xmlns:xlink="http://www.w3.org/1999/xlink"><defs><path d="M207.584 1015.958c-.165 1.78-1.643 3.178-3.466 3.178h-6c-1.822 0-3.302-1.398-3.468-3.178a.307.307 0 0 1-.032-.134v-.878a.31.31 0 0 1 .31-.31h12.379a.31.31 0 0 1 .31.31v.879c0 .05-.013.094-.032.135zm-8.466-5.205v1.882h-1.613a65.208 65.208 0 0 0 1.613-1.882zm.037-2.104a.75.75 0 0 1 1.463.236v4.5a.749.749 0 0 1-.75.75h-3.5a.75.75 0 0 1-.724-.946.377.377 0 0 1-.025-.053l.108-.14a.754.754 0 0 1 .105-.135l3.286-4.226.037.014zm3.27-1.265a.75.75 0 0 0-1.308.5v6.5a.75.75 0 1 0 1.501 0v-.258h3.447c-.021-.019.981-.314.352-.993-.895-1.008-3.799-4.642-3.799-5.497 0-.279-.079-.327-.192-.252zm.193 2.884v2.367h1.5c-.022 0 .288.29 0 0-.106-.106-.85-1.308-1.5-2.367zm-4.22 7.367h5.44c.982 0 1.805-.629 2.125-1.499h-9.69a2.266 2.266 0 0 0 2.125 1.499zm12.969 2a.75.75 0 0 1 .751.751c0 .088-.021.17-.05.25h.05a1.5 1.5 0 0 1-1.5 1.5h-19a1.5 1.5 0 0 1-1.5-1.5v-15a1.5 1.5 0 0 1 1.5-1.5h19c.539 0 1.007.286 1.272.713.14.135.228.325.228.536 0 .03-.013.055-.017.083.006.056.017.111.017.168h-.05a.748.748 0 0 1-.701.5.746.746 0 0 1-.7-.5h-18.55a.5.5 0 0 0-.5.5v13.999a.5.5 0 0 0 .5.5h18.55a.73.73 0 0 1-.05-.25.75.75 0 0 1 .75-.75zm0-9.5a.75.75 0 0 1-.75-.75v-1a.75.75 0 1 1 1.501 0v1a.75.75 0 0 1-.751.75zm0 4a.75.75 0 0 1-.75-.75v-.999a.75.75 0 1 1 1.501 0v.999a.75.75 0 0 1-.751.75zm0 4a.75.75 0 0 1-.75-.75v-1a.75.75 0 0 1 1.501 0v1a.75.75 0 0 1-.751.75z" id="a"/></defs><use fill="#F76260" xlink:href="#a" transform="translate(-190 -1004)" fill-rule="evenodd"/></svg>