<svg width="43" height="34" viewBox="0 0 43 34" xmlns="http://www.w3.org/2000/svg" xmlns:xlink="http://www.w3.org/1999/xlink"><defs><path d="M319.237 411.253h-36a3.002 3.002 0 0 1-3.001-3.001v-26.999a3 3 0 0 1 3.001-3h36a2.999 2.999 0 0 1 2.998 3v26.999a2.998 2.998 0 0 1-2.998 3.001zm0-28.999a1 1 0 0 0-1-1h-34a1 1 0 0 0-1 1v24.998a1 1 0 0 0 1 1h34a1 1 0 0 0 1-1v-24.998zm-20 10.999h-10.001a1 1 0 1 1 0-2h10.001a1 1 0 0 1 0 2zm0 6.001h-10.001a1 1 0 1 1 0-2h10.001a1 1 0 0 1 0 2zm9.5-4.001a3.5 3.5 0 1 1-.004-7 3.5 3.5 0 0 1 .004 7zm6.5 7.157v-1.156h-12.949c.263-3.35 3.042-6.001 6.482-6.001 3.606 0 6.532 2.911 6.532 6.5 0 .224-.044.439-.065.657z" id="a"/></defs><use fill="#10AEFF" xlink:href="#a" transform="translate(-280 -378)" fill-rule="evenodd"/></svg>