<svg width="19" height="22" viewBox="0 0 19 22" xmlns="http://www.w3.org/2000/svg"><path d="M16.046 4c.103.29.378.5.704.5.326 0 .6-.21.704-.5h.046V2A1.5 1.5 0 0 0 16 .5H2A1.5 1.5 0 0 0 .5 2v18A1.5 1.5 0 0 0 2 21.5h14a1.5 1.5 0 0 0 1.5-1.5v-6h-.046a.747.747 0 0 0-1.408 0H16v5.5a.5.5 0 0 1-.5.5h-13a.5.5 0 0 1-.5-.5v-17a.5.5 0 0 1 .5-.5h13a.5.5 0 0 1 .5.5V4h.046zM13.5 6h-9a.5.5 0 0 0-.5.5V7a.5.5 0 0 0 .5.5h9A.5.5 0 0 0 14 7v-.5a.5.5 0 0 0-.5-.5zM12 10.5H4.5a.5.5 0 0 0-.5.5v.5a.5.5 0 0 0 .5.5H12a.5.5 0 0 0 .5-.5V11a.5.5 0 0 0-.5-.5zM10 15H4.5a.5.5 0 0 0-.5.5v.5a.5.5 0 0 0 .5.5H10a.5.5 0 0 0 .5-.5v-.5a.5.5 0 0 0-.5-.5zm8.197-9.235l-.463-.214a.51.51 0 0 0-.678.25l-4.502 9.751a.512.512 0 0 0 .249.679l.464.215a.51.51 0 0 0 .678-.25l4.501-9.75a.513.513 0 0 0-.249-.68zm-6.26 10.732l-.441 2.265.518.235 1.479-1.796-1.496-.678-.06-.026z" fill="#F2A049" fill-rule="evenodd"/></svg>