<?xml version="1.0" standalone="no"?><!DOCTYPE svg PUBLIC "-//W3C//DTD SVG 1.1//EN" "http://www.w3.org/Graphics/SVG/1.1/DTD/svg11.dtd"><svg t="1486793361894" class="icon" style="" viewBox="0 0 1024 1024" version="1.1" xmlns="http://www.w3.org/2000/svg" p-id="2869" xmlns:xlink="http://www.w3.org/1999/xlink" width="200" height="200"><defs><style type="text/css"></style></defs><path d="M799.784402 578.522066 799.784402 137.323599c0-41.695634-27.965935-70.816882-68.006883-70.816882-20.681018 0-38.760792 7.601118-53.735855 22.593578-54.996568 55.057967-54.830793 202.063065-54.685483 331.764056l0.014326 18.275225c0 31.683607 8.089235 56.134485 24.043602 72.67316 15.112186 15.663748 36.401048 23.606651 63.275115 23.606651 4.578272 0 20.784372 0.011256 36.376489 0.021489 3.906983 0.00307 7.77508 0.005117 11.413957 0.008186l0 43.071981c-26.843368 6.79066-46.769186 31.144324-46.769186 60.068074l0 258.159688c0 34.165124 27.79402 61.959144 61.95812 61.959144l10.92584 0c34.164101 0 61.95812-27.79402 61.95812-61.959144l0-258.159688C846.551542 609.66639 826.62777 585.313749 799.784402 578.522066zM747.093343 494.13512c-15.604396-0.010233-31.821753-0.021489-36.404118-0.021489-40.437991 0-46.012963-26.421766-46.012963-54.974056l-0.014326-18.321274c-0.122797-109.551068-0.290619-259.58413 42.602284-302.526151 7.141654-7.14984 14.931061-10.479679 24.5133-10.479679 17.21815 0 26.701129 10.480702 26.701129 29.511127l0 356.819708C754.851027 494.140237 750.990093 494.13819 747.093343 494.13512zM805.245787 896.749828c0 11.388375-9.266038 20.653389-20.652366 20.653389l-10.92584 0c-11.387351 0-20.652366-9.266038-20.652366-20.653389l0-258.159688c0-11.388375 9.266038-20.652366 20.652366-20.652366l10.92584 0c11.387351 0 20.652366 9.265014 20.652366 20.652366L805.245787 896.749828z" p-id="2870"></path><path d="M425.797709 84.96716c-1.094938-10.375302-9.872858-18.459421-20.537755-18.459421-11.406794 0-20.652366 9.246595-20.652366 20.652366l0 0.596588c0 1.50733 0.165776 3.010567 0.49221 4.481058 3.930519 17.685801 8.343015 35.910884 13.013385 55.205323 16.07921 66.425875 34.305317 141.713582 34.305317 206.637244 0 42.007743-23.861454 79.975473-60.761875 96.712669-9.66922 4.368494-18.364253 7.661494-26.046213 9.880021L345.610412 85.943394c0-11.406794-9.246595-20.652366-20.652366-20.652366-11.406794 0-20.652366 9.246595-20.652366 20.652366l0 374.634446c-6.716982-1.885953-14.876826-4.758374-24.515347-9.146311-37.078477-16.946974-61.037145-55.081503-61.037145-97.151667 0-63.536059 17.578354-137.433092 33.085536-202.632023 4.998851-21.013593 9.719362-40.86164 13.859659-60.154032 2.393513-11.151991-4.707209-22.13309-15.860223-24.526603-11.142781-2.388397-22.13309 4.707209-24.526603 15.859199-4.045129 18.844184-8.713452 38.47836-13.658068 59.262732-16.034185 67.408249-34.20708 143.810337-34.20708 212.190727 0 58.190307 33.431414 111.070678 85.199451 134.733611 14.586207 6.639211 28.810163 11.398608 41.657772 14.018272l0 75.654051c-26.52512 7.009647-46.140876 31.206746-46.140876 59.904345l0 258.159688c0 34.165124 27.79402 61.959144 61.95812 61.959144l10.92584 0c34.164101 0 61.95812-27.79402 61.95812-61.959144l0-258.159688c0-29.147854-20.237927-53.643758-47.39545-60.213383l0-75.160817c12.636808-2.553149 26.733874-7.407714 43.080168-14.791891 51.655474-23.430642 85.032652-76.16468 85.032652-134.342708 0-69.852928-18.842137-147.684574-35.464723-216.355583C433.785637 119.245871 429.55222 101.757568 425.797709 84.96716zM351.701131 638.59014l0 258.159688c0 11.388375-9.265014 20.653389-20.652366 20.653389l-10.92584 0c-11.388375 0-20.652366-9.266038-20.652366-20.653389l0-258.159688c0-11.388375 9.263991-20.652366 20.652366-20.652366l10.92584 0C342.436116 617.936751 351.701131 627.201765 351.701131 638.59014z" p-id="2871"></path></svg>