<svg width="22" height="19" viewBox="0 0 22 19" xmlns="http://www.w3.org/2000/svg" xmlns:xlink="http://www.w3.org/1999/xlink"><defs><path d="M209.333 1894.69l-.024-.185a.497.497 0 0 0-.562-.43l-5.778.615h6.364zm-15.721 0l15.5-1.671a.998.998 0 0 1 1.123.86l.128.971a1.5 1.5 0 0 1 .825 1.34v14c0 .829-.67 1.5-1.499 1.5h-18a1.5 1.5 0 0 1-1.5-1.5v-14a1.5 1.5 0 0 1 1.5-1.5h1.923zm16.077 2a.5.5 0 0 0-.5-.5h-17a.5.5 0 0 0-.5.5v13a.5.5 0 0 0 .5.5h17a.5.5 0 0 0 .5-.5v-13zm-2.75 7.5h-5.5a.75.75 0 0 1 0-1.5h5.5a.75.75 0 0 1 0 1.5zm0-3.5h-5.5a.75.75 0 0 1 0-1.499h5.5a.75.75 0 1 1 0 1.499zm-5.5 5.5h5.5a.75.75 0 0 1 0 1.501h-5.5a.75.75 0 0 1 0-1.5zm-3.75 1.501h-3.501a1 1 0 0 1-.999-1v-7a1 1 0 0 1 .999-1h3.5a1 1 0 0 1 1 1v7a1 1 0 0 1-1 1zm-.5-7.001a.5.5 0 0 0-.5-.5h-1.5a.5.5 0 0 0-.5.5v5a.5.5 0 0 0 .5.5h1.5a.5.5 0 0 0 .5-.5v-5z" id="a"/></defs><use fill="#F2A049" xlink:href="#a" transform="translate(-190 -1893)" fill-rule="evenodd"/></svg>