<svg width="22" height="22" viewBox="0 0 22 22" xmlns="http://www.w3.org/2000/svg" xmlns:xlink="http://www.w3.org/1999/xlink"><defs><path d="M100.689 1691.19c-5.8 0-10.5-4.7-10.5-10.499 0-5.8 4.7-10.5 10.5-10.5 5.798 0 10.499 4.7 10.499 10.5 0 5.798-4.7 10.5-10.499 10.5zm.5-19.473v.475a.499.499 0 0 1-1 0v-.475a8.986 8.986 0 0 0-8.476 8.475h.476a.5.5 0 1 1 0 .998h-.476a8.985 8.985 0 0 0 8.476 8.475v-.473a.5.5 0 0 1 1 0v.473a8.986 8.986 0 0 0 8.477-8.475h-.477a.499.499 0 1 1 0-.998h.477a8.986 8.986 0 0 0-8.477-8.475zm-.617 14.468c-.343 0-.674-.14-.797-.463-.143-.368-.29-1.808-.586-3.032a1.365 1.365 0 0 0-1-1c-.307-.079-2.173-.715-3.003-.915-.638-.154-.688-1.11 0-1.37 2.906-1.097 5.504-1.805 7.698-2.435a3.55 3.55 0 0 1 .947-.15c.932 0 1.438.562.858 1.87-.972 2.19-2.063 4.45-3.214 7.032-.129.288-.523.463-.903.463zm.3-2.77c.32-.704.637-1.386.946-2.052.463-.998.909-1.963 1.335-2.91l-.578.165c-1.426.407-2.986.852-4.67 1.414.313.1.559.18.659.207a2.868 2.868 0 0 1 2.083 2.1c.085.356.16.723.224 1.077z" id="a"/></defs><use fill="#F2A049" xlink:href="#a" transform="translate(-90 -1670)" fill-rule="evenodd"/></svg>