<svg width="24" height="21" viewBox="0 0 24 21" xmlns="http://www.w3.org/2000/svg" xmlns:xlink="http://www.w3.org/1999/xlink"><defs><path d="M355.216 1684.439h6.221a.75.75 0 0 0 .751-.749v-3a.75.75 0 0 0-.75-.75h-6.221v-8.006a1.5 1.5 0 0 0-1.5-1.501h-11.573a1.5 1.5 0 0 0-1.5 1.5v17.505h-.706a.75.75 0 1 0 0 1.5h16a.75.75 0 0 0 0-1.5h-.721v-4.999zm0-1.5h5.221a.25.25 0 0 0 .25-.25v-1a.25.25 0 0 0-.25-.25h-5.22v1.5zm-1.528-10.501c0-.274-.224-.5-.5-.5h-10.5a.5.5 0 0 0-.5.5v16.5c0 .277.223.5.5.5h10.5a.5.5 0 0 0 .5-.5v-16.5zm-3 8.5h-5.5a1 1 0 0 1-1-.999v-5a1 1 0 0 1 1-1h5.5a1 1 0 0 1 1 1v5a.998.998 0 0 1-1 .999zm-.5-4.999a.5.5 0 0 0-.5-.5h-3.501a.499.499 0 0 0-.499.5v3a.5.5 0 0 0 .499.5h3.5a.5.5 0 0 0 .5-.5v-3z" id="a"/></defs><use fill="#F2A049" xlink:href="#a" transform="translate(-339 -1670)" fill-rule="evenodd"/></svg>